<svg version="1.0" xmlns="http://www.w3.org/2000/svg" width="1493.333" height="1493.333" viewBox="0 0 1120 1120"><path d="M727.9 65.9c.8 1.3.8 2.2.1 2.6-.6.4-.7 1.2-.3 1.8 1.2 1.9 1.2 3.6.2 4.3-.6.4-.6 1.1.1 1.9.7.9.7 1.5.1 1.9-.9.6-.7 4.3.3 5.3.3.3.1 1.5-.4 2.7-.4 1.3-.4 2.9 0 3.6.5.8.5 1.9-.1 2.6-.6.8-.7 1.4 0 1.8.6.4.6 1.8.1 3.6-.5 1.7-.6 3-.2 3 .9 0 .8 5.8-.1 6.6-.3.4-.2 1.5.4 2.5.7 1.4.6 1.9-.2 1.9s-.8.4-.1 1.3c.7.8.7 1.8.2 2.7-.5.8-.6 1.9-.3 2.4 1 1.5 1 5.6 0 5.6-.4 0-.3.9.3 2 .8 1.4.8 2.6 0 4s-.8 2 0 2c.6 0 .8.5.5 1.1-1 1.6-1.2 7.9-.2 7.9.4 0 .3.8-.2 1.8-.6 1.1-.6 2.4 0 3.4.6 1.1.5 1.9-.1 2.3-.8.5-.8 1.1 0 2 .8 1 .8 1.9 0 3.4-.7 1.5-.7 2.1 0 2.1.8 0 .8.6 0 2s-.8 2 0 2 .8.6 0 2-.8 2 0 2c.6 0 .8.5.5 1.1-1 1.6-1.2 7.9-.2 7.9.4 0 .3.8-.2 1.8-.6 1.1-.6 2.4 0 3.4.6 1.1.5 1.9-.1 2.3-.8.5-.8 1.1 0 2 .8 1 .8 1.9 0 3.4s-.8 2.1 0 2.1c.6 0 .8.5.5 1.1-.9 1.3-1.2 7.9-.5 7.9s.5 5.9-.3 6.6c-.3.4-.2 1.5.4 2.5.7 1.4.6 1.9-.2 1.9s-.8.4-.1 1.3c.7.8.7 1.8.2 2.7-.5.8-.6 1.9-.3 2.4 1 1.5 1 5.6 0 5.6-.4 0-.3.9.3 1.9.7 1.3.7 2.2 0 2.6-.6.4-.7 1.3-.1 2.3.5.9.5 2.6.1 3.7s-.4 2.8.1 3.7c.6 1 .5 1.9-.1 2.3-.8.5-.8 1.1 0 2 .8 1 .8 1.9 0 3.4s-.8 2.1 0 2.1c.6 0 .8.5.4 1.1-.4.7-.7 2.1-.8 3.2-.1 1.8-1.8 2.5-11.1 5-6 1.6-12 3-13.3 3.1l-2.4.1v-95.7l.1-95.7-5.2.5c-2.9.2-7.5.7-10.4 1l-5.1.5-.1 97.2c0 113.7.1 101-1.1 100.2-.5-.3-1-.1-1 .6s-.3 1-.6.7c-.5-.5-3.5.5-13.9 4.7-1.1.5-2.3.7-2.7.7-.5-.1-.8.2-.8.6 0 .5-.6.9-1.2.9-.7 0-2.2.3-3.4.7l-2.1.6.1-100.7c.1-55.5 0-101.4-.2-102-.3-.8-1.5-1.1-3.1-.9-1.4.3-4.6.7-7.1 1-2.5.4-5.4.8-6.5 1-1.1.3-2.4.5-3 .5-.7.1-1 36-1 105.7v105.5l-13.2 6.9c-7.3 3.8-13.4 6.6-13.5 6.2-.2-.4-.3-49.7-.3-109.5l.1-108.8-3.5.6c-2 .4-4 .8-4.6.9-.5.1-1.6.5-2.3 1-.7.4-1.5.6-1.8.3-.3-.2-2.1.1-4.2.8l-3.7 1.3-.3 113.5-.2 113.5-5.3 3.8c-2.8 2.1-5.5 3.7-5.9 3.6-.5-.1-.8.2-.8.8 0 .5-1.3 1.6-3 2.5-1.6.8-3.9 2.5-5 3.7-1.1 1.2-2 1.8-2 1.4 0-.4-.7 0-1.6.8-.8.9-1.9 1.6-2.2 1.6-.4 0-.7-53.1-.7-118.1 0-64.9-.3-118.2-.6-118.4-.3-.2-4.9.9-10.2 2.6-8.3 2.6-9.7 3.3-9.8 5.2 0 1.2-.1 57.2-.2 124.4l-.2 122.2-8 7.3c-4.3 4-10.3 9.7-13.2 12.5-2.9 2.9-5.4 5.3-5.5 5.3-.2 0-.2-59.2-.1-131.5.1-81.3-.2-131.3-.8-131-.5.4-1.7.8-2.7 1-.9.1-5.2 1.9-9.4 3.9l-7.7 3.6v138.1c0 131.6-.1 138.1-1.8 140.8-1 1.6-5.4 7.6-9.8 13.2-4.4 5.7-8.4 11.1-9 12-.5.8-2.1 3.2-3.3 5.2-1.3 2-2.5 3.7-2.7 3.7-.1 0-.3-66-.3-146.8-.1-80.7-.1-148.2-.1-150l-.1-3.2-3.9 2.4c-2.1 1.4-4.2 2.2-4.5 1.9-.3-.4-.6-.1-.6.6s-.4.9-1 .6c-.5-.3-1-.2-1 .2 0 .5-1.7 1.7-3.7 2.8-2.1 1.1-4.3 2.4-4.8 3-.7.7-1 55.2-1 163.4 0 129.1-.3 162.5-1.2 162.9-.7.2-1.3.8-1.3 1.4 0 .5-1.6 4.4-3.6 8.6-6.9 14.5-9.2 20-8.7 20.6.4.3.2.6-.4.6-.9 0-2.1 2.7-2.7 6-.1.3-.4.9-.7 1.5-.4.5-1.2 2.8-1.9 5s-1.6 4.4-2 5c-.4.5-1.3 3.1-2 5.7-.7 2.7-1.5 4.8-1.9 4.8-.3 0-.6-82.8-.5-184 0-101.2-.1-184-.3-184-.7 0-5.8 3.5-7.7 5.2-1 1-2.3 1.5-2.8 1.2-.4-.3-.8-.1-.8.5 0 .5-1.7 2-3.7 3.2-2.1 1.3-4.1 2.8-4.5 3.3-.4.6-.8 116.9-.8 258.4 0 244.7-.1 257.2-1.7 256.4-1-.5-3.6-1.3-5.8-1.7-2.2-.5-4.2-.9-4.5-1-7.7-1.7-13.9-4-14.2-5.4-.2-.9-.4-110.2-.3-242.9 0-132.6-.3-241.2-.6-241.2-.4 0-8.3 6.3-9.9 8-.3.3-2.7 2.5-5.4 4.9l-4.9 4.4V674l-2.6-.7c-1.4-.3-4.2-1.4-6.2-2.4s-3.9-1.6-4.1-1.3c-.3.2-1.1-.2-1.8-1.1-.7-.8-1.8-1.5-2.5-1.5-2.1 0-9.5-4.3-9.5-5.4 0-.6-.1-95.5-.1-210.9-.1-125.2-.4-209.7-1-209.7-.5 0-.9.3-.9.7 0 .5-2.6 3.5-5.6 6.8-3.1 3.3-6.8 7.6-8.2 9.5-1.5 1.9-3.3 4-4.1 4.6-.9.7-1.2 2-.8 3.4.3 1.3.2 2.9-.4 3.6-.7.8-.7 1.4 0 1.8.7.4.7 1.5.1 3-.5 1.3-.6 2.6-.3 3 .9.9 1.1 7.6.1 8.2-.4.3-.6 1-.3 1.5.6.8 1 15.3.5 17.4-.1.5-.1 1.2 0 1.5.6 1.6.6 6.8-.1 8.6-.4 1.2-.5 2.4-.2 2.8.8.8 1.1 7.6.3 8.1-.6.3-.6 3.8 0 5.5.2.8.2 23.4 0 24.5-.1.5-.1 1.2 0 1.5.6 1.7.5 7.7-.2 8.7-.5.6-.5 1.4.1 1.7.7.4.7 1.5.1 3-.5 1.3-.6 2.6-.3 3 .8.8 1.1 7.6.3 8.1-.5.3-.6 5 0 5s.5 6.4-.1 8.1c-.4 1.2-.5 2.4-.2 2.8.8.8 1.1 7.6.3 8.1-.5.3-.6 5 0 5s.4 5.7-.2 6.1c-.5.3-.5 1-.1 1.7 1 1.6 1.1 5.9.2 8.3-.4 1.2-.5 2.4-.2 2.8.8.8 1.1 7.6.3 8.1-.5.3-.6 5 0 5s.5 6.4-.1 8.1c-.4 1.2-.5 2.5-.2 2.8 1 .9 1 7 .1 8.3-.5.6-.5 1.4.1 1.7.7.4.7 1.5.1 3-.5 1.3-.6 2.6-.3 3 .9.9 1.1 7.6.1 8.2-.4.3-.6 1-.3 1.5.6.8 1 15.3.5 17.4-.1.5-.1 1.2 0 1.5.6 1.6.6 6.8-.1 8.6-.4 1.2-.5 2.4-.2 2.8.8.8 1.1 7.6.3 8.1-.6.3-.6 3.8 0 5.5.2.8.2 23.4 0 24.5-.1.5-.1 1.2 0 1.5.6 1.7.5 7.7-.2 8.7-.5.6-.5 1.4.1 1.7.7.4.7 1.5.1 3-.5 1.3-.6 2.6-.3 3 .8.8 1.1 7.6.3 8.1-.5.3-.6 5 0 5s.5 6.4-.1 8.1c-.4 1.2-.5 2.4-.2 2.8.8.8 1.1 7.6.3 8.1-.5.3-.6 5 0 5s.4 5.7-.2 6.1c-.5.3-.5 1-.1 1.7 1 1.6 1.1 5.9.2 8.3-.4 1.2-.5 2.4-.2 2.8.8.8 1.1 7.6.3 8.1-.5.3-.6 5 0 5s.5 6.4-.1 8.1c-.4 1.2-.5 2.5-.2 2.8.7.6 1.1 5.6.5 5.6-.3 0-5-2.9-7.1-4.5-3.4-2.5-12-11.9-15.8-17.2l-4.2-5.9V466c0-86.6 0-159.5-.1-161.9v-4.3l-3.5 5.2c-1.9 2.9-3.5 5.6-3.5 6.1s-.4.9-1 .9c-.5 0-1 .6-1 1.3 0 .7-.9 2.3-2 3.5-1.2 1.2-1.8 2.2-1.4 2.2.3 0-.6 1.6-2 3.5-1.5 1.9-2.3 3.5-1.9 3.5.4 0 .3.4-.2.8-4.1 2.8-4-4.5-4 232.2 0 176.9.3 225.4 1.3 225.8 2.2.7 1.3 2.4-1 1.9-7.3-1.6-33.8-10.4-44.3-14.6-21.4-8.7-23-9.4-30.7-13.2-3.2-1.5-5.8-2.6-5.8-2.3 0 .3-1.5-.5-3.3-1.8-1.7-1.3-3.4-2.2-3.7-2.1-.6.2-6.4-2.8-17-8.6-4.1-2.3-8.3-4.5-9.2-4.8-1-.3-1.8-.9-1.8-1.4 0-.5-.4-.9-.9-.9-2.2 0-25.9-15.8-39.6-26.3-14.1-10.9-31.3-27.4-41-39.7-6-7.5-6.9-8.7-9.2-11.4-.7-.8-1.3-1.8-1.3-2.1 0-.3-1.8-3-4-6s-3.8-5.5-3.4-5.5c.4 0 0-.8-.8-1.8-5.4-6.2-18.1-36.6-20.2-48.2-.3-1.4-.5-2.5-.6-2.5-.3 0-1.7-9-2.6-16.7-.4-2.9-.7-8.1-.8-11.5-.1-3.5-.5-6.3-.9-6.3-.5 0-.5-.4-.2-1 .3-.5.8-4.3 1-8.4.6-9.8 1.8-19.5 3-23.6.2-.8.7-2.9 1-4.5.7-4.5 2.2-11 2.5-11 .1 0 .3-.7.5-1.5.9-4.1 6.2-18 7.4-19.4.7-.9 1.1-1.6.8-1.6-.4 0 5.4-11.9 9.4-19 2.4-4.3 5.3-8.5 6.4-9.2.5-.4.7-.8.2-.8-.6 0 8.5-13.4 10.3-15 .3-.3 1.8-2.3 3.5-4.5 7.2-9.7 28.5-31.3 39.5-40 4.1-3.3 8-6.5 8.6-7 .6-.6 2.2-1.7 3.4-2.5 1.3-.8 3.5-2.4 4.9-3.5 7.5-5.9 35-22.6 44.6-27.1 1.7-.7 3.7-1.8 4.5-2.4 3.2-2.2 31.7-14.9 41.5-18.5 1.1-.5 4.9-1.9 8.5-3.2 3.6-1.3 7.6-2.6 9-2.9 2.9-.6 5.2-2.4 3-2.4-.8.1-8 2.3-16 5.1-8 2.7-14.9 5.1-15.5 5.3-4 1.3-21.8 8.8-30.1 12.7-2.2 1-4.5 1.9-5.1 1.9-.6 0-1.3.3-1.5.8-.4.9-14 7.8-14.6 7.4-.3-.2-.8.1-1.1.6-.3.5-2.8 2.2-5.6 3.6-2.7 1.5-8.4 4.9-12.5 7.6-4.1 2.7-8.2 5.3-9 5.7-2.2 1-26.7 19.5-32.5 24.5-19 16.5-41.6 43.1-52.1 61.3-8.5 14.8-15.4 28.9-15.4 31.4 0 .6-.5 1.1-1.2 1.1-.6 0-.9.2-.6.6.3.3-.3 2.8-1.4 5.7-1.1 2.9-2.2 6.2-2.4 7.4-.2 1.2-.9 3.5-1.5 5-.6 1.6-1.3 3.9-1.5 5.3-.1 1.4-.5 3.6-.8 5C.3 547.2-.3 569.8 3 590.4c.4 2.8.6 5.4.3 5.8-.2.5 0 .8.5.8s1.2 1.9 1.6 4.2c2.1 13.5 13.5 40.8 22.7 54.6 1.6 2.4 2.9 4.5 2.9 4.8 0 .5 4.1 6.5 5 7.4.3.3 2.7 3.4 5.4 7 7.4 10.1 19.6 23.4 30.8 33.5 10.6 9.6 12.9 11.6 20.6 17.3 4.2 3.1 7.9 6 8 6.4.2.5.9.8 1.6.8.7 0 2.1.9 3.1 2s2.4 2 3.1 2c.7 0 1.4.3 1.6.7.7 1.7 28.8 19.3 30.7 19.3.5 0 1.1.3 1.3.7.2.5 3.5 2.4 7.3 4.3 3.9 1.9 7.3 3.9 7.6 4.3.3.5 1 .9 1.5.9.5.1 5.4 2.2 10.9 4.8 8.9 4.2 19.4 8.9 28 12.6 26.6 11.4 68.9 23.6 104 29.9 16 2.9 18.3 3.3 25.5 4.1 5.4.7 8.5 1.1 8.5 1.4 0 0 2.5.3 5.5.5 3 .3 7.5.7 10 1 2.5.3 7.7.8 11.5 1.1 3.9.3 9.9.7 13.5 1 3.6.3 22.5.6 42 .7 31.9 0 41.6-.2 58.5-1.8 14.5-1.3 20.3-1.7 23.3-1.8 1.7 0 3.2-.3 3.2-.6s1.7-.7 3.8-.7c2-.1 5.3-.4 7.2-.7 1.9-.3 6.2-.9 9.5-1.2 3.3-.4 6.7-1.1 7.6-1.6.9-.4 1.9-.6 2.2-.3.5.5 8.1-.6 21.7-3.1 4.1-.8 8.6-1.7 10-1.9 8.5-1.6 28.1-5.8 36.7-8 5.5-1.4 11.1-2.8 12.4-3 1.3-.3 2.4-.5 2.4-.6 0-.1.7-.3 1.5-.5 8.5-2.2 18.7-5 24.2-6.6 3.7-1.1 6.9-1.9 7.1-1.7.2.2 1.1-.3 2-1.1 1-.7 1.7-1.1 1.7-.8 0 .7 38.1-12.1 45.3-15.2 2.6-1.1 4.7-1.8 4.7-1.4 0 .3.6.1 1.3-.4.6-.5 7.3-3.4 14.7-6.4 7.4-2.9 13.7-5.6 14-5.9.3-.3 1-.6 1.6-.7 2.7-.5 51.8-24.4 61.9-30.1 1.6-.9 6.2-3.6 10.3-5.9 4-2.4 7.8-4.3 8.3-4.3.5 0 .9-.5.9-1 0-.6.4-1 1-1 1.3 0 26.3-16 27.2-17.4.4-.6.8-.8.8-.4 0 .7 6.2-3.6 10.7-7.2.7-.6 1.6-1 2.2-1 .5 0 1.1-.3 1.3-.8.2-.4 3.7-3.2 7.8-6.1 4.1-3 7.7-5.8 7.8-6.3.2-.4.8-.8 1.2-.8.5 0 2-1 3.3-2.3 1.3-1.2 5.3-4.4 8.8-7.2 3.5-2.7 6.6-5.2 6.9-5.5.3-.3 3.9-3.4 8-7 8.5-7.3 8.8-7.6 19.6-18.1 13.4-13 26.9-27.5 35-37.8 1-1.3 2.6-3.1 3.4-4.1 2.8-3.1 8-9.9 8-10.4 0-.3.8-1.4 1.8-2.5 2.4-2.6 7-9.4 7-10.5 0-.5.4-1.2.9-1.5 1.4-.9 7.3-9.8 7.3-11 0-.6.5-1.1 1-1.1.6 0 1-.6 1-1.3 0-.7.9-2.3 2-3.5 1.1-1.2 2-2.5 2-2.9 0-.5.8-2 1.7-3.3 1-1.4 1.8-3.1 2-3.9.1-.8.5-1.7 1-2 1.1-.8 8.4-15.1 7.7-15.1-.3 0 .2-.7 1-1.6.9-.8 1.4-1.9 1.1-2.4-.3-.4.2-1.3 1-2s1.2-1.6.9-2.1c-.3-.5 0-.9.5-.9.6 0 1.1-.8 1.1-1.8 0-.9.7-3.1 1.6-4.7 1.8-3.4 7.3-17.4 7.9-20.2.2-1 1.2-3.8 2.1-6.3.9-2.5 1.8-5.2 2-6 .2-.8 1.2-5.1 2.4-9.4 1.1-4.4 2.2-8.9 2.5-10 .2-1.2 1.1-5.4 2-9.4.8-4 1.3-7.7 1-8.3-.4-.5-.2-.9.2-.9.5 0 .9-.8.9-1.8 0-.9.3-3.7.7-6.2 1-6.9 1.8-15 2.2-21 .2-3 .4-5.6.4-5.6.1-.1 9.2 2.9 20.4 6.7 11.1 3.8 20.4 7 20.7 7.1.9.1 3.5 1 5.5 1.8 1.1.4 4.5 1.5 7.5 2.5s6.6 2.3 8 2.8c1.4.5 3.2 1.1 4 1.2.8.2 3.5 1 5.9 1.9 5.6 2.1 5.4 2.1 3.5-1.5-.8-1.7-1.7-4-1.9-5.1-.3-1.2-1.1-2.8-1.9-3.7-.7-.9-1.7-2.6-2-3.8-.4-1.2-2.5-5.8-4.7-10.3-2.1-4.4-3.9-8.2-3.9-8.5 0-.2-2.7-6.1-6.1-13.2-3.3-7-7-14.8-8.1-17.3-1.1-2.5-4.5-9.6-7.4-15.9-3-6.2-5.7-12.4-6-13.7-.3-1.3-1-2.4-1.5-2.4s-.9-.4-.9-1c0-1-2.7-7.1-10-22.5-2.3-4.8-5.4-11.5-6.9-14.9-1.6-3.3-4.5-9.6-6.5-13.9-2-4.2-5.2-11.2-7.2-15.5-2-4.2-5-10.6-6.7-14.2-1.7-3.6-3.1-6.8-3.1-7.2-.3-2.5-1.7-1.2-3.2 2.9-.9 2.6-2.7 7.4-4 10.5-1.2 3.1-1.9 5.9-1.6 6.2.3.3-.1.6-.8.6-.7 0-1.1.3-.8.6.4.3-1.1 4.8-3.2 9.9-2.1 5.2-4.1 10.7-4.5 12.4-.4 1.7-1.1 3.3-1.6 3.6-.5.4-.9 1.4-.9 2.3 0 .9-.6 2.9-1.4 4.3-.7 1.5-2.2 5.1-3.1 8-1 3-2.1 5.8-2.5 6.4-.3.5-1.3 3-2 5.5s-1.7 4.9-2 5.5c-.4.5-1.5 3.4-2.5 6.4-.9 2.9-2.4 6.5-3.1 8-.8 1.4-1.4 3.3-1.4 4.2 0 .9-.3 1.9-.7 2.3-.5.4-.8 1.1-.9 1.4 0 .4-.4 1.6-.9 2.7-4 10-6.6 17.1-6.9 18.4-.1.9-1 3.4-2 5.6-1 2.2-1.9 4.4-2 5-.2.5-.8 2.3-1.5 4-.6 1.6-3.4 9.1-6.2 16.5-2.8 7.4-5.4 14.4-5.8 15.5-4 9.8-11.8 30.5-12.6 33.5-.1.3-.5 1.3-.8 2.2-1.2 3.1-1.6 4.8-1.3 4.8.2 0 1.9-1.3 3.7-3 1.9-1.6 3.7-3 4.1-3 .4 0 1.3-.6 2-1.3.7-.6 6.7-5.3 13.3-10.2 13-9.7 15-11.3 17-13.3.8-.6 1.7-1.2 2.2-1.2.4-.1 2.4-1.4 4.3-3 1.9-1.7 3.7-3 4.1-3 1.4 0-6 27-11.4 41.2-1.4 3.6-2.3 6.9-2 7.2.4.3.1.6-.5.6-.7 0-1.2.7-1.2 1.5s-.4 2.3-.9 3.3c-.6.9-3.5 7-6.5 13.4-3.1 6.5-8.6 16.7-12.3 22.9-3.8 6.1-7.2 12-7.8 13-.5 1.1-1.3 1.9-1.7 1.9-.5 0-.8.5-.8 1.1 0 1.1-13.2 19-20.2 27.4-4.5 5.4-29.1 30.1-35.4 35.6-6.3 5.4-20.2 16.3-21.5 16.7-.5.2-1-71.3-1.1-180.4l-.3-180.8-6-.5c-7.2-.5-55.5-.6-64-.1-3.3.2-6.8.7-7.7 1.2-1.2.6-1.8.5-1.8-.2 0-.6-.4-.9-.9-.6-.4.3-3.5.8-6.7 1.1-3.2.4-7 .8-8.4 1-1.4.2-5 .7-8 1-3 .4-6.4.9-7.5 1.2-1.1.2-3.8.6-5.9.8-2.1.3-4.7.7-5.8 1-1.1.4-1.8.1-1.9-.7-.1-.7-.2-41.6-.3-90.8l-.1-89.5-10.8-.3c-10.5-.3-10.8-.2-9.8 1.7zm262.5 433.2c-1.9 4.6-5.2 11.8-7.2 15.9s-3.5 7.8-3.4 8.2c.1.5-.2.8-.6.8-.5 0-1.4 1.6-2.2 3.5-.8 1.9-1.7 3.5-2.1 3.5-.4 0-1 1.2-1.4 2.7-.3 1.5-1 3-1.3 3.3-1 .7-3 4.1-4.7 7.6-.7 1.7-2.1 3.6-2.9 4.4-.9.7-1.6 1.6-1.6 2.1s-1.6 3.2-3.5 5.9-3.5 5.2-3.5 5.6c0 .3-.6 1.1-1.2 1.9-2.4 2.5-4.8 5.5-4.8 6.1 0 .4-1.8 2.8-9.8 12.9-2.1 2.7-13 15.5-16.2 18.9-6.2 7-28.4 28.9-35.5 35.1-3.8 3.3-8.2 7.2-9.8 8.7-1.7 1.6-3.4 2.8-3.8 2.8-.5 0-.9-2.5-.9-5.5s-.3-5.5-.7-5.4c-.5 0-6 3.1-12.3 6.9-6.3 3.7-15.3 8.8-20 11.2-4.7 2.3-8.6 4.6-8.8 5-.2.5-.9.8-1.6.8-.7 0-3.9 1.3-7.2 2.9-3.2 1.6-8.1 3.9-10.9 5.1-2.7 1.2-6.9 3.1-9.2 4.2-2.4 1.1-4.9 2.1-5.5 2.2-.7.1-3.5 1.2-6.2 2.4s-5 2.2-5.2 2.2c-.1 0-1.5.5-3.1 1.1-1.5.6-2.9 1-3.1 1-.1-.1-1.6.6-3.2 1.4-1.6.8-3.1 1.5-3.2 1.5-.2-.1-1 .1-1.8.4-9.2 3.1-16.9 5.5-18.5 5.8-1.1.2-2.2.6-2.5 1-.3.4-1.9.9-3.5 1.2-1.7.2-3 .5-3 .6 0 .1-.7.3-1.5.5s-4.6 1.3-8.5 2.5c-3.8 1.1-7.8 2.2-8.8 2.5-1 .2-2.7.7-3.7 1-1 .3-2.8.8-3.9 1-2.1.5-4.3 1-8.3 2.1-1.3.3-3.2.7-4.3.9-1.1.2-2.9.6-4 .8-1.1.2-3.8.8-6 1.2-2.2.5-4.2.9-4.5 1-.3.1-2.3.5-4.5.9s-4.7 1-5.5 1.3c-.8.3-2.2.7-3 .8-.8.1-3.7.6-6.5 1-2.7.5-5.4 1-6 1-.5.1-4.1.7-8 1.3-7.2 1.2-8.5 1.4-22 3.1-18.3 2.4-26.1 3.1-52 4.8-14.4.9-63.1.9-76.5 0-5.8-.4-13.6-1-17.5-1.2-3.8-.3-8.8-.8-11-1.1-2.2-.3-5.8-.7-8-.9-2.2-.2-5.8-.6-8-1-2.2-.3-8.7-1.3-14.5-2.1-5.8-.9-17.9-3.2-27-5.1-9.1-1.9-17.6-3.6-19-3.9-1.4-.2-3.5-.6-4.7-.9l-2.3-.5v100.2l-12.2-.5c-6.8-.4-12.8-.6-13.3-.7-.7 0-1-18.2-1-53.1 0-46.3-.2-53.3-1.5-54-3.4-1.8-18.3-6.9-18.8-6.4-.3.3-.5 25.5-.5 56.1v55.6l-6.6-.6c-6.9-.7-14.4-1.5-17.3-2-1-.1-2-.5-2.4-.8-.3-.4-.6-28.2-.6-61.7 0-51.9-.2-61.1-1.4-61.1-.8 0-1.4-.4-1.4-.9s-1.2-1.4-2.7-2c-3.8-1.5-12.7-7.1-13.1-8.2-.7-1.7-2-.9-2.1 1.3 0 1.3-.1 3-.1 3.8-.1.8 0 4.9.1 9 0 4.1 0 7.9-.1 8.5-.1.5-.1 1.2 0 1.5.6 1.6.6 6.8-.1 8.6-.4 1.2-.5 2.4-.2 2.8.8.8 1.1 7.6.3 8.1-.6.3-.6 3.8 0 5.5.2.8.2 23.4 0 24.5-.1.5-.1 1.2 0 1.5.6 1.7.5 7.7-.2 8.7-.5.6-.5 1.4.1 1.7.7.4.7 1.5.1 3-.5 1.3-.6 2.6-.3 3 .9.9 1.1 7.6.1 8.2-.4.3-.6 1-.3 1.5.8 1.3.9 16.4.1 17.7-.3.6-.3 1.3.1 1.5.7.5.8 2.6.4 8.6-.1 2-2.5 2.2-6.3.6-1-.4-2.5-.5-3.3-.1-.8.3-1.5.1-1.5-.4s-.8-.9-1.7-.9c-1.7.1-7.2-.7-8.3-1.1-.3-.1-.9-.3-1.5-.4-4.6-.9-4.4 3.9-4.3-80.1 0-76.8 0-78.4 1.9-77.2 1 .6 1.9 1.5 1.9 1.9 0 .6 14.4 13.4 17.5 15.6.6.4 2.7 1.9 4.7 3.4 2 1.6 4.1 2.8 4.7 2.8.6 0 1.1.4 1.1 1 0 .5.7 1 1.5 1s1.5.3 1.5.8c0 .4 1.5 1.3 3.2 2.1 1.8.8 3.5 1.7 3.8 2 .6.7 17.5 9 23 11.4 1.9.8 5.6 2.4 8.2 3.5 6.5 3 34.2 12.2 41.3 13.8.6.1 4.6 1.1 9 2.2 4.4 1.2 9.4 2.3 11 2.6 1.7.2 3 .5 3 .6 0 .2 1.9.6 6.5 1.4 1.9.3 4.5.8 5.6 1 1.2.2 3.7.7 5.5 1 1.9.3 4.5.8 5.9 1 1.4.3 4.1.7 6 1 1.9.3 4.4.8 5.6 1 1.2.2 4.5.7 7.5 1.1 3 .3 6.5.8 7.9 1 1.4.2 5.4.7 9 1 3.6.3 8.1.8 10 1 5.5.7 19.7 1.7 29 2.1 10.1.4 53.2.4 61-.1 24.7-1.3 29.7-1.6 31-2 .8-.2 4.9-.6 9-1s8.9-.8 10.5-1c1.7-.3 5.5-.7 8.5-1 5.6-.6 7.5-.9 14.5-2 2.2-.3 5.4-.8 7-1 1.7-.2 4.4-.7 6-1.1 1.7-.3 4.1-.7 5.5-.8 1.4-.1 3.1-.5 3.8-1 .7-.4 1.6-.6 1.8-.3.3.2 2.4 0 4.7-.5 6.7-1.5 8-1.8 11.7-2.4 1.9-.3 4.3-.7 5.2-1 .9-.3 2.6-.7 3.7-.9 1.2-.3 3-.7 4.1-1 4.9-1.2 6.7-1.6 9-2.1 9-1.8 46.6-12.8 52.5-15.4 1.6-.7 5.1-1.9 7.5-2.5.3-.1 1.2-.4 2-.8.8-.3 4.4-1.6 8-2.8 3.6-1.3 6.8-2.8 7.2-3.3.4-.6.8-.8.8-.3 0 .4 1.3.1 3-.8 1.6-.8 3.2-1.5 3.5-1.5.6 0 4.9-1.7 13.9-5.7 5.6-2.5 37.9-18.7 44.4-22.3 6.4-3.6 16-9.6 20.3-12.7 2.6-1.8 5.1-3.3 5.7-3.3.6 0 1.2-.4 1.4-.8.2-.4 3.2-2.8 6.8-5.2 3.6-2.5 6.7-4.7 7-5 .3-.3 3.8-3 7.8-6 3.9-3 7.2-5.8 7.2-6.2 0-.5.5-.8 1-.8.6 0 2.1-1 3.4-2.3 1.3-1.2 5.6-5.1 9.6-8.7 9.1-8 15.2-14.2 25.5-25.5 4.4-4.9 8.8-9.7 9.8-10.7.9-1 1.4-1.8 1-1.8-.4 0 0-.6.9-1.3 2.2-1.7 13.8-17.3 13.8-18.5 0-.6.4-1.2.8-1.4 1.9-.7 16.2-24.7 21-35.1 3.3-7.4 2.2-1.8-1.4 6.4zM416.8 764.7c0 .5.1 1.5.5 2.3.3.8 1.7 4.9 3 9 2 6 6.7 17.8 11.4 28.7.3.9-.6 1.3-2.8 1.4-1.9 0-5.2.2-7.4.3-2.2.2-4.4-.1-5-.5-.7-.5-1.3-39.7-.6-41.7.2-.6 1.1-.1.9.5z"/><path d="M238.5 326.7c-.4 1.1 0 1.1 1.8.2 3.1-1.6 3.2-1.8.8-1.6-1.1.1-2.3.7-2.6 1.4zm-9.7 2c-1 .2-1.8.8-1.8 1.3 0 .4.9.6 2 .3s2-.9 2-1.4c0-.5-.1-.8-.2-.8-.2.1-1.1.3-2 .6zm-4.3 62.3c.3.5-.2 2.4-1.1 4.2-2.6 5-11.1 30.8-14.5 43.7-1.6 6.2-3.2 11.7-3.4 12.2-.3.4-.6 48-.6 105.6.1 102.7.1 105 2.1 112.8 4.5 17.2 12.5 42.1 16.8 51.7 1.8 4.2 1.9 1.1 1.9-163.5 0-97.9-.4-167.7-.9-167.7s-.6.4-.3 1zm641.9 308.4c-13 9.3-25.4 17.5-36.9 24.6-11.5 7.1-14.9 9-38.3 21-5.9 3-11 5.9-11.3 6.3-.3.5-.8.8-1 .7-.2-.1-6.5 2.7-13.9 6.3-7.4 3.5-14.6 6.8-15.8 7.2-1.3.4-4.8 1.8-7.8 3.1s-5.6 2.4-5.9 2.4c-.3 0-2.7 1.1-5.4 2.5-4.9 2.4-24.7 10.6-26.6 10.9-.5.1-1.5.5-2.1.8-.6.4-2.2.9-3.6 1.2-1.4.2-4 1.1-5.7 2-1.7.9-3.4 1.6-3.8 1.6-.5 0-3 .8-5.8 1.7-2.7 1-5.2 1.8-5.5 1.8-.3.1-1.8.7-3.3 1.3-1.6.7-3.6 1.2-4.6 1.2-.9 0-2.2.5-2.9 1.2-.7.7-1.2.8-1.2.4 0-.5-.7-.3-1.5.4s-1.5.9-1.5.6c0-.4-.9-.2-2.1.4-1.1.7-3.3 1.4-4.7 1.6-1.5.3-4.8 1.1-7.3 2-2.5.8-5.4 1.6-6.5 1.9-1 .2-5.7 1.5-10.4 2.8-8.1 2.4-14 3.8-15.7 3.9-.5 0-1.2.3-1.8.8-.5.4-2.6 1.1-4.5 1.4-1.9.3-5 1-6.9 1.5-1.8.6-3.6 1-4 .9-.3 0-.8.1-1.1.2-.7.2-2.9.7-6.9 1.5-1.9.3-3.7.8-4.1 1-.6.4-4.3 1.2-9 2-1.4.2-3.6.7-5 1-5.2 1.1-8.6 1.7-12 2-1.9.2-3.5.4-3.5.5 0 .1-1.1.3-2.5.5-4.2.4-11.3 1.6-15.5 2.5-2.2.5-6.7 1.2-10 1.5-3.3.4-6.2.9-6.5 1-.3.2-3.8.6-7.7 1-6.7.6-10.8 1.2-10.8 1.5 0 0-3.1.3-7 .5-3.8.3-9 .7-11.5 1-5 .5-13.8 1.1-30.5 2-6 .3-11.2.8-11.4 1.1-.9.9-.8 133.8.1 135.6.5 1 1.5 1.8 2.3 1.8.7 0 1.5.4 1.7.8.2.4 3.8 2.7 8.1 5l7.7 4.3.1-2.8v-60.6c0-31.9.2-57.7.3-57.5.2.1 2.7 3.6 5.6 7.7 2.9 4.1 5.6 7.9 6.1 8.5.9 1 2.4 3 8.9 11.6 1.4 1.8 3.3 4.2 4.3 5.3 1.9 2.3 1.8-2.5 1.8 60.8v40.5l5.7 2.6c7.8 3.5 9.6 4.1 10.5 4 .4-.1.7.3.7.8 0 .6.9 1 1.9 1 1.9 0 1.9-1.3 2-41.3 0-22.6 0-41.6.1-42.1 0-.5 2.3 1.4 5.2 4.3 2.9 2.9 8.9 8.7 13.4 12.8l8.1 7.4-.1 34c-.1 18.8.2 34.6.6 35.2.3.6 1.2 1.2 2 1.3 1.8.3 14 4.5 16 5.5 1 .5 1.8.4 2-.4.2-.7.4-14.1.4-29.9-.1-26.5 0-28.6 1.5-27.5 3.6 2.6 16.5 11.8 18.3 12.9 1 .7 2.9 2.1 4.2 3.1l2.4 1.8v48.7l4.8 1.2c2.6.6 6.3 1.5 8.2 1.9 1.9.5 4 .9 4.5 1.1 3.1.8 3.2-.3 3.1-19.6-.1-10.8.2-19.8.6-20 .4-.3 2.7.6 5 2 2.4 1.4 8.1 4.5 12.8 6.9l8.5 4.5v16.1c0 8.8.2 16.1.5 16.2.3.1 1.6.2 3 .4s4.1.6 6 1c7 1.2 10.5 1.4 11 .5.3-.4.4-6.2.4-12.9l-.2-12 3.2 1.4c1.7.7 7.7 3 13.3 5.2l10.3 3.8.1 4c0 2.2.1 6.5.2 9.5l.2 5.5 3.5.3c1.9.1 6.4.3 10 .5l6.5.2.3-5.5c.3-7 .8-8.5 2.5-7.2.6.5 2.3 1.2 3.7 1.5 1.4.3 3.6.8 5 1.2 1.4.4 4.1 1 6 1.5 9.1 2.2 9.5 2.4 9.5 6.1v3.4l10 .3c8.3.2 10 0 10.8-1.4.7-1.2 1.7-1.4 4.1-1 1.7.3 4 .8 5.1 1 1.1.2 4.5.7 7.5 1.1 3 .4 6.3.9 7.2 1 19.6 3.7 71.8 5 100.8 2.5.8 0 .8-359 0-359-.3.1-3.2 2-6.6 4.4zM300.2 837.2c0 7.3.4 14.1.9 15 .9 1.6 11.5 14.3 17 20.2l2.7 2.8v-23.6c0-25.9.4-24.1-5.5-23.9-.7.1-1.3-.2-1.3-.6 0-.3-1-.7-2.2-.8-6-.4-9.4-.9-10.5-1.6-.8-.5-1.1 2.7-1.1 12.5zm47.4 29.6l.1 34.9 4.2 4.1c2.3 2.2 4.6 4.2 5.1 4.4.5.2 2.9 2.3 5.5 4.7 2.5 2.4 4.9 4 5.3 3.6 1.1-1.1.9-83.6-.3-84.3-1.3-.8-2.3-1-12-1.7l-8-.7.1 35zm47.4 22.3v52.7l3.3 2.1c1.8 1.1 4.4 2.9 5.6 4.1 1.3 1.1 2.8 2 3.2 2 .4 0 2 1.1 3.5 2.5s3.2 2.5 3.9 2.5c.8 0 1.1-14.8 1.1-59.2l-.1-59.1-10.2-.2-10.3-.2v52.8z"/></svg>