<svg width="132" height="125" fill="none" xmlns="http://www.w3.org/2000/svg"><g clip-path="url(#clip0_100_45)"><path d="M40.963 115.036h0L7.386 76.003l-.164.141.164-.141a10.042 10.042 0 01-2.277-4.797 10.009 10.009 0 01.49-5.282l17.284-45.831A10.01 10.01 0 0126 15.803a10.043 10.043 0 014.878-2.1l-.03-.214.03.215 50.99-7.144h0a10.017 10.017 0 019.03 3.405h0l33.576 39.033.165-.141-.165.141a10.032 10.032 0 011.787 10.079l-17.283 45.831a10.003 10.003 0 01-3.119 4.29 10.043 10.043 0 01-4.877 2.099h0l-50.99 7.144h0a10.029 10.029 0 01-9.03-3.405z" fill="#4FBAAB" fill-opacity=".6" stroke="#4FBAAB" stroke-width=".434"/><mask id="a" style="mask-type:alpha" maskUnits="userSpaceOnUse" x="4" y="6" width="124" height="113"><path d="M7.222 76.144l33.576 39.033a10.238 10.238 0 009.226 3.479l50.989-7.144a10.232 10.232 0 008.169-6.527l17.283-45.832c.649-1.72.822-3.584.501-5.395a10.263 10.263 0 00-2.326-4.901L91.064 9.824a10.234 10.234 0 00-9.226-3.479l-50.99 7.144a10.258 10.258 0 00-4.982 2.144 10.225 10.225 0 00-3.186 4.383L5.397 65.848a10.226 10.226 0 00-.501 5.395 10.26 10.26 0 002.326 4.901z" fill="#4FBAAB"/></mask><g mask="url(#a)"><path d="M201.689 41.614L118.89 122.59C87.908 67.624 63.806 43.239 9.407 10.64l82.799-80.975 109.483 111.95z" fill="#22BADE" fill-opacity=".29"/></g><g clip-path="url(#clip1_100_45)" fill-rule="evenodd" clip-rule="evenodd" fill="#fff"><path d="M49.737 44.535l-.81 4.652-4.428.626a8.859 8.859 0 00-7.531 10.012l2.976 21.052a8.859 8.859 0 0010.012 7.532l38.596-5.458a8.86 8.86 0 007.531-10.012l-2.976-21.052a8.859 8.859 0 00-10.012-7.531l-4.432.627-2.064-4.247a8.859 8.859 0 00-9.21-4.896l-10.16 1.437a8.859 8.859 0 00-7.492 7.258zm-4.742 8.787l6.983-.988 1.248-7.19a5.314 5.314 0 014.495-4.358l10.168-1.438a5.316 5.316 0 015.523 2.941l3.193 6.563 6.986-.987a5.315 5.315 0 016.007 4.518l2.977 21.053a5.316 5.316 0 01-4.52 6.007L49.46 84.9a5.316 5.316 0 01-6.007-4.52l-2.977-21.05a5.315 5.315 0 014.52-6.007z"/><path d="M55.751 66.116a10.63 10.63 0 1021.052-2.976 10.63 10.63 0 00-21.052 2.976zm17.544-2.48A7.087 7.087 0 1159.26 65.62a7.087 7.087 0 0114.034-1.984z"/></g></g><defs><clipPath id="clip0_100_45"><path fill="#fff" d="M0 0h131.862v125H0z"/></clipPath><clipPath id="clip1_100_45"><path fill="#fff" transform="rotate(-8.048 273.047 -187.935)" d="M0 0h66.969v61.868H0z"/></clipPath></defs></svg>