<svg width="132" height="125" fill="none" xmlns="http://www.w3.org/2000/svg"><g clip-path="url(#clip0_79_153)"><path d="M121.496 79.705h-.001l-33.835 38.81.164.142-.163-.142a10.016 10.016 0 01-9.72 3.208l-47.83-10.557a10.004 10.004 0 01-4.692-2.474 10.035 10.035 0 01-2.775-4.527l-.208.06.208-.06L8.288 54.719h0a10.017 10.017 0 012.08-9.424h0l33.835-38.81-.163-.142.163.143a10.042 10.042 0 014.423-2.94c1.71-.564 3.54-.657 5.297-.269l47.83 10.557a10.01 10.01 0 014.692 2.474 10.045 10.045 0 012.775 4.527h0l14.356 49.446h0a10.033 10.033 0 01-2.08 9.424z" fill="#4FBAAB" fill-opacity=".6" stroke="#4FBAAB" stroke-width=".434"/><mask id="a" style="mask-type:alpha" maskUnits="userSpaceOnUse" x="7" y="2" width="118" height="121"><path d="M87.824 118.657l33.835-38.809a10.251 10.251 0 002.125-9.627l-14.356-49.446a10.258 10.258 0 00-2.835-4.625 10.222 10.222 0 00-4.793-2.527L53.97 3.066a10.226 10.226 0 00-5.412.275 10.259 10.259 0 00-4.518 3.002l-33.835 38.81A10.233 10.233 0 008.08 54.78l14.356 49.445a10.265 10.265 0 002.834 4.626 10.23 10.23 0 004.793 2.527l47.831 10.557a10.24 10.24 0 009.93-3.278z" fill="#4FBAAB"/></mask><g mask="url(#a)"><path d="M25.862-68.881l91.975 70.38C67.862 40.015 47.172 67.355 22.68 125.853l-91.975-70.38L25.862-68.88z" fill="#22BADE" fill-opacity=".29"/></g><g clip-path="url(#clip1_79_153)"><path d="M58.202 49.521a3.17 3.17 0 11-6.132-1.61 3.17 3.17 0 016.132 1.61z" fill="#22BADE"/><path d="M62.895 60.163a2.666 2.666 0 101.354-5.157 2.666 2.666 0 00-1.354 5.157zm-3.65 21.179a1.822 1.822 0 10.925-3.525 1.822 1.822 0 00-.925 3.525z" fill="#fff"/><path d="M78.617 49.718a3.17 3.17 0 11-6.133-1.61 3.17 3.17 0 016.133 1.61z" fill="#22BADE"/><path d="M69.978 44.174a1.584 1.584 0 01-1.933 1.128 1.584 1.584 0 01-1.129-1.932 1.584 1.584 0 011.933-1.129 1.584 1.584 0 011.129 1.933zM83.362 67.01a5.011 5.011 0 10-8.846-4.713 5.011 5.011 0 008.846 4.713z" fill="#fff"/><path d="M59.916 70.02a2.503 2.503 0 101.27-4.842 2.503 2.503 0 00-1.27 4.843zm11.696 10.047a1.98 1.98 0 101.006-3.831 1.98 1.98 0 00-1.006 3.83z" fill="#22BADE"/><path d="M52.059 65.37a2.904 2.904 0 01-3.55 2.073 2.904 2.904 0 01-2.072-3.548 2.904 2.904 0 013.549-2.073 2.904 2.904 0 012.073 3.548z" fill="#fff"/><path d="M58.317 89.785C43.1 85.79 33.97 70.161 37.964 54.943c3.994-15.219 19.624-24.349 34.842-20.354C88.024 38.584 97.155 54.213 93.16 69.43c-3.995 15.22-19.624 24.35-34.843 20.355zm13.655-52.019c-13.465-3.534-27.297 4.546-30.831 18.01-3.535 13.466 4.545 27.297 18.01 30.832 13.465 3.534 27.297-4.546 30.832-18.01 3.534-13.466-4.546-27.297-18.011-30.832z" fill="#fff"/></g></g><defs><clipPath id="clip0_79_153"><path fill="#fff" d="M0 0h131.862v125H0z"/></clipPath><clipPath id="clip1_79_153"><path fill="#fff" transform="rotate(14.708 -83.333 188.815)" d="M0 0h57.066v57.066H0z"/></clipPath></defs></svg>