<svg width="220" height="223" fill="none" xmlns="http://www.w3.org/2000/svg"><g clip-path="url(#clip0_79_1041)"><path d="M206.739 100.37v.001l-31.301 79.856.337.132-.337-.131a16.722 16.722 0 01-5.288 7.091 16.671 16.671 0 01-8.158 3.393l-80.948 10.275a16.669 16.669 0 01-8.747-1.249 16.724 16.724 0 01-6.892-5.545l-.293.212.293-.212-50.257-69.505h-.001a16.688 16.688 0 01-2.024-15.949v-.001l31.3-79.856-.336-.132.336.132a16.729 16.729 0 015.289-7.091 16.674 16.674 0 018.157-3.394l80.949-10.274h0a16.675 16.675 0 018.747 1.248 16.734 16.734 0 016.892 5.545h0l50.257 69.505h.001a16.707 16.707 0 012.024 15.949z" fill="#4FBAAB" fill-opacity=".6" stroke="#4FBAAB" stroke-width=".723"/><mask id="a" style="mask-type:alpha" maskUnits="userSpaceOnUse" x="11" y="7" width="198" height="195"><path d="M175.775 180.359l31.3-79.856a17.076 17.076 0 00-2.068-16.294l-50.258-69.505a17.084 17.084 0 00-7.04-5.664 17.038 17.038 0 00-8.937-1.276L57.824 18.038a17.035 17.035 0 00-8.335 3.468 17.09 17.09 0 00-5.402 7.244l-31.3 79.856a17.05 17.05 0 002.068 16.294l50.257 69.505a17.09 17.09 0 007.041 5.665 17.04 17.04 0 008.937 1.275l80.948-10.274a17.043 17.043 0 008.334-3.467 17.097 17.097 0 005.403-7.245z" fill="#4FBAAB"/></mask><g mask="url(#a)"><path d="M-26.627-79.047L157.126-20.25c-56.781 88.454-73.897 142.945-79.497 248.444l-183.752-58.796 79.496-248.445z" fill="#22BADE" fill-opacity=".29"/></g><g clip-path="url(#clip1_79_1041)"><path d="M115.577 74.281a6.851 6.851 0 01-2.165-.09 6.856 6.856 0 01-4.389-2.95A6.87 6.87 0 01108 66.05c.746-3.74 4.394-6.165 8.13-5.416 3.731.748 6.159 4.4 5.413 8.14a6.927 6.927 0 01-5.966 5.506zm-1.318-11.15a4.228 4.228 0 00-1.873.695 4.279 4.279 0 00-1.837 2.744 4.286 4.286 0 00.635 3.237 4.277 4.277 0 002.741 1.838A4.322 4.322 0 00119 68.267c.23-1.13 0-2.28-.634-3.237a4.278 4.278 0 00-2.741-1.839 4.297 4.297 0 00-1.36-.056l-.006-.005z" fill="#fff"/><path d="M117.722 68.007a3.007 3.007 0 01-3.544 2.36 3.012 3.012 0 01-2.358-3.549 3.008 3.008 0 013.545-2.36 3.012 3.012 0 012.357 3.55z" fill="#22BADE"/><path d="M115.544 52.609a1.379 1.379 0 01-.406-.017l-7.503-1.51a1.303 1.303 0 01-1.019-1.532l1.271-6.335a2.498 2.498 0 012.942-1.96l5.147 1.04a2.497 2.497 0 011.958 2.945l-1.271 6.334a1.3 1.3 0 01-1.119 1.035zm-6.125-3.819l4.96.996.994-4.965-4.961-1.002-.994 4.965.001.006zm-2.415 54.499a2.864 2.864 0 01-.888-.035l-9.698-1.948a2.844 2.844 0 01-2.222-3.337l.465-2.311a1.399 1.399 0 011.644-1.097l12.512 2.518a1.4 1.4 0 011.096 1.646l-.464 2.312a2.845 2.845 0 01-2.45 2.259l.005-.007zm-9.88-5.719l-.188.943 9.728 1.997.012-.001a.045.045 0 00.037-.034l.187-.936-9.77-1.97-.006.001zm9.856 17.451a2.094 2.094 0 01-.569-.014l-34.523-5.496a2.033 2.033 0 01-1.339-.826 2.076 2.076 0 01-.368-1.534l.222-1.386a2.024 2.024 0 01.82-1.339 2.038 2.038 0 011.531-.369l34.522 5.496a2.025 2.025 0 011.339.82c.321.443.456.99.368 1.533l-.216 1.386a2.032 2.032 0 01-.826 1.34c-.285.21-.616.337-.962.378l.001.011zm-34.542-8.981l-.287 1.435 34.578 5.566s.061-.025.064-.049l.217-1.386-34.572-5.566zm67.877 42.612l-19.021 2.249a1.396 1.396 0 01-1.55-1.223l-2.076-17.556c-.711-6.018 3.601-11.487 9.607-12.197 6.005-.71 11.475 3.608 12.186 9.62l2.076 17.556a1.396 1.396 0 01-1.222 1.551zm-17.958-.696l16.243-1.921-1.911-16.163c-.529-4.48-4.604-7.696-9.08-7.167-4.475.529-7.687 4.607-7.158 9.087l1.912 16.163-.006.001z" fill="#fff"/><path d="M108.71 99.835a1.428 1.428 0 01-.442-.019l-12.512-2.518a1.401 1.401 0 01-1.096-1.646l6.962-34.709a1.4 1.4 0 011.645-1.097 1.4 1.4 0 011.096 1.646l-6.686 33.334 9.771 1.969 4.598-22.917a7.013 7.013 0 01-3.11-2.58 6.974 6.974 0 01-1.039-5.27c.668-3.32 3.593-5.613 6.852-5.635l1.309-6.514a.984.984 0 00-.147-.745.97.97 0 00-.63-.424l-7.833-1.576a.988.988 0 00-1.161.776l-.56 2.797a1.396 1.396 0 01-1.644 1.097 1.4 1.4 0 01-1.096-1.646l.559-2.797a3.795 3.795 0 014.456-2.972l7.833 1.577a3.8 3.8 0 012.969 4.461l-1.554 7.751a1.397 1.397 0 01-1.645 1.098 4.2 4.2 0 00-3.164.62 4.189 4.189 0 00-1.797 2.68 4.215 4.215 0 003.298 4.968 1.398 1.398 0 011.097 1.646l-5.121 25.529a1.4 1.4 0 01-1.208 1.116zm28.815 28.538a1.295 1.295 0 01-1.345-.779 8.274 8.274 0 00-2.737-3.44 1.276 1.276 0 01-.53-1.015 1.291 1.291 0 01.474-1.041c7.58-6.213 11.422-15.712 10.276-25.406-1.523-12.88-11.556-23.105-24.406-24.863a1.3 1.3 0 01-.905-2.009c.319-.471.533-.995.644-1.541a3.96 3.96 0 00.05-.516c.021-.366.192-.75.475-.982.283-.233.652-.377 1.016-.326 15.67 2.338 27.906 14.96 29.767 30.7a35.228 35.228 0 01-12.087 30.931 1.29 1.29 0 01-.69.304l-.002-.017zm-1.327-5.277a10.956 10.956 0 011.543 1.904 32.631 32.631 0 009.986-27.558c-1.673-14.145-12.398-25.573-26.295-28.214a3.687 3.687 0 01-.093.303c13.174 2.57 23.299 13.377 24.892 26.846 1.191 10.07-2.543 19.942-10.033 26.713v.006z" fill="#fff"/><path d="M133.094 130.813a4.506 4.506 0 01-3.94 5.003 4.506 4.506 0 01-1.058-8.948 4.506 4.506 0 014.998 3.945z" fill="#22BADE"/><path d="M119.477 136.275c-12.19 1.441-24.045-3.488-31.707-13.179a1.293 1.293 0 01-.141-1.39 1.3 1.3 0 011.204-.711c.658.021 1.062-.032 1.638-.206a5.16 5.16 0 002.219-1.341 1.305 1.305 0 011.887.012c6.175 6.62 15.193 9.944 24.138 8.886.034-.004.183-.033.2-.035.383-.081.801.081 1.086.37.286.282.421.683.369 1.087a8.293 8.293 0 00-.023 2.037l.357 3.012a1.298 1.298 0 01-1.095 1.436l-.127.021-.005.001zm-28.176-13.023c6.825 7.505 16.57 11.382 26.667 10.563l-.202-1.705a11.057 11.057 0 01-.072-1.052c-8.909.66-17.769-2.612-24.154-8.926a7.69 7.69 0 01-2.245 1.121l.006-.001z" fill="#fff"/><path d="M89.925 123.55c-4.21.498-8.039-2.526-8.537-6.74a7.695 7.695 0 012.606-6.726 1.296 1.296 0 011.054-.301l5.275.842 4.345.694c.376.061.707.285.903.608a7.659 7.659 0 011.073 3.079c.498 4.215-2.52 8.047-6.724 8.544h.005zm-4.643-11.092a5.107 5.107 0 00-1.312 4.053c.33 2.786 2.867 4.79 5.65 4.461a5.101 5.101 0 004.455-5.656 5.057 5.057 0 00-.439-1.531l-8.348-1.328-.006.001zm63.539 32.369l-44.377 5.247a1.397 1.397 0 00.328 2.775l44.377-5.247a4.387 4.387 0 014.871 3.902c.055.568-.389 1.072-.96 1.139l-64.253 7.598c-.566.067-1.12-.313-1.194-.885a4.384 4.384 0 013.825-4.936l4.048-.479a1.397 1.397 0 00-.328-2.775l-4.048.479c-3.955.468-6.788 4.097-6.271 8.068.276 2.09 2.207 3.561 4.297 3.314l64.247-7.597c2.091-.247 3.631-2.129 3.412-4.225-.418-3.977-4.018-6.846-7.979-6.377l.005-.001z" fill="#fff"/></g></g><defs><clipPath id="clip0_79_1041"><path fill="#fff" transform="translate(.097 .438)" d="M0 0h219.666v222.556H0z"/></clipPath><clipPath id="clip1_79_1041"><path fill="#fff" transform="rotate(-6.744 428.593 -510.936)" d="M0 0h80.929v118.504H0z"/></clipPath></defs></svg>