<svg width="132" height="126" fill="none" xmlns="http://www.w3.org/2000/svg"><g clip-path="url(#clip0_79_923)"><path d="M55.411 120.208h0L12.876 91.195l-.122.18.122-.18a10.042 10.042 0 01-3.441-4.044 10.009 10.009 0 01-.893-5.228l4.832-48.743a10.009 10.009 0 011.902-4.951 10.042 10.042 0 014.168-3.29l-.085-.2.085.2L66.847 4.84h0a10.017 10.017 0 019.604.952h0l42.535 29.013.122-.18-.122.18a10.045 10.045 0 013.441 4.044 10.004 10.004 0 01.893 5.228l-4.832 48.743a10.008 10.008 0 01-1.902 4.952 10.042 10.042 0 01-4.168 3.29h0L65.015 121.16h0a10.018 10.018 0 01-4.924.755 10.015 10.015 0 01-4.68-1.707z" fill="#4FBAAB" fill-opacity=".6" stroke="#4FBAAB" stroke-width=".434"/><mask id="a" style="mask-type:alpha" maskUnits="userSpaceOnUse" x="8" y="3" width="116" height="120"><path d="M12.754 91.374l42.535 29.013a10.244 10.244 0 009.811.972l47.403-20.097a10.261 10.261 0 004.258-3.361 10.227 10.227 0 001.943-5.058l4.832-48.743a10.224 10.224 0 00-.912-5.342 10.26 10.26 0 00-3.516-4.131L76.574 5.614a10.233 10.233 0 00-9.812-.973L19.36 24.74a10.259 10.259 0 00-4.258 3.36 10.227 10.227 0 00-1.943 5.06L8.326 81.9c-.182 1.83.134 3.675.913 5.342a10.26 10.26 0 003.515 4.131z" fill="#4FBAAB"/></mask><g mask="url(#a)"><path d="M191.658 7.689l-59.02 99.646C88.485 62.261 58.893 44.946-2.089 27.537L56.93-72.11 191.657 7.689z" fill="#22BADE" fill-opacity=".29"/></g><g clip-path="url(#clip1_79_923)" fill="#fff"><path d="M86.861 74.198L71.842 63.55a1.201 1.201 0 01-.298-1.674 1.201 1.201 0 011.679-.273l15.02 10.648c.546.387.679 1.135.297 1.674a1.201 1.201 0 01-1.679.273zM53.157 70.22l-13.536-9.597a1.201 1.201 0 01-.298-1.675l10.73-15.134a1.201 1.201 0 011.678-.273l13.537 9.597a1.2 1.2 0 01.298 1.674l-10.73 15.135a1.201 1.201 0 01-1.679.273zm-11.16-10.845l11.556 8.192 9.346-13.182-11.556-8.193-9.346 13.183zM82.83 79.886L67.81 69.238a1.201 1.201 0 01-.298-1.675 1.201 1.201 0 011.679-.273L84.21 77.938a1.2 1.2 0 01.298 1.674 1.201 1.201 0 01-1.679.274zm-5.366 7.567l-8.409-5.962a1.201 1.201 0 01-.297-1.674 1.201 1.201 0 011.678-.273l8.41 5.961c.546.388.679 1.136.297 1.675a1.201 1.201 0 01-1.679.273zm.426-30.313l-9.316-6.605c-2.608-1.85-3.248-5.446-1.425-8.016l3.916-5.524a1.201 1.201 0 011.678-.273l16.802 11.912c.546.388.68 1.136.298 1.674l-3.914 5.52c-1.822 2.57-5.427 3.157-8.036 1.308l-.002.003zm-5.542-17.766l-3.22 4.542c-1.061 1.497-.686 3.586.829 4.66l9.316 6.605c1.519 1.077 3.613.733 4.672-.76l3.22-4.542-14.821-10.507.004.002z"/><path d="M100.644 64.305l-1.479-1.048a1.201 1.201 0 00-1.678.273 1.201 1.201 0 00.297 1.674l1.479 1.049c1.195.847 1.491 2.49.653 3.671L80.471 97.351c-.837 1.181-2.486 1.446-3.68.599L30.428 65.08c-1.2-.85-1.488-2.494-.654-3.671l19.442-27.423c.835-1.177 2.482-1.449 3.681-.599l13.837 9.81c-1.288 2.494-.546 5.646 1.84 7.338l9.316 6.604c2.385 1.692 5.605 1.348 7.532-.692l7.83 5.55a1.201 1.201 0 001.679-.272 1.201 1.201 0 00-.298-1.675l-8.773-6.22a1.201 1.201 0 00-1.68.273l-.231.328c-1.061 1.496-3.153 1.837-4.672.76l-9.316-6.605c-1.519-1.077-1.89-3.163-.829-4.66l.232-.327a1.201 1.201 0 00-.298-1.675L54.28 31.44c-2.29-1.63-5.44-1.117-7.042 1.142L27.792 60.009c-1.602 2.259-1.043 5.402 1.25 7.027l46.362 32.87c2.292 1.625 5.444 1.112 7.045-1.147l19.445-27.427c1.599-2.254 1.042-5.402-1.25-7.027z"/></g></g><defs><clipPath id="clip0_79_923"><path fill="#fff" transform="translate(0 .5)" d="M0 0h131.862v125H0z"/></clipPath><clipPath id="clip1_79_923"><path fill="#fff" transform="rotate(35.336 -9.672 96.128)" d="M0 0h67v50H0z"/></clipPath></defs></svg>