<svg width="304" height="308" fill="none" xmlns="http://www.w3.org/2000/svg"><g clip-path="url(#clip0_79_17)"><path d="M285.976 138.299v.001l-43.317 110.515.465.182-.465-.182a23.15 23.15 0 01-7.319 9.814 23.068 23.068 0 01-11.289 4.696l-112.026 14.219a23.081 23.081 0 01-12.105-1.727 23.154 23.154 0 01-9.538-7.675l-.406.293.406-.293-69.553-96.189v-.001a23.093 23.093 0 01-2.802-22.072v-.001L61.344 39.364l-.465-.182.465.182a23.152 23.152 0 017.319-9.813 23.076 23.076 0 0111.29-4.697l112.026-14.219h0a23.075 23.075 0 0112.105 1.728 23.156 23.156 0 019.538 7.674h0l69.552 96.189.001.001a23.12 23.12 0 012.801 22.072z" fill="#4FBAAB" fill-opacity=".6" stroke="#4FBAAB"/><mask id="a" style="mask-type:alpha" maskUnits="userSpaceOnUse" x="15" y="9" width="274" height="270"><path d="M243.124 248.997l43.317-110.514a23.623 23.623 0 00-2.862-22.55l-69.552-96.189a23.649 23.649 0 00-9.744-7.84 23.574 23.574 0 00-12.367-1.765L79.89 24.358a23.575 23.575 0 00-11.534 4.798 23.65 23.65 0 00-7.477 10.026L17.562 149.697a23.592 23.592 0 002.862 22.549l69.552 96.189a23.652 23.652 0 009.744 7.84 23.575 23.575 0 0012.368 1.765l112.026-14.219a23.57 23.57 0 0011.534-4.798 23.645 23.645 0 007.476-10.026z" fill="#4FBAAB"/></mask><g mask="url(#a)"><path d="M-36.983-110l254.299 81.37c-78.58 122.414-102.267 197.824-110.017 343.827L-147 233.827-36.983-110z" fill="#22BADE" fill-opacity=".29"/></g><g clip-path="url(#clip1_79_17)" filter="url(#filter0_d_79_17)"><path d="M154.967 167.423c-10.754 2.306-21.367-4.512-23.658-15.198-2.291-10.686 4.594-21.255 15.348-23.561 10.754-2.305 21.367 4.513 23.658 15.199 2.291 10.686-4.594 21.255-15.348 23.56zm-6.947-32.401c-7.223 1.549-11.851 8.653-10.312 15.831 1.539 7.178 8.672 11.761 15.896 10.212 7.223-1.549 11.851-8.653 10.312-15.831-1.539-7.178-8.672-11.76-15.896-10.212z" fill="#fff"/><path d="M166.321 220.386c-17.267 3.702-37.595-25.172-46.293-65.743-8.698-40.57-1.981-75.232 15.277-78.932 17.257-3.7 37.595 25.172 46.291 65.733 4.044 18.865 4.911 37.274 2.428 51.855a3.277 3.277 0 01-3.772 2.673c-1.779-.296-2.982-1.973-2.679-3.743 2.343-13.783 1.499-31.34-2.376-49.413-6.691-31.21-24.161-63.837-38.531-60.757-14.371 3.081-16.931 40.003-10.24 71.213 6.691 31.209 24.162 63.837 38.532 60.756 4.528-.971 7.49-5.734 9.168-9.563a3.283 3.283 0 014.303-1.691 3.236 3.236 0 011.689 4.275c-3.292 7.485-8.062 12.098-13.799 13.327l.002.01z" fill="#fff"/><path d="M202.076 183.806c-15.128 3.243-37.155 1.454-60.734-5.894-18.514-5.762-35.051-14.052-46.576-23.346-12.326-9.941-17.625-20.102-14.923-28.608.546-1.712 2.379-2.663 4.107-2.136a3.253 3.253 0 012.139 4.078c-1.808 5.702 2.862 13.584 12.82 21.61 10.905 8.789 26.674 16.675 44.413 22.195 30.619 9.528 67.817 10.427 72.244-3.514 1.808-5.702-2.862-13.584-12.821-21.61-10.905-8.789-26.673-16.675-44.412-22.195-26.18-8.147-52.421-9.47-65.314-3.286a3.285 3.285 0 01-4.368-1.517c-.779-1.617-.091-3.56 1.536-4.347 14.504-6.948 42.033-5.801 70.114 2.935 18.514 5.762 35.051 14.052 46.576 23.347 12.326 9.94 17.625 20.101 14.923 28.607-2.159 6.824-9.317 11.44-19.716 13.669l-.008.012z" fill="#fff"/><path d="M118.722 201.676c-10.408 2.231-18.81.951-23.586-4.386-5.952-6.651-5.284-18.091 1.884-32.21 6.702-13.202 18.385-27.552 32.912-40.388 31.226-27.613 64.86-38.982 76.568-25.887 3.693 4.123 4.87 10.222 3.43 17.64a3.262 3.262 0 01-3.832 2.576 3.234 3.234 0 01-2.581-3.803c.726-3.726.991-8.857-1.899-12.086-9.754-10.911-43.313 5.167-67.335 26.41-13.918 12.307-25.077 25.966-31.411 38.451-5.793 11.402-6.822 20.506-2.835 24.966 9.754 10.911 43.312-5.168 67.335-26.41 14.195-12.556 25.467-26.439 31.733-39.099a3.288 3.288 0 014.377-1.487 3.23 3.23 0 011.484 4.349c-6.639 13.398-18.451 27.995-33.262 41.091-18.507 16.361-37.855 27.02-52.982 30.273z" fill="#fff"/><path d="M205.786 109.048c4.493-.963 7.359-5.363 6.402-9.828-.957-4.464-5.375-7.303-9.868-6.34-4.493.964-7.359 5.364-6.402 9.828.957 4.465 5.375 7.303 9.868 6.34zm-81.764 55.137c.104-4.566-3.534-8.342-8.126-8.434-4.593-.093-8.4 3.534-8.505 8.101-.104 4.566 3.534 8.342 8.126 8.434 4.593.092 8.4-3.535 8.505-8.101zm13.698-77.207c4.493-.963 7.359-5.363 6.402-9.827-.957-4.465-5.375-7.303-9.868-6.34-4.493.963-7.359 5.363-6.402 9.828.957 4.464 5.375 7.303 9.868 6.34z" fill="#22BADE"/></g></g><defs><clipPath id="clip0_79_17"><path fill="#fff" d="M0 0h304v308H0z"/></clipPath><clipPath id="clip1_79_17"><path fill="#fff" transform="rotate(-12.1 434.545 -283.066)" d="M0 0h136.991v152.974H0z"/></clipPath><filter id="filter0_d_79_17" x="68.993" y="56.086" width="166.015" height="181.215" filterUnits="userSpaceOnUse" color-interpolation-filters="sRGB"><feFlood flood-opacity="0" result="BackgroundImageFix"/><feColorMatrix in="SourceAlpha" values="0 0 0 0 0 0 0 0 0 0 0 0 0 0 0 0 0 0 127 0" result="hardAlpha"/><feOffset dy="2.923"/><feComposite in2="hardAlpha" operator="out"/><feColorMatrix values="0 0 0 0 0 0 0 0 0 0 0 0 0 0 0 0 0 0 0.25 0"/><feBlend in2="BackgroundImageFix" result="effect1_dropShadow_79_17"/><feBlend in="SourceGraphic" in2="effect1_dropShadow_79_17" result="shape"/></filter></defs></svg>