<svg width="304" height="304" fill="none" xmlns="http://www.w3.org/2000/svg"><g clip-path="url(#clip0_79_1027)"><path d="M285.976 138.799v.001l-43.317 110.515.465.182-.465-.182a23.15 23.15 0 01-7.319 9.814 23.068 23.068 0 01-11.289 4.696l-112.026 14.219a23.081 23.081 0 01-12.105-1.727 23.154 23.154 0 01-9.538-7.675l-.406.293.406-.293-69.553-96.189v-.001a23.093 23.093 0 01-2.802-22.072v-.001L61.344 39.864l-.465-.182.465.182a23.152 23.152 0 017.319-9.813 23.076 23.076 0 0111.29-4.697l112.026-14.219h0a23.075 23.075 0 0112.105 1.728 23.156 23.156 0 019.538 7.674h0l69.552 96.189.001.001a23.12 23.12 0 012.801 22.072z" fill="#4FBAAB" fill-opacity=".6" stroke="#4FBAAB"/><mask id="a" style="mask-type:alpha" maskUnits="userSpaceOnUse" x="15" y="10" width="274" height="269"><path d="M243.124 249.497l43.317-110.514a23.623 23.623 0 00-2.862-22.55l-69.552-96.189a23.649 23.649 0 00-9.744-7.84 23.574 23.574 0 00-12.367-1.765L79.89 24.858a23.575 23.575 0 00-11.534 4.798 23.65 23.65 0 00-7.477 10.026L17.562 150.197a23.592 23.592 0 002.862 22.549l69.552 96.189a23.652 23.652 0 009.744 7.84 23.575 23.575 0 0012.368 1.765l112.026-14.219a23.57 23.57 0 0011.534-4.798 23.645 23.645 0 007.476-10.026z" fill="#4FBAAB"/></mask><g mask="url(#a)"><path d="M-36.983-109.5l254.299 81.37c-78.58 122.414-102.267 197.824-110.017 343.827L-147 234.327-36.983-109.5z" fill="#22BADE" fill-opacity=".29"/></g><g clip-path="url(#clip1_79_1027)"><path d="M142.543 105.993a25.053 25.053 0 00-12.403 7.455 24.826 24.826 0 00-6.169 13.041 24.65 24.65 0 002.145 14.232 24.747 24.747 0 009.735 10.626 24.993 24.993 0 0014.044 3.438 25.075 25.075 0 0013.62-4.909 24.906 24.906 0 008.604-11.601 24.684 24.684 0 00.689-14.382 24.715 24.715 0 00-11.388-15.196 25.016 25.016 0 00-18.877-2.704zm10.261 40.47a17.137 17.137 0 01-9.891-.441 16.979 16.979 0 01-7.962-5.834 16.86 16.86 0 01-3.35-9.26 16.928 16.928 0 012.392-9.566 17.096 17.096 0 017.327-6.647 17.166 17.166 0 019.793-1.487 17.039 17.039 0 018.958 4.173 16.896 16.896 0 015.104 8.427 16.914 16.914 0 01-1.897 12.854 17.12 17.12 0 01-10.474 7.781zm-17.958-70.822c-14.499 3.695-26.95 12.956-34.621 25.751-7.67 12.795-9.935 28.08-6.296 42.502 4.956 19.545 19.342 37.992 41.603 53.344a165.167 165.167 0 0032.231 17.401 3.954 3.954 0 004.376-1.11 165.191 165.191 0 0020.045-30.656c12.256-24.105 16.119-47.158 11.158-66.723-3.673-14.413-12.947-26.772-25.788-34.367-12.841-7.594-28.2-9.803-42.708-6.142zm33.112 130.583c-11.399-4.903-56.836-26.566-66.395-64.266a48.125 48.125 0 015.397-36.583c6.603-11.014 17.326-18.98 29.81-22.146 12.485-3.165 25.708-1.271 36.761 5.266a48.13 48.13 0 0122.177 29.591c9.56 37.699-20.065 78.396-27.75 88.138z" fill="#fff"/></g></g><defs><clipPath id="clip0_79_1027"><path fill="#fff" d="M0 0h304v304H0z"/></clipPath><clipPath id="clip1_79_1027"><path fill="#fff" transform="rotate(-14.229 365.411 -160.004)" d="M0 0h168v167H0z"/></clipPath></defs></svg>