<svg width="132" height="125" fill="none" xmlns="http://www.w3.org/2000/svg"><g clip-path="url(#clip0_79_113)"><path d="M121.496 79.705h-.001l-33.835 38.81.164.142-.163-.142a10.016 10.016 0 01-9.72 3.208l-47.83-10.557a10.004 10.004 0 01-4.692-2.474 10.035 10.035 0 01-2.775-4.527l-.208.06.208-.06L8.288 54.719h0a10.017 10.017 0 012.08-9.424h0l33.835-38.81-.163-.142.163.143a10.042 10.042 0 014.423-2.94c1.71-.564 3.54-.657 5.297-.269l47.83 10.557a10.01 10.01 0 014.692 2.474 10.045 10.045 0 012.775 4.527h0l14.356 49.446h0a10.033 10.033 0 01-2.08 9.424z" fill="#4FBAAB" fill-opacity=".6" stroke="#4FBAAB" stroke-width=".434"/><mask id="a" style="mask-type:alpha" maskUnits="userSpaceOnUse" x="7" y="2" width="118" height="121"><path d="M87.824 118.657l33.835-38.809a10.251 10.251 0 002.125-9.627l-14.356-49.446a10.258 10.258 0 00-2.835-4.625 10.222 10.222 0 00-4.793-2.527L53.97 3.066a10.226 10.226 0 00-5.412.275 10.259 10.259 0 00-4.518 3.002l-33.835 38.81A10.233 10.233 0 008.08 54.78l14.356 49.445a10.265 10.265 0 002.834 4.626 10.23 10.23 0 004.793 2.527l47.831 10.557a10.24 10.24 0 009.93-3.278z" fill="#4FBAAB"/></mask><g mask="url(#a)"><path d="M25.862-68.881l91.975 70.38C67.862 40.015 47.172 67.355 22.68 125.853l-91.975-70.38L25.862-68.88z" fill="#22BADE" fill-opacity=".29"/></g><g clip-path="url(#clip1_79_113)"><path d="M56.323 47.394L41 52.148l5.759 18.564C50.424 82.526 59.984 83.26 66.27 79.46c-6.678-3.478-7.725-6.854-9.296-11.917l5.108-1.584-5.759-18.565zM80.16 40l-15.323 4.754 5.759 18.564c3.665 11.814 13.225 12.548 19.511 8.748-6.678-3.479-7.725-6.854-9.296-11.917l5.108-1.584L80.159 40z" stroke="#fff" stroke-width="4" stroke-linecap="round" stroke-linejoin="round"/></g></g><defs><clipPath id="clip0_79_113"><path fill="#fff" d="M0 0h131.862v125H0z"/></clipPath><clipPath id="clip1_79_113"><path fill="#fff" transform="rotate(14.708 -83.333 188.815)" d="M0 0h57.066v57.066H0z"/></clipPath></defs></svg>