<svg width="132" height="126" fill="none" xmlns="http://www.w3.org/2000/svg"><g clip-path="url(#clip0_79_881)"><path d="M121.496 80.205h-.001l-33.835 38.81.164.142-.164-.142a10.016 10.016 0 01-9.72 3.208l-47.83-10.557a10.004 10.004 0 01-4.691-2.474 10.04 10.04 0 01-2.775-4.527l-.208.06.208-.06L8.288 55.219h0a10.017 10.017 0 012.08-9.424h0l33.835-38.81-.164-.142.164.142a10.042 10.042 0 014.423-2.939c1.71-.564 3.54-.657 5.297-.269l47.83 10.557a10.01 10.01 0 014.692 2.474 10.045 10.045 0 012.775 4.527h0l14.356 49.446h0a10.033 10.033 0 01-2.08 9.424z" fill="#4FBAAB" fill-opacity=".6" stroke="#4FBAAB" stroke-width=".434"/><mask id="a" style="mask-type:alpha" maskUnits="userSpaceOnUse" x="7" y="3" width="118" height="120"><path d="M87.824 119.157l33.835-38.809a10.239 10.239 0 002.296-4.541 10.24 10.24 0 00-.171-5.087l-14.356-49.445a10.267 10.267 0 00-2.835-4.625 10.222 10.222 0 00-4.793-2.527L53.97 3.566a10.226 10.226 0 00-5.412.275 10.26 10.26 0 00-4.519 3.002l-33.834 38.81A10.233 10.233 0 008.08 55.28l14.356 49.445a10.231 10.231 0 007.628 7.153l47.83 10.557a10.24 10.24 0 009.93-3.278z" fill="#4FBAAB"/></mask><g mask="url(#a)"><path d="M25.862-68.381l91.975 70.38C67.862 40.515 47.172 67.855 22.68 126.353l-91.975-70.38L25.862-68.38z" fill="#22BADE" fill-opacity=".29"/></g><g clip-path="url(#clip1_79_881)"><path d="M65.5 76.945a.757.757 0 01-.751-.761V47.707c0-.42.337-.76.751-.76s.751.34.751.76v28.475c0 .42-.337.762-.751.762z" fill="#287ABE"/><path d="M65.504 49.053c-2.312 0-3.622-1.128-4.314-2.071-1.553-2.123-1.42-5.168-.832-7.13.948-3.17 4.02-6.747 4.152-6.894.252-.29.614-.458.998-.458h.005c.384 0 .746.173.998.463.128.151 3.162 3.727 4.143 6.875.82 2.638.547 5.362-.716 7.105-.696.964-2.032 2.11-4.43 2.11h-.004zM65.5 35.998c-.892 1.194-2.125 3.036-2.603 4.636-.52 1.743-.345 3.693.427 4.748.486.662 1.199.986 2.184.986 1.046 0 1.797-.329 2.288-1.012.76-1.05.887-2.897.324-4.71-.474-1.521-1.673-3.363-2.616-4.648H65.5zM90.68 91.5H40.316a5.258 5.258 0 01-4.52-2.556 5.417 5.417 0 01-.234-5.24l10.855-22.007a1.498 1.498 0 011.34-.839H83.23c.568 0 1.088.325 1.34.84l10.855 22.005a5.406 5.406 0 01-.235 5.241 5.258 5.258 0 01-4.518 2.556h.008zM48.687 63.903l-10.44 21.163a2.33 2.33 0 00.102 2.283 2.256 2.256 0 001.967 1.111h50.362c.82 0 1.536-.406 1.967-1.111a2.33 2.33 0 00.103-2.284L82.307 63.904H48.688z" fill="#fff"/><path d="M82.226 63.903H48.774c-2.808 0-5.09-2.314-5.09-5.16 0-2.845 2.282-5.158 5.09-5.158h26.984c.828 0 1.497.679 1.497 1.518s-.67 1.518-1.497 1.518H48.774c-1.152 0-2.095.951-2.095 2.118 0 1.168.938 2.124 2.095 2.124h33.452c1.153 0 2.095-.952 2.095-2.123a2.107 2.107 0 00-2.095-2.12h-1.98a1.507 1.507 0 01-1.497-1.517c0-.84.67-1.518 1.498-1.518h1.98c2.807 0 5.09 2.313 5.09 5.159 0 2.845-2.283 5.159-5.09 5.159z" fill="#fff"/><path d="M39.374 85.636a1.05 1.05 0 00.046 1.043c.116.19.384.505.9.505h50.363c.512 0 .785-.315.9-.505.116-.19.278-.58.048-1.043l-4.664-9.457h-42.93l-4.663 9.457z" fill="#22BADE"/></g></g><defs><clipPath id="clip0_79_881"><path fill="#fff" transform="translate(0 .5)" d="M0 0h131.862v125H0z"/></clipPath><clipPath id="clip1_79_881"><path fill="#fff" transform="translate(35 32.5)" d="M0 0h61v59H0z"/></clipPath></defs></svg>