<svg width="160" height="120" fill="none" xmlns="http://www.w3.org/2000/svg"><path d="M159.961 76.263H.201V27h159.76v49.263z" fill="url(#paint0_linear_203_4617)"/><path d="M159.961 92.68H.201V76.263h159.76V92.68z" fill="#C40000"/><path d="M16.052 81.48h-2.145v-1.66h6.215v1.66h-2.146v7.312h-1.924V81.48zm5.311-1.66h5.286v1.66h-3.362v1.99h2.826l-.079 1.593h-2.747v2.07h3.48v1.66h-5.404V79.82zm6.973 0h1.923v7.313h3.532l-.079 1.66h-5.376V79.82zm6.698 0h5.285v1.66h-3.362v1.99h2.826l-.078 1.593h-2.748v2.07h3.48v1.66h-5.403V79.82z" fill="#fff"/><mask id="a" style="mask-type:luminance" maskUnits="userSpaceOnUse" x="0" y="27" width="160" height="66"><path d="M.28 27.055H160V92.77H.28V27.055z" fill="#fff"/></mask><g mask="url(#a)" fill="#fff"><path d="M41.352 79.82h1.949l1.48 5.442c.116.424.234 1.022.339 1.592a20.4 20.4 0 01.34-1.593l1.479-5.44h1.949l-2.656 8.971h-2.224l-2.656-8.972zm8.712 0h1.924v8.972h-1.924V79.82zm3.663 6.967c.85.32 1.661.518 2.473.518.68 0 1.086-.411 1.086-1.009 0-1.605-3.69-1.194-3.69-4.127 0-1.553 1.322-2.522 2.984-2.522.837 0 1.661.213 2.511.557l-.497 1.553c-.72-.292-1.348-.45-2.014-.45-.746 0-.995.384-.995.835 0 1.5 3.69 1.035 3.69 4.141 0 1.792-1.479 2.681-3.075 2.681-.956 0-1.832-.186-2.84-.558l.367-1.619zm6.921-6.967h1.923v8.972h-1.923V79.82zm8.607 5.295v-1.619c0-1.619-.667-2.19-1.583-2.19-.929 0-1.57.571-1.57 2.19v1.62c0 1.659.641 2.19 1.57 2.19.916 0 1.583-.531 1.583-2.19zm-5.076-1.752c0-2.468 1.57-3.716 3.493-3.716 1.936 0 3.506 1.248 3.506 3.716v1.899c0 2.481-1.57 3.703-3.506 3.703-1.923 0-3.493-1.222-3.493-3.703v-1.899zm8.609-3.543h1.557l3.035 5.123c-.026-.504-.04-.982-.04-1.367V79.82h1.924v8.972h-1.57l-3.035-5.096c.04.517.052 1.009.052 1.406v3.69h-1.923V79.82zm15.096 5.23l-.458-1.7a18.15 18.15 0 01-.34-1.526 26.027 26.027 0 01-.34 1.527l-.458 1.698h1.596zm-1.91-5.23h2.224l2.656 8.972h-1.95l-.588-2.163h-2.46l-.589 2.163h-1.949l2.656-8.972zm6.056 0h1.558l3.035 5.123c-.026-.504-.04-.982-.04-1.367V79.82h1.924v8.972h-1.57l-3.035-5.096c.04.517.052 1.009.052 1.406v3.69h-1.923V79.82zm13.083 3.398c0-1.328-.575-1.912-1.426-1.912-.471 0-.928.08-1.426.252v5.575h1.426c1.008 0 1.426-.439 1.426-1.805v-2.11zm-4.775 5.574V80.43c1.152-.438 2.316-.783 3.349-.783 1.806 0 3.35 1.208 3.35 3.411v2.416c0 2.19-1.269 3.318-3.35 3.318h-3.349zm14.246-4.897c.615 0 1.06-.478 1.06-1.208 0-.717-.445-1.208-1.06-1.208h-1.138v2.416h1.138zm-3.061-4.075h3.153c1.792 0 2.904 1.354 2.904 2.867 0 1.088-.576 2.03-1.57 2.482l1.675 3.623h-2.146l-1.439-3.345h-.654v3.345h-1.923V79.82zm11.381 5.23l-.458-1.7a18.248 18.248 0 01-.34-1.526 25.457 25.457 0 01-.341 1.527l-.457 1.698h1.596zm-1.91-5.23h2.224l2.656 8.972h-1.95l-.588-2.163h-2.46l-.589 2.163h-1.949l2.656-8.972zm10.832 3.398c0-1.328-.576-1.912-1.426-1.912-.471 0-.929.08-1.426.252v5.575h1.426c1.007 0 1.426-.439 1.426-1.805v-2.11zm-4.775 5.574V80.43c1.151-.438 2.315-.783 3.349-.783 1.805 0 3.349 1.208 3.349 3.411v2.416c0 2.19-1.269 3.318-3.349 3.318h-3.349zm8.307-8.972h1.923v8.972h-1.923V79.82zm8.608 5.295v-1.619c0-1.619-.668-2.19-1.583-2.19-.929 0-1.57.571-1.57 2.19v1.62c0 1.659.641 2.19 1.57 2.19.915 0 1.583-.531 1.583-2.19zm-5.077-1.752c0-2.468 1.571-3.716 3.494-3.716 1.936 0 3.506 1.248 3.506 3.716v1.899c0 2.481-1.57 3.703-3.506 3.703-1.923 0-3.494-1.222-3.494-3.703v-1.899zM25.932 51.152c1.996 0 3.44-1.551 3.44-3.921 0-2.327-1.444-3.92-3.44-3.92h-3.695v7.84h3.695zm-9.938-13.227h10.235c5.819 0 9.429 4.395 9.429 9.306 0 3.533-1.869 6.592-5.096 8.056l5.436 11.763h-6.966L24.36 56.193h-2.123V67.05h-6.243V37.925zm24.039.001h6.243v18.87c0 3.404 1.826 5.429 4.586 5.429 2.719 0 4.587-2.025 4.587-5.428V37.925h6.244v19.387c0 6.118-4.927 10.298-10.83 10.298-5.947 0-10.83-4.18-10.83-10.298V37.926zm27.095 22.618c2.76 1.034 5.393 1.68 8.027 1.68 2.208 0 3.524-1.335 3.524-3.274 0-5.213-11.976-3.877-11.976-13.399 0-5.04 4.29-8.186 9.683-8.186 2.718 0 5.394.69 8.155 1.81l-1.614 5.04c-2.336-.947-4.375-1.464-6.541-1.464-2.421 0-3.227 1.249-3.227 2.714 0 4.869 11.976 3.36 11.976 13.442 0 5.817-4.8 8.704-9.98 8.704-3.101 0-5.946-.604-9.217-1.81l1.19-5.257zm22.169 0c2.76 1.034 5.393 1.68 8.027 1.68 2.209 0 3.525-1.335 3.525-3.274 0-5.213-11.977-3.877-11.977-13.399 0-5.04 4.29-8.186 9.683-8.186 2.718 0 5.394.69 8.155 1.81l-1.614 5.04c-2.336-.947-4.374-1.464-6.54-1.464-2.421 0-3.228 1.249-3.228 2.714 0 4.869 11.976 3.36 11.976 13.442 0 5.817-4.799 8.704-9.98 8.704-3.1 0-5.946-.604-9.217-1.81l1.19-5.257zm22.466-22.619h6.243v29.124h-6.243V37.925zM136.65 54.9l-1.487-5.514c-.382-1.336-.764-3.145-1.104-4.955-.34 1.81-.765 3.62-1.104 4.955l-1.486 5.515h5.181zm-6.201-16.974h7.22l8.622 29.124h-6.328l-1.911-7.022h-7.985l-1.911 7.022h-6.329l8.622-29.124z"/></g><defs><linearGradient id="paint0_linear_203_4617" x1="80.081" y1=".494" x2="80.081" y2="104.29" gradientUnits="userSpaceOnUse"><stop stop-color="#0085FF"/><stop offset=".162" stop-color="#0085FF"/><stop offset="1" stop-color="#00007B"/></linearGradient></defs></svg>