<svg width="170" height="28" fill="none" xmlns="http://www.w3.org/2000/svg"><g clip-path="url(#clip0_203_4395)"><mask id="a" style="mask-type:luminance" maskUnits="userSpaceOnUse" x="0" y="0" width="170" height="28"><path d="M0 0h170v28H0V0z" fill="#fff"/></mask><g mask="url(#a)"><path d="M169.99 8.483h-3.502l-3.876 8.513-3.875-8.513h-3.499V19.95h2.519v-7.934l3.583 7.934h2.554l3.587-7.9v7.9H170l-.01-11.466zm-20.508 5.193h-4.432v-2.87h4.432a2.04 2.04 0 011.268.343c.145.115.262.265.338.437.077.172.112.36.103.55v.193a1.22 1.22 0 01-.1.559 1.164 1.164 0 01-.341.445 2.016 2.016 0 01-1.268.343zm-6.969-5.193V19.95h2.537V16h4.499c1.307 0 2.339-.325 3.097-.98.375-.329.672-.742.868-1.209a3.41 3.41 0 00.262-1.482v-.193a3.39 3.39 0 00-.264-1.473 3.292 3.292 0 00-.866-1.2c-.759-.652-1.791-.979-3.097-.979h-7.036zm-9.336 6.816l1.811-4.263 1.811 4.263h-3.622zm3.213-6.816h-2.818l-4.933 11.066v.4h2.537l1.015-2.377h5.545l1.014 2.378h2.537v-.4L136.39 8.482zm-10.351 5.826c0 .83-.235 1.428-.704 1.82-.469.394-1.223.558-2.248.558h-1.762v-4.952h1.762c1.027 0 1.776.195 2.248.586.246.226.439.508.561.824.122.316.171.657.143.997v.167zm-11.904 0v-.175a2.24 2.24 0 01.704-1.82c.47-.389 1.217-.584 2.241-.587h1.794v4.945h-1.794c-1.057 0-1.786-.185-2.251-.556-.465-.372-.704-.973-.704-1.821l.01.014zm8.935-4.89h-1.709V8.25h-2.554v1.169h-1.741c-1.747 0-3.106.416-4.076 1.249-.97.833-1.455 1.995-1.455 3.488v.106c0 1.478.485 2.629 1.455 3.452.97.823 2.329 1.233 4.076 1.23h1.741v1.188h2.554v-1.187h1.709c1.756 0 3.12-.41 4.09-1.231.97-.82 1.455-1.971 1.455-3.452v-.106c0-1.493-.488-2.655-1.462-3.488-.975-.833-2.336-1.249-4.083-1.249zm-24.242-.961v11.466h2.536v-4.537h6.141v4.563h2.536V8.482h-2.536v4.563h-6.141V8.483l-2.536-.025zm-13.388 0v11.466h2.536l6.155-7.865v7.865h2.52V8.484h-2.537l-6.156 7.864V8.483l-2.518-.025zm-13.036 0v11.466h2.537v-9.103h5.803v9.103h2.536V8.484l-10.876-.026zm-8.166 9.245c-1.296 0-2.294-.291-2.984-.874a3.05 3.05 0 01-.817-1.129 3.153 3.153 0 01-.24-1.387v-.208a3.2 3.2 0 01.238-1.403c.184-.442.464-.834.82-1.146.704-.597 1.687-.892 2.983-.892 1.297 0 2.272.295 2.966.893.353.312.63.705.81 1.147.18.443.26.922.23 1.401v.208c.029.472-.048.945-.226 1.382-.177.436-.45.825-.796 1.134-.683.583-1.678.874-2.984.874zm0 2.429a7.973 7.973 0 003.484-.729 5.34 5.34 0 002.297-2.046 5.792 5.792 0 00.814-3.091v-.16a5.793 5.793 0 00-.814-3.092 5.393 5.393 0 00-2.297-2.054 8.735 8.735 0 00-6.961 0 5.313 5.313 0 00-2.329 2.077 5.574 5.574 0 00-.807 3.068v.16a5.735 5.735 0 00.821 3.092c.56.9 1.362 1.61 2.308 2.047a7.954 7.954 0 003.484.728zM57.544 8.458h-3.026l-4.006 4.493H48.6V8.483h-2.536V19.95H48.6v-4.595h1.998l3.787 4.614h2.924v-.4l-4.502-5.525 4.749-5.156-.01-.43zM37.946 20.132a8.479 8.479 0 003.34-.626 5.523 5.523 0 002.314-1.74c.55-.713.847-1.599.838-2.51v-.12h-2.585v.12a2.074 2.074 0 01-.29 1.04 1.982 1.982 0 01-.767.737c-.87.488-1.852.72-2.84.67-1.363 0-2.392-.284-3.079-.856a3.033 3.033 0 01-.805-1.131 3.133 3.133 0 01-.227-1.385v-.262a3.15 3.15 0 01.24-1.388 3.05 3.05 0 01.817-1.128c.69-.583 1.707-.874 3.05-.874a6.03 6.03 0 012.037.313 3.306 3.306 0 011.388.874c.323.341.502.8.5 1.278v.139h2.586v-.114a4.094 4.094 0 00-.838-2.52 5.537 5.537 0 00-2.315-1.747 8.473 8.473 0 00-3.34-.626 8.115 8.115 0 00-3.523.728 5.25 5.25 0 00-2.356 2.056 5.516 5.516 0 00-.815 3.074v.19a5.741 5.741 0 00.821 3.088 5.378 5.378 0 002.343 2.035c1.11.5 2.312.75 3.523.729" fill="#000"/><path d="M0 14C0 6.667 5.46.646 12.43 0v2.569C6.835 3.205 2.485 8.08 2.485 14H0z" fill="#00D800"/><path d="M13.672 7.61c-3.432 0-6.214 2.861-6.214 6.39H4.972c0-4.94 3.895-8.946 8.7-8.946s8.7 4.006 8.7 8.946h-2.485c0-3.529-2.782-6.39-6.215-6.39zM17.4 14h2.487c0 4.94-3.896 8.945-8.7 8.945-4.806 0-8.701-4.005-8.701-8.945h2.486c0 3.529 2.782 6.39 6.214 6.39 3.433 0 6.215-2.861 6.215-6.39z" fill="#00D800"/><path fill-rule="evenodd" clip-rule="evenodd" d="M14.915 14h2.486c0-2.117-1.67-3.834-3.729-3.834S9.943 11.883 9.943 14H7.458c0 2.117 1.669 3.834 3.728 3.834 2.06 0 3.73-1.717 3.73-3.834zm-2.486 0c0-.706.557-1.278 1.243-1.278.687 0 1.243.572 1.243 1.278H12.43zm0 0H9.943c0 .706.557 1.278 1.243 1.278.687 0 1.243-.572 1.243-1.278z" fill="#00D800"/><path d="M22.373 14h2.486c0 7.333-5.461 13.354-12.43 14v-2.569c5.594-.635 9.944-5.511 9.944-11.431z" fill="#00D800"/></g></g><defs><clipPath id="clip0_203_4395"><path fill="#fff" d="M0 0h170v28H0z"/></clipPath></defs></svg>