<svg width="160" height="120" fill="none" xmlns="http://www.w3.org/2000/svg"><g clip-path="url(#clip0_203_4651)"><path fill-rule="evenodd" clip-rule="evenodd" d="M156.896 44.287c0-.137-.106-.137-.206-.137-.103 0-.205.137-.415.27-.407.41-1.028.917-1.404.917-.413 0-.617-.272-.617-.645 0-.272.102-.678.102-.948 0-.103-.102-.238-.308-.238-.415 0-1.41.78-1.41 1.694 0 1.727.824 2.136 1.203 2.136.617 0 3.123-2.136 3.123-2.779 0-.137 0-.27-.068-.27zm-4.771 10.026c-.206.676-.308 1.864-.308 2.508 0 1.014.41 1.422.821 1.422.413 0 .995-.27 2.816-2.2.106 0 .106-.138.206-.138.927-1.049.927-1.321.927-1.456 0-.136-.102-.136-.206-.136 0 0-.106 0-.617.543-.31.27-1.099.779-1.51.779-.413 0-.621-.408-.621-1.051 0-.916.415-1.592.723-2.1l1.817-2.642c.102-.137.102-.137.102-.408 0-1.319-.305-1.726-.511-1.726-.204 0-.31.272-.31.407l-3.705 4.742c-.413.543-1.649 2-2.233 2-.617 0-.723-1.457-.513-2.373.204-.137.309-.272.513-.407.995-.676 2.403-2.643 2.403-3.421 0-.406-.48-.676-.789-.676-1.203 0-1.923 1.725-2.642 2.913-.586 1.184-.893 1.829-.893 3.285 0 3.185.893 3.556 1.304 3.556.926 0 2.437-2.1 3.226-3.42zm-8.99 0c-.068.676-.274 1.864-.274 2.508 0 1.014.376 1.422.789 1.422.619 0 3.945-2.608 3.945-3.794 0-.136-.104-.136-.206-.136 0 0-.102.136-.824.676-.273.238-.995.646-1.303.646-.104 0-.584 0-.584-1.051 0-.916.379-1.592.688-2.1l1.921-2.642c.102-.137.102-.137.102-.408 0-1.319-.411-1.726-.617-1.726-.102 0-.207.272-.276.407l-3.739 4.742c-.619.948-.926 1.083-1.338 1.456-.378.27-.585.543-.789.543-.515 0-.926-1.188-.617-2.372.308-.137.41-.272.513-.407.995-.676 2.437-2.643 2.437-3.421 0-.406-.414-.676-.825-.676-1.304 0-3.533 4.097-3.533 6.198 0 2 .513 3.556 1.199 3.556.311 0 1.237 0 3.331-3.42zm-11.291.676c.413.238.617.646.891 1.459.206.508.721 1.93 1.924 1.93.822 0 1.713-.744 2.23-1.152.511-.54 1.716-2.237 1.716-2.777 0 0 0-.27-.104-.27-.102 0-.205.134-.411.405-.172.272-.276.272-.789.643-.823.815-1.203 1.085-1.614 1.085-.308 0-.719-.54-1.134-1.186-.374-.677-.788-1.32-1.51-1.591.722-1.188 2.336-3.05 3.055-3.05.102 0 .274 0 .274.135v.408c0 .27-.172.373-.274.508-.102 0-.204.135-.204.272 0 .539.891.914 1.301.914.793-.914.895-2.237.895-3.423 0-1.049-.378-1.456-.69-1.456-1.028 0-4.252 3.05-6.449 6.876-.104-.406-.206-1.862 1.716-4.234.481-.643.583-.914.583-1.456 0-.644-.207-1.832-.515-1.832-.274 0-.685.646-.787.918-.206.27-.308.405-.413.676-.31.508-.516.78-.993 1.83 0 .136-.106.136-.208.407-.413 1.049-.823 2.101-.823 3.961 0 2.102.308 2.745.41 2.745.104 0 .207 0 .207-.1l1.716-2.645zm-9.405-.54c0 1.323.619 4.201 2.335 4.201 1.028 0 2.025-.916 2.438-1.424 1.304-1.321 1.716-1.864 2.025-2.37.171-.272.274-.407.274-.543 0-.27-.103-.373-.205-.373-.173 0-.378.509-1.616 1.422-.478.41-1.302 1.086-2.196 1.086-1.406 0-1.819-1.086-1.819-1.592 0-1.188 1.51-3.32 2.403-3.558.102-.135.208-.135.31 0 .103 0 .207.238.207.373.102.137.204.54.308.54.617 0 2.025-2.912 2.025-3.826 0-.813-.412-.915-.825-.915-2.025 0-5.664 3.828-5.664 6.979zm-4.732-1.457c.308-1.456 1.508-3.963 2.642-3.963.308 0 .378.135.378.676 0 1.188-1.992 3.017-3.02 3.287zm0 1.051c2.331-.508 4.732-3.558 4.732-5.15 0-.508-.17-1.32-1.197-1.32-2.61 0-5.356 4.911-5.356 7.925 0 2 .824 3.017 1.923 3.017 1.03 0 2.023-.78 2.642-1.424.206-.135.206-.27.378-.543.308-.236 1.716-1.829 1.716-2.235 0-.373-.106-.373-.173-.373-.103 0-.309.238-1.337 1.186-.308.236-.378.236-.997.646-.306.27-.721.405-1.132.405-.582 0-1.301-.542-1.199-2.134zm-8.684-.914c0 .27.825 0 1.408-1.831.308-.948.308-1.184 1.919-1.184.414 0 .825 0 .825.371 0 0 0 .272-.719 1.323-.587.811-.587.914-.997 1.592-.309.54-1.028 1.59-1.028 2.777 0 1.05.513 1.557 1.134 1.557.476 0 1.406 0 2.503-1.186.411-.37 1.818-2.1 1.818-2.37 0-.135-.102-.238-.204-.238-.206 0-.276.103-.378.238-.411.406-1.236 1.184-1.716 1.184-.413 0-.824-.236-.824-.913 0-1.32 1.304-3.421 1.921-4.234.413-.51.997-1.186.413-2.372 0-.135-.103-.27-.413-.27-.206 0-.617.135-1.406.27-.515.137-.721.272-.929.272-.309 0-.378-.407-.378-.543v-.375c0-.27 0-.403-.205-.403-.719 0-2.227 2.1-2.227 3.32 0 .371.308.371.308.643 0 .136-.106.541-.514 1.59-.209.272-.311.645-.311.782zm-4.632 1.184c-.102.676-.309 1.864-.309 2.508 0 1.014.411 1.422.824 1.422.582 0 3.913-2.608 3.913-3.794 0-.136-.103-.136-.209-.136 0 0-.069.136-.788.676-.309.238-.993.646-1.306.646-.1 0-.617 0-.617-1.051 0-.916.415-1.592.723-2.1l1.919-2.642c.069-.137.069-.137.069-.408 0-1.319-.378-1.726-.582-1.726-.104 0-.206.272-.309.407l-3.739 4.742c-.621.948-.895 1.083-1.305 1.456-.413.27-.617.543-.824.543-.48 0-.893-1.188-.584-2.372.31-.135.378-.272.482-.407 1.028-.676 2.436-2.643 2.436-3.421 0-.406-.413-.676-.826-.676-1.301 0-3.5 4.097-3.5 6.198 0 2 .482 3.556 1.204 3.556.308 0 1.199 0 3.328-3.42zm-12.32-6.198c.996-1.729 3.326-2.778 4.84-2.778.719 0 1.232 0 1.716.27l.615-1.32c.104-.273-.102-1.051-1.201-1.051-1.13 0-6.177 1.456-6.177 3.826 0 .51 0 .78.206 1.053zm-4.15 6.741c-.105-.137-.172-.678-.172-.813 0-.375.171-.778.684-1.424.207-.27.207-.407.411-.678.104-.133.515-.778.997-1.32.104-.271.413-.644.413-.916 0-.134-.207-.541-.519-.541-.993 0-1.506.95-2.196 2.134-.922 1.424-1.235 1.967-1.235 3.93 0 2.135.411 2.506.826 2.506.306 0 .515-.37.79-.913.513-1.05.617-1.322 1.921-3.016.617-.676 1.234-1.321 1.715-1.321.41 0 .514.238.514.373 0 .272-.308.543-.995 2.132-.206.373-.617 1.323-.617 1.832 0 .677.309.913.515.913.789 0 1.817-1.829 3.74-3.929.069-.137.996-.948 1.099-.948.102 0 .204 0 .204.135 0 .137 0 .408-.205.813-.204.238-.308.644-.516 1.184-.513 1.188-.513 1.967-.513 2.51 0 .61.513.879.927.879.515 0 1.097-.406 2.434-1.557.278-.273 1.614-1.695 1.716-2.372v-.27h-.102c-.206 0-.309 0-.41.134-.824 1.05-1.306 1.459-1.821 1.459-.41 0-.615-.273-.615-.783 0-.675.31-1.86 1.818-3.691.205-.135.41-.406.41-.678 0-.135-.101-.27-.101-.506-.104-.137-.104-.272-.104-.41-.103-.405-.205-.675-.513-.675-.483 0-2.405 1.728-2.918 2.269-.415.373-.721.779-1.201 1.321-.309.238-.309.373-.618.646-.206.27-.41.54-.514.54-.103 0-.103-.137-.103-.27 0-.135.103-.406.207-.543.102-.27.204-.27.308-.643.102-.137.205-.272.411-.813.204-.238.309-.373.513-.916.104-.27.206-.506.206-1.049 0-.272.07-1.05-.617-1.05-.308 0-.925.27-3.122 2.642-.823.914-1.82 1.966-3.053 3.693zm-7.037-3.693c.79-4.1 3.226-7.419 3.912-8.335.413-.506 1.028-1.456 1.406-1.456.102 0 .205.137.205.272 0 .813-1.404 3.318-1.817 3.829-1.819 3.183-3.02 4.742-3.706 5.69zm5.831 2.505c-.513.375-.787.645-1.404.645-.308 0-.515-.135-.823-.27.412-.508.515-.914.721-1.424.204-.678.513-1.218.513-1.999 0-.27.206-1.186-.308-1.186-1.028 0-2.918 2.643-2.918 4.1 0 .406.104.78.276 1.05-.276.778-.891 1.864-1.615 1.864-.582 0-.684-.676-.684-1.22 0-.644 0-1.693.102-2.37a5.08 5.08 0 001.306-1.457c3.224-4.204 6.142-9.757 6.142-11.35 0-.508-.207-1.051-.484-1.051-1.028 0-4.255 4.236-5.145 5.42-1.339 1.966-3.74 5.795-3.74 10.706 0 2.846 1.098 3.389 1.715 3.389 1.305 0 2.505-1.694 3.637-3.389.482.373.997.373 1.099.373.515 0 1.097-.272 1.61-.643v-1.188zm-13.003-.676c.276-1.456 1.51-3.963 2.609-3.963.308 0 .41.135.41.676 0 1.188-2.024 3.017-3.02 3.287zm0 1.051c2.298-.508 4.734-3.558 4.734-5.15 0-.508-.206-1.32-1.2-1.32-2.641 0-5.353 4.911-5.353 7.926 0 2 .789 3.016 1.923 3.016.995 0 1.988-.78 2.607-1.424.206-.135.206-.27.413-.543.308-.236 1.714-1.829 1.714-2.235 0-.373-.104-.373-.206-.373-.104 0-.309.238-1.304 1.186-.308.236-.41.236-1.03.646-.308.27-.686.405-1.097.405-.617 0-1.305-.542-1.201-2.134zm-6.075 7.893a2.925 2.925 0 01.205-2.102c-.891-.135-1.921.408-2.127 1.46 0 .912.104 1.691.412 2.506.617.373 1.1.27 1.51-.272 2.849-2.64 3.948-6.98 3.948-8.809 0-.406-.104-.406-.207-.406 0 0-.102 0-.617.543-.38.371-.894.779-1.51.779-.584 0-.584-.779-.584-1.051 0-.916.378-1.727.687-2.1l1.922-2.642.102-.27v-.273c-.102-.643-.204-1.591-.617-1.591-.102 0-.275.272-.275.407l-3.742 4.742c-.204.408-1.716 1.862-2.333 1.862-.41 0-.617-1.05-.41-2.235.308-.135.308-.135.512-.272 1.101-.811 2.438-2.778 2.438-3.556 0-.27-.309-.676-.824-.676-1.716 0-3.534 4.64-3.534 6.739 0 2.372.825 3.015 1.201 3.015.823 0 1.92-1.286 3.328-3.42-.171.675-.273 1.728-.273 2.507 0 .542.102 1.422.788 1.422.62 0 1.51-.61 1.819-1.017-.102 1.424-.685 3.522-1.819 4.71zm-13.52-7.217c0-2.37 3.124-4.605 4.53-4.605.102 0 .515 0 .515.371 0 .813-1.614 2.644-2.231 3.183-.482.645-1.408 1.56-2.195 1.831h-.31c-.207-.137-.309-.51-.309-.78zm6.555-5.825c.102-.103.102-.103.206-.238.102-.136.309-.27.309-.676 0-.408-.413-.918-1.03-.918-1.1 0-3.328 1.459-4.325 2.372-.72.68-2.814 2.643-2.814 5.015 0 1.05.274 3.285 1.201 3.285.722 0 2.44-2.1 2.918-2.608.309-.407.309-.542.62-.813.204-.27.306-.373.684-.913-.172.643-.274.778-.378 1.049-.411 1.05-.515 1.863-.515 2.372 0 1.014.721 1.288 1.099 1.288.617 0 1.443-.375 2.333-1.56 1.202-1.56 1.613-2.1 1.613-2.236 0-.135 0-.135-.103-.135-.102 0-.206.136-.308.136-.207.27-.31.27-.378.405-.104.137-.104.137-.309.27-.823.646-1.132.783-1.338.783-.172 0-.688-.273-.688-1.188 0-.644.414-1.32.792-2.372.513-.811.822-1.32.822-1.862 0-.373-.205-.916-.411-1.456zm-14.344 5.42v-.27c0-.51.411-1.425 1.337-3.016.308-.408.48-.813.48-1.323 0-1.184-.274-1.59-.583-1.59-.514 0-2.848 2.642-3.224 3.183-.517.643-.825 1.05-2.129 3.015-.515.914-.721 1.322-.925 1.322-.105 0-.105-.408-.105-.646 0-1.724.309-1.86.309-2.505 0 0-.102-.135-.204-.135-.378 0-1.614 2.235-1.614 3.556 0 1.186.308 1.83.821 1.83.415 0 .793-.372 1.82-1.963 1.82-2.915 3.433-4.371 3.433-3.964 0 .133-.102.914-.928 2.37-.582 1.05-.89 1.864-.89 2.37 0 .95.104 1.424.412 1.424.272 0 .787-.474 2.503-2.745.617-.778 1.406-1.692 2.849-2.878-.103.508-.309.916-.616 1.456-.723 1.184-1.203 2.237-1.203 3.286 0 .881.376 1.287 1.097 1.287 1.1 0 2.505-1.557 3.228-2.473.309-.543.822-1.186.822-1.592 0-.27-.102-.27-.204-.27-.207 0-.309.135-.309.27-.309.406-1.097 1.592-1.718 1.592-.307 0-.72-.133-.72-.916 0-1.049 1.03-2.505 1.512-3.18.307-.511.617-.781.617-1.324 0-.643-.31-1.591-.617-1.591-.584 0-3.536 3.318-4.43 4.506-.308.405-.41.54-.82.913zM32.5 55.361c.923-1.422 2.744-4.064 3.635-4.064.308 0 .515.103.617.373v.406c-.207.645-1.098 2.372-2.334 3.558-.582-.509-1.301-.509-1.918-.273zm1.028-5.012l-2.438 5.827c-.789.914-1.406 1.795-1.92 2.981-.103.676-.585 3.048-.585 3.59 0 .646.204 1.189.482 1.189.72 0 .926-1.866 2.538-6.439.823.611 1.614.88 2.231.88.995 0 3.224-.269 5.251-2.743.685-.779.582-1.051.582-1.186 0 0-.104-.136-.206-.136s-.172.27-.274.27c-.206.406-1.03 1.73-2.437 1.73-.513 0-.891-.136-1.302-.408 1.508-1.456 3.43-3.964 3.43-5.791 0-1.085-.514-1.593-1.027-1.593-.997 0-3.33 2.642-4.017 3.42.376-.778.478-.913.582-1.32.309-.507.309-.644.517-.916.993-1.997 1.097-3.421 2.434-4.505l.106-.135c0-.236-.415-.373-.723-.373-.824 0-1.098.645-1.817 1.967-2.333 4.233-4.84 5.96-5.149 7.384v.27l.104.136c.103 0 .103-.136.411-.406l3.227-3.693zm-12.01 4.369c0-2.37 3.121-4.605 4.527-4.605.102 0 .513 0 .513.371 0 .813-1.61 2.644-2.23 3.183-.512.645-1.405 1.56-2.228 1.831h-.274c-.207-.137-.309-.51-.309-.78zm6.552-5.825c.102-.103.102-.103.206-.238.103-.136.309-.27.309-.676 0-.408-.413-.918-1.028-.918-1.1 0-3.33 1.459-4.325 2.372-.722.68-2.849 2.643-2.849 5.015 0 1.05.309 3.285 1.236 3.285.687 0 2.403-2.1 2.918-2.608.309-.407.309-.542.617-.813.205-.27.309-.373.687-.913-.207.643-.31.778-.378 1.049-.413 1.05-.515 1.863-.515 2.372 0 1.014.686 1.288 1.097 1.288.617 0 1.408-.375 2.334-1.56 1.203-1.56 1.614-2.1 1.614-2.236 0-.135 0-.135-.102-.135-.105 0-.207.136-.31.136-.205.27-.31.27-.412.405-.102.137-.102.137-.276.27-.823.646-1.131.783-1.336.783-.206 0-.688-.273-.688-1.188 0-.644.414-1.32.79-2.372.513-.811.822-1.32.822-1.862 0-.373-.205-.916-.411-1.456zm-14.548-2.745c-.482 0-.79.135-1.203.51-.687.403-.789.403-1.406 1.456-4.84 7.112-7.79 7.927-8.167 7.927-.617 0-1.03.135-1.03-.815 0-1.049.824-4.064 3.844-7.247 1.095-1.186 3.945-3.83 5.455-4.1h.31c.1.134.307.134.307.407 0 .27-.41 1.05-.617 1.32.31-.134.31-.134.41-.27 1.1-.272 3.125-2.101 3.125-3.015 0-.543 0-2.404-1.306-2.404-1.918 0-6.279 2.775-7.993 4.369C2.438 47.062 0 52.212 0 54.989c0 .648 1.234 2.745 1.923 2.745 1.61 0 5.351-3.015 7.789-6.436l-1.51 4.064c-3.64 4.067-4.565 6.169-4.565 7.623 0 1.323.41 3.185.721 3.185.205 0 .411-.135.48-.407l2.746-6.605c2.232-3.253 4.048-5.353 5.764-7.217 1.098-1.32 1.304-1.591 1.99-2.37 2.643-3.05 3.433-3.828 4.05-3.828s.617.27.617.779c0 2.269-1.612 4.506-3.122 7.013-.206.405-2.23 3.42-2.642 3.42v-.407c0-.236 0-.506.103-.911.102-.138.102-.138.102-.41 1.099-3.691 2.129-2.743 2.129-3.826 0-.103-.102-.103-.207-.103-1.133 0-3.637 3.015-3.637 5.014 0 .779.205 1.053.513 1.422.209.238.38.509.791.509.823 0 2.54-1.795 3.02-2.338 1.818-2.1 4.36-6.2 4.36-8.708 0-1.319-1.032-3.556-1.82-3.556-1.304 0-4.428 3.153-8.682 8.3l2.61-5.793z" fill="#1775BC"/><path d="M14.41 79.353c1.054-.716 1.486-1.788 1.486-2.822 0-.653-.174-1.526-.912-2.229 2.499.116 5.002.98 5.002 2.465 0 1.402-2.098 2.348-5.577 2.586zM3.883 68.8h3.793l-.216.101V79.38H3.89c.082-.17.163-.346.163-.613v-9.284c0-.265-.07-.486-.17-.682zm9.642 4.668c.112-.04.216-.082.318-.125v.245c-.102-.04-.206-.084-.318-.12zm-2.295-1.102H8.894v-2.509c.555-.196 1.16-.308 2.027-.308 1.951 0 3.162.557 3.162 1.46 0 1.182-1.787 1.357-2.852 1.357zm-.07 6.404c-1.025 0-1.777-.163-2.267-.322v-3.921h2.027c2.35 0 3.542.674 3.542 2.004 0 .836-.43 2.24-3.301 2.24zm8.139-7.862c0 .967-2.023 1.784-4.546 1.86.646-.602.76-1.329.76-1.76 0-.806-.409-1.64-1.408-2.202 3.142.225 4.364.931 4.835 1.388.233.23.359.476.359.714zm-.876 2.596c1.356-.532 2.308-1.382 2.308-2.596 0-.436-.135-1.085-.782-1.717-1.312-1.285-4.147-1.913-8.418-1.872l-1.159.017-1.134.016-1.51.032H.05v2.13h2.157c.062 0 .284.01.417.017v9.18c-.137.01-.417.025-.417.025H.048v2.058h10.188c-.033-.002 2.366.034 2.366.034 5.602 0 8.815-1.481 8.815-4.06 0-1.59-1.257-2.652-2.993-3.264zm21.586-4.703l.181 1.38c-.129-.637-1.043-1.073-2.204-1.38h2.023zm.577 9.17c-.218.659-.34 1.026-.465 1.41h-1.624c1.219-.4 1.92-.901 2.071-1.39l-.03.085.048-.105zm-3.855-4.923h.002v1.302l-.033-.032c-.247-.259-.758-.428-1.342-.563.815-.2 1.168-.461 1.373-.707zm-6.734-4.247c-.107.17-.162.333-.162.446v9.62c0 .222.075.36.136.513h-3.708c.081-.171.164-.346.164-.613v-9.284c0-.265-.067-.484-.172-.682h3.742zm10.644-1.416h-18.22v2.13h2.159c.06 0 .29.011.416.02v9.177l-.416.025h-2.158v2.058H41.16l1.44-4.36-2.782-.206s-.565 1.219-.578 1.244c-.259.283-2.108 1.264-6.939 1.264-.56 0-.858-.016-1.034-.036v-3.878c2.05 0 3.641.188 4.195.401v1.302h2.701v-5.48h-2.701v1.197c-.338.15-1.35.432-4.195.434v-3.086c.147-.036.394-.076.83-.076 1.722 0 5.978.497 6.716 1.038l.114 1.129h2.904l-.56-4.297h-.63z" fill="#1775BC"/><mask id="a" style="mask-type:luminance" maskUnits="userSpaceOnUse" x="42" y="66" width="23" height="15"><path d="M42.456 66.777h22.215v14.221H42.456v-14.22z" fill="#fff"/></mask><g mask="url(#a)"><path d="M59.754 69.176c.112.03.241.04.35.07l.967.276.154 1.457h-.05c-.12-.705-.638-1.316-1.421-1.803zm-15.655 5.016c0-2.598 2.7-4.565 6.86-5.298-1.646.99-2.833 2.736-2.833 5.367 0 2.949 2.01 4.55 4.416 5.256-6.162-.33-8.443-2.995-8.443-5.325zm-1.43 0c0 3.14 2.911 6.806 11.113 6.806 3.639 0 8.093-.487 10.301-4.287l.504-.868-2.964-.53-.263.376c-.99 1.424-2.431 2.878-5.62 2.878-2.853 0-6.184-1.127-6.184-4.306 0-3.655 2.76-4.952 5.12-4.952 2.95 0 5.084 1.234 5.118 1.904l-.002 1.178h3.02l-.522-5.007h-2.978l.06.277a21.797 21.797 0 00-4.696-.51c-8.296 0-12.008 3.537-12.008 7.041z" fill="#1775BC"/></g><path d="M82.34 68.801v1.635h-.006c-.154-.71-1.047-1.254-2.116-1.635h2.122zm-6.756 0a.94.94 0 00-.075.343v9.623c0 .267.08.442.158.613h-3.76c.08-.171.164-.346.164-.613v-9.623a.877.877 0 00-.083-.343h3.596zm-8.267 0c-1.068.413-1.92.984-2.077 1.635h-.07v-1.635h2.147zm15.736-1.416H63.74v4.464h2.873v-1.062c.357-.415 2.42-1.259 4.023-1.268v9.193c-.133.01-.413.025-.413.025h-2.161v2.058h11.387v-2.058h-2.09s-.269-.014-.417-.02v-9.194c1.365.045 3.652.788 4.025 1.228v1.098h2.803v-4.464h-.717zm22.964 1.416a1.455 1.455 0 00-.172.682v9.284c0 .267.083.442.164.613h-3.695c.079-.171.16-.346.16-.613v-9.284a1.43 1.43 0 00-.17-.682h3.713zm-13.586 0a1.425 1.425 0 00-.175.682v9.284c0 .267.086.442.17.613h-3.744c.085-.171.168-.346.168-.613v-9.284c0-.265-.071-.484-.174-.682h3.755zm16.706-1.416H98.465v2.13h2.16c.063 0 .283.01.414.017v3.176h-7.35v-3.176l.335-.017h2.237v-2.13H84.843v2.13H87c.061 0 .29.011.414.017v9.18l-.414.025h-2.158v2.058H96.26v-2.058h-2.158l-.415-.025V74.83h7.351v3.882c-.133.01-.414.025-.414.025h-2.16v2.058h11.385v-2.058h-2.088l-.482-.029v-9.174c.141-.008.391-.019.391-.019h2.179v-2.13h-.713zm22.585 1.416a1.42 1.42 0 00-.171.682v9.284c0 .267.079.442.162.613h-3.664c.079-.171.162-.346.162-.613v-9.284c0-.295-.072-.501-.16-.682h3.671zm-13.658 0a1.415 1.415 0 00-.174.682v9.284c0 .267.081.442.168.613h-3.738c.081-.171.164-.346.164-.613v-9.284c0-.265-.071-.486-.173-.682h3.753zm16.775-1.416h-10.668v2.13h2.158s.279.013.449.023v.417c-.445.344-5.762 4.481-7.455 5.795v-6.218l.339-.017h2.235v-2.13h-11.453v2.13h2.158c.066 0 .318.013.451.02v9.173c-.135.01-.451.029-.451.029h-2.158v2.058h11.453v-2.058h-2.156l-.418-.025v-.143l7.455-5.74v5.88l-.449.028h-2.158v2.058h11.385v-2.058h-2.092l-.482-.029v-9.174c.139-.008.391-.019.391-.019h2.183v-2.13h-.717z" fill="#1775BC"/><mask id="b" style="mask-type:luminance" maskUnits="userSpaceOnUse" x="135" y="66" width="26" height="15"><path d="M135.761 66.777h24.24v14.221h-24.24v-14.22z" fill="#fff"/></mask><g mask="url(#b)"><path d="M150.251 76.585l-.38-.706a7.157 7.157 0 00-.86-1.342c3.612.525 5.002 2.063 5.511 3.006l.014.026.05.067.395.602c.287.46.629.97 1.09 1.283-.241.025-.448.06-.747.06-2.765 0-4.028-1.197-5.073-2.996zm4.971-8.018c1.608 0 2.339.388 2.339.748 0 .147-.617.512-1.548.512-.791 0-1.371-.282-1.518-.554v-.046l.033-.066.143-.49c0-.03-.02-.05-.024-.08.191-.007.38-.024.575-.024zm-5.648 3.895l1.523-2.014c.409-.53.822-.874 1.233-1.152-.114.204-.228.407-.342.63l-.106.204c-.669 1.068-1.222 1.873-2.343 2.368.014-.013.023-.02.035-.036zm-5.737-3.661a1.443 1.443 0 00-.174.681v9.285c0 .266.083.442.166.613h-3.733c.079-.171.16-.347.16-.613v-9.285c0-.264-.07-.485-.17-.681h3.751zm6.117.794c-.006.01-1.518 2.006-1.518 2.006-.794 1.002-.947 1.004-1.68 1.004h-1.658v-3.071c.127-.008.364-.02.364-.02h2.241v-2.13h-11.451v2.13h2.154c.062 0 .286.01.415.018v9.18c-.135.01-.415.024-.415.024h-2.154v2.058h11.451v-2.058h-2.158l-.447-.028v-3.909h1.34c1.223 0 1.578.587 2.152 1.714l.425.786c1.058 1.824 2.642 3.699 6.309 3.699 2.309 0 3.674-.7 4.301-2.2l.374-.897-2.81-.227-.154.571c-.031.12-.108.14-.137.145-.174-.052-.523-.615-.694-.89l-.44-.66c-.563-1.02-1.913-2.574-4.964-3.379 1.094-.681 1.701-1.635 2.322-2.623l.143-.27c.067-.134.114-.204.177-.318.517.609 1.445.99 2.571.99 1.481 0 2.981-.661 2.981-1.925 0-.508-.274-2.165-3.772-2.165-1.257 0-3.363 0-5.268 2.445z" fill="#1775BC"/></g><path fill-rule="evenodd" clip-rule="evenodd" d="M156.896 44.287c0-.137-.106-.137-.206-.137-.103 0-.205.137-.415.27-.407.41-1.028.917-1.404.917-.413 0-.617-.272-.617-.645 0-.272.102-.678.102-.948 0-.103-.102-.238-.308-.238-.415 0-1.41.78-1.41 1.694 0 1.727.824 2.136 1.203 2.136.617 0 3.123-2.136 3.123-2.779 0-.137 0-.27-.068-.27zm-4.771 10.026c-.206.676-.308 1.864-.308 2.508 0 1.014.41 1.422.821 1.422.413 0 .995-.27 2.816-2.2.106 0 .106-.138.206-.138.927-1.049.927-1.321.927-1.456 0-.136-.102-.136-.206-.136 0 0-.106 0-.617.543-.31.27-1.099.779-1.51.779-.413 0-.621-.408-.621-1.051 0-.916.415-1.592.723-2.1l1.817-2.642c.102-.137.102-.137.102-.408 0-1.319-.305-1.726-.511-1.726-.204 0-.31.272-.31.407l-3.705 4.742c-.413.543-1.649 2-2.233 2-.617 0-.723-1.457-.513-2.373.204-.137.309-.272.513-.407.995-.676 2.403-2.643 2.403-3.421 0-.406-.48-.676-.789-.676-1.203 0-1.923 1.725-2.642 2.913-.586 1.184-.893 1.829-.893 3.285 0 3.185.893 3.556 1.304 3.556.926 0 2.437-2.1 3.226-3.42zm-8.99 0c-.068.676-.274 1.864-.274 2.508 0 1.014.376 1.422.789 1.422.619 0 3.945-2.608 3.945-3.794 0-.136-.104-.136-.206-.136 0 0-.102.136-.824.676-.273.238-.995.646-1.303.646-.104 0-.584 0-.584-1.051 0-.916.379-1.592.688-2.1l1.921-2.642c.102-.137.102-.137.102-.408 0-1.319-.411-1.726-.617-1.726-.102 0-.207.272-.276.407l-3.739 4.742c-.619.948-.926 1.083-1.338 1.456-.378.27-.585.543-.789.543-.515 0-.926-1.188-.617-2.372.308-.137.41-.272.513-.407.995-.676 2.437-2.643 2.437-3.421 0-.406-.414-.676-.825-.676-1.304 0-3.533 4.097-3.533 6.198 0 2 .513 3.556 1.199 3.556.311 0 1.237 0 3.331-3.42zm-11.291.676c.413.238.617.646.891 1.459.206.508.721 1.93 1.924 1.93.822 0 1.713-.744 2.23-1.152.511-.54 1.716-2.237 1.716-2.777 0 0 0-.27-.104-.27-.102 0-.205.134-.411.405-.172.272-.276.272-.789.643-.823.815-1.203 1.085-1.614 1.085-.308 0-.719-.54-1.134-1.186-.374-.677-.788-1.32-1.51-1.591.722-1.188 2.336-3.05 3.055-3.05.102 0 .274 0 .274.135v.408c0 .27-.172.373-.274.508-.102 0-.204.135-.204.272 0 .539.891.914 1.301.914.793-.914.895-2.237.895-3.423 0-1.049-.378-1.456-.69-1.456-1.028 0-4.252 3.05-6.449 6.876-.104-.406-.206-1.862 1.716-4.234.481-.643.583-.914.583-1.456 0-.644-.207-1.832-.515-1.832-.274 0-.685.646-.787.918-.206.27-.308.405-.413.676-.31.508-.516.78-.993 1.83 0 .136-.106.136-.208.407-.413 1.049-.823 2.101-.823 3.961 0 2.102.308 2.745.41 2.745.104 0 .207 0 .207-.1l1.716-2.645zm-9.405-.54c0 1.323.619 4.201 2.335 4.201 1.028 0 2.025-.916 2.438-1.424 1.304-1.321 1.716-1.864 2.025-2.37.171-.272.274-.407.274-.543 0-.27-.103-.373-.205-.373-.173 0-.378.509-1.616 1.422-.478.41-1.302 1.086-2.196 1.086-1.406 0-1.819-1.086-1.819-1.592 0-1.188 1.51-3.32 2.403-3.558.102-.135.208-.135.31 0 .103 0 .207.238.207.373.102.137.204.54.308.54.617 0 2.025-2.912 2.025-3.826 0-.813-.412-.915-.825-.915-2.025 0-5.664 3.828-5.664 6.979zm-4.732-1.457c.308-1.456 1.508-3.963 2.642-3.963.308 0 .378.135.378.676 0 1.188-1.992 3.017-3.02 3.287zm0 1.051c2.331-.508 4.732-3.558 4.732-5.15 0-.508-.17-1.32-1.197-1.32-2.61 0-5.356 4.911-5.356 7.925 0 2 .824 3.017 1.923 3.017 1.03 0 2.023-.78 2.642-1.424.206-.135.206-.27.378-.543.308-.236 1.716-1.829 1.716-2.235 0-.373-.106-.373-.173-.373-.103 0-.309.238-1.337 1.186-.308.236-.378.236-.997.646-.306.27-.721.405-1.132.405-.582 0-1.301-.542-1.199-2.134zm-8.684-.914c0 .27.825 0 1.408-1.831.308-.948.308-1.184 1.919-1.184.414 0 .825 0 .825.371 0 0 0 .272-.719 1.323-.587.811-.587.914-.997 1.592-.309.54-1.028 1.59-1.028 2.777 0 1.05.513 1.557 1.134 1.557.476 0 1.406 0 2.503-1.186.411-.37 1.818-2.1 1.818-2.37 0-.135-.102-.238-.204-.238-.206 0-.276.103-.378.238-.411.406-1.236 1.184-1.716 1.184-.413 0-.824-.236-.824-.913 0-1.32 1.304-3.421 1.921-4.234.413-.51.997-1.186.413-2.372 0-.135-.103-.27-.413-.27-.206 0-.617.135-1.406.27-.515.137-.721.272-.929.272-.309 0-.378-.407-.378-.543v-.375c0-.27 0-.403-.205-.403-.719 0-2.227 2.1-2.227 3.32 0 .371.308.371.308.643 0 .136-.106.541-.514 1.59-.209.272-.311.645-.311.782zm-4.632 1.184c-.102.676-.309 1.864-.309 2.508 0 1.014.411 1.422.824 1.422.582 0 3.913-2.608 3.913-3.794 0-.136-.103-.136-.209-.136 0 0-.069.136-.788.676-.309.238-.993.646-1.306.646-.1 0-.617 0-.617-1.051 0-.916.415-1.592.723-2.1l1.919-2.642c.069-.137.069-.137.069-.408 0-1.319-.378-1.726-.582-1.726-.104 0-.206.272-.309.407l-3.739 4.742c-.621.948-.895 1.083-1.305 1.456-.413.27-.617.543-.824.543-.48 0-.893-1.188-.584-2.372.31-.135.378-.272.482-.407 1.028-.676 2.436-2.643 2.436-3.421 0-.406-.413-.676-.826-.676-1.301 0-3.5 4.097-3.5 6.198 0 2 .482 3.556 1.204 3.556.308 0 1.199 0 3.328-3.42zm-12.32-6.198c.996-1.729 3.326-2.778 4.84-2.778.719 0 1.232 0 1.716.27l.615-1.32c.104-.273-.102-1.051-1.201-1.051-1.13 0-6.177 1.456-6.177 3.826 0 .51 0 .78.206 1.053zm-4.15 6.741c-.105-.137-.172-.678-.172-.813 0-.375.171-.778.684-1.424.207-.27.207-.407.411-.678.104-.133.515-.778.997-1.32.104-.271.413-.644.413-.916 0-.134-.207-.541-.519-.541-.993 0-1.506.95-2.196 2.134-.922 1.424-1.235 1.967-1.235 3.93 0 2.135.411 2.506.826 2.506.306 0 .515-.37.79-.913.513-1.05.617-1.322 1.921-3.016.617-.676 1.234-1.321 1.715-1.321.41 0 .514.238.514.373 0 .272-.308.543-.995 2.132-.206.373-.617 1.323-.617 1.832 0 .677.309.913.515.913.789 0 1.817-1.829 3.74-3.929.069-.137.996-.948 1.099-.948.102 0 .204 0 .204.135 0 .137 0 .408-.205.813-.204.238-.308.644-.516 1.184-.513 1.188-.513 1.967-.513 2.51 0 .61.513.879.927.879.515 0 1.097-.406 2.434-1.557.278-.273 1.614-1.695 1.716-2.372v-.27h-.102c-.206 0-.309 0-.41.134-.824 1.05-1.306 1.459-1.821 1.459-.41 0-.615-.273-.615-.783 0-.675.31-1.86 1.818-3.691.205-.135.41-.406.41-.678 0-.135-.101-.27-.101-.506-.104-.137-.104-.272-.104-.41-.103-.405-.205-.675-.513-.675-.483 0-2.405 1.728-2.918 2.269-.415.373-.721.779-1.201 1.321-.309.238-.309.373-.618.646-.206.27-.41.54-.514.54-.103 0-.103-.137-.103-.27 0-.135.103-.406.207-.543.102-.27.204-.27.308-.643.102-.137.205-.272.411-.813.204-.238.309-.373.513-.916.104-.27.206-.506.206-1.049 0-.272.07-1.05-.617-1.05-.308 0-.925.27-3.122 2.642-.823.914-1.82 1.966-3.053 3.693zm-7.037-3.693c.79-4.1 3.226-7.419 3.912-8.335.413-.506 1.028-1.456 1.406-1.456.102 0 .205.137.205.272 0 .813-1.404 3.318-1.817 3.829-1.819 3.183-3.02 4.742-3.706 5.69zm5.831 2.505c-.513.375-.787.645-1.404.645-.308 0-.515-.135-.823-.27.412-.508.515-.914.721-1.424.204-.678.513-1.218.513-1.999 0-.27.206-1.186-.308-1.186-1.028 0-2.918 2.643-2.918 4.1 0 .406.104.78.276 1.05-.276.778-.891 1.864-1.615 1.864-.582 0-.684-.676-.684-1.22 0-.644 0-1.693.102-2.37a5.08 5.08 0 001.306-1.457c3.224-4.204 6.142-9.757 6.142-11.35 0-.508-.207-1.051-.484-1.051-1.028 0-4.255 4.236-5.145 5.42-1.339 1.966-3.74 5.795-3.74 10.706 0 2.846 1.098 3.389 1.715 3.389 1.305 0 2.505-1.694 3.637-3.389.482.373.997.373 1.099.373.515 0 1.097-.272 1.61-.643v-1.188zm-13.003-.676c.276-1.456 1.51-3.963 2.609-3.963.308 0 .41.135.41.676 0 1.188-2.024 3.017-3.02 3.287zm0 1.051c2.298-.508 4.734-3.558 4.734-5.15 0-.508-.206-1.32-1.2-1.32-2.641 0-5.353 4.911-5.353 7.926 0 2 .789 3.016 1.923 3.016.995 0 1.988-.78 2.607-1.424.206-.135.206-.27.413-.543.308-.236 1.714-1.829 1.714-2.235 0-.373-.104-.373-.206-.373-.104 0-.309.238-1.304 1.186-.308.236-.41.236-1.03.646-.308.27-.686.405-1.097.405-.617 0-1.305-.542-1.201-2.134zm-6.075 7.893a2.925 2.925 0 01.205-2.102c-.891-.135-1.921.408-2.127 1.46 0 .912.104 1.691.412 2.506.617.373 1.1.27 1.51-.272 2.849-2.64 3.948-6.98 3.948-8.809 0-.406-.104-.406-.207-.406 0 0-.102 0-.617.543-.38.371-.894.779-1.51.779-.584 0-.584-.779-.584-1.051 0-.916.378-1.727.687-2.1l1.922-2.642.102-.27v-.273c-.102-.643-.204-1.591-.617-1.591-.102 0-.275.272-.275.407l-3.742 4.742c-.204.408-1.716 1.862-2.333 1.862-.41 0-.617-1.05-.41-2.235.308-.135.308-.135.512-.272 1.101-.811 2.438-2.778 2.438-3.556 0-.27-.309-.676-.824-.676-1.716 0-3.534 4.64-3.534 6.739 0 2.372.825 3.015 1.201 3.015.823 0 1.92-1.286 3.328-3.42-.171.675-.273 1.728-.273 2.507 0 .542.102 1.422.788 1.422.62 0 1.51-.61 1.819-1.017-.102 1.424-.685 3.522-1.819 4.71zm-13.52-7.217c0-2.37 3.124-4.605 4.53-4.605.102 0 .515 0 .515.371 0 .813-1.614 2.644-2.231 3.183-.482.645-1.408 1.56-2.195 1.831h-.31c-.207-.137-.309-.51-.309-.78zm6.555-5.825c.102-.103.102-.103.206-.238.102-.136.309-.27.309-.676 0-.408-.413-.918-1.03-.918-1.1 0-3.328 1.459-4.325 2.372-.72.68-2.814 2.643-2.814 5.015 0 1.05.274 3.285 1.201 3.285.722 0 2.44-2.1 2.918-2.608.309-.407.309-.542.62-.813.204-.27.306-.373.684-.913-.172.643-.274.778-.378 1.049-.411 1.05-.515 1.863-.515 2.372 0 1.014.721 1.288 1.099 1.288.617 0 1.443-.375 2.333-1.56 1.202-1.56 1.613-2.1 1.613-2.236 0-.135 0-.135-.103-.135-.102 0-.206.136-.308.136-.207.27-.31.27-.378.405-.104.137-.104.137-.309.27-.823.646-1.132.783-1.338.783-.172 0-.688-.273-.688-1.188 0-.644.414-1.32.792-2.372.513-.811.822-1.32.822-1.862 0-.373-.205-.916-.411-1.456zm-14.344 5.42v-.27c0-.51.411-1.425 1.337-3.016.308-.408.48-.813.48-1.323 0-1.184-.274-1.59-.583-1.59-.514 0-2.848 2.642-3.224 3.183-.517.643-.825 1.05-2.129 3.015-.515.914-.721 1.322-.925 1.322-.105 0-.105-.408-.105-.646 0-1.724.309-1.86.309-2.505 0 0-.102-.135-.204-.135-.378 0-1.614 2.235-1.614 3.556 0 1.186.308 1.83.821 1.83.415 0 .793-.372 1.82-1.963 1.82-2.915 3.433-4.371 3.433-3.964 0 .133-.102.914-.928 2.37-.582 1.05-.89 1.864-.89 2.37 0 .95.104 1.424.412 1.424.272 0 .787-.474 2.503-2.745.617-.778 1.406-1.692 2.849-2.878-.103.508-.309.916-.616 1.456-.723 1.184-1.203 2.237-1.203 3.286 0 .881.376 1.287 1.097 1.287 1.1 0 2.505-1.557 3.228-2.473.309-.543.822-1.186.822-1.592 0-.27-.102-.27-.204-.27-.207 0-.309.135-.309.27-.309.406-1.097 1.592-1.718 1.592-.307 0-.72-.133-.72-.916 0-1.049 1.03-2.505 1.512-3.18.307-.511.617-.781.617-1.324 0-.643-.31-1.591-.617-1.591-.584 0-3.536 3.318-4.43 4.506-.308.405-.41.54-.82.913zM32.5 55.361c.923-1.422 2.744-4.064 3.635-4.064.308 0 .515.103.617.373v.406c-.207.645-1.098 2.372-2.334 3.558-.582-.509-1.301-.509-1.918-.273zm1.028-5.012l-2.438 5.827c-.789.914-1.406 1.795-1.92 2.981-.103.676-.585 3.048-.585 3.59 0 .646.204 1.189.482 1.189.72 0 .926-1.866 2.538-6.439.823.611 1.614.88 2.231.88.995 0 3.224-.269 5.251-2.743.685-.779.582-1.051.582-1.186 0 0-.104-.136-.206-.136s-.172.27-.274.27c-.206.406-1.03 1.73-2.437 1.73-.513 0-.891-.136-1.302-.408 1.508-1.456 3.43-3.964 3.43-5.791 0-1.085-.514-1.593-1.027-1.593-.997 0-3.33 2.642-4.017 3.42.376-.778.478-.913.582-1.32.309-.507.309-.644.517-.916.993-1.997 1.097-3.421 2.434-4.505l.106-.135c0-.236-.415-.373-.723-.373-.824 0-1.098.645-1.817 1.967-2.333 4.233-4.84 5.96-5.149 7.384v.27l.104.136c.103 0 .103-.136.411-.406l3.227-3.693zm-12.01 4.369c0-2.37 3.121-4.605 4.527-4.605.102 0 .513 0 .513.371 0 .813-1.61 2.644-2.23 3.183-.512.645-1.405 1.56-2.228 1.831h-.274c-.207-.137-.309-.51-.309-.78zm6.552-5.825c.102-.103.102-.103.206-.238.103-.136.309-.27.309-.676 0-.408-.413-.918-1.028-.918-1.1 0-3.33 1.459-4.325 2.372-.722.68-2.849 2.643-2.849 5.015 0 1.05.309 3.285 1.236 3.285.687 0 2.403-2.1 2.918-2.608.309-.407.309-.542.617-.813.205-.27.309-.373.687-.913-.207.643-.31.778-.378 1.049-.413 1.05-.515 1.863-.515 2.372 0 1.014.686 1.288 1.097 1.288.617 0 1.408-.375 2.334-1.56 1.203-1.56 1.614-2.1 1.614-2.236 0-.135 0-.135-.102-.135-.105 0-.207.136-.31.136-.205.27-.31.27-.412.405-.102.137-.102.137-.276.27-.823.646-1.131.783-1.336.783-.206 0-.688-.273-.688-1.188 0-.644.414-1.32.79-2.372.513-.811.822-1.32.822-1.862 0-.373-.205-.916-.411-1.456zm-14.548-2.745c-.482 0-.79.135-1.203.51-.687.403-.789.403-1.406 1.456-4.84 7.112-7.79 7.927-8.167 7.927-.617 0-1.03.135-1.03-.815 0-1.049.824-4.064 3.844-7.247 1.095-1.186 3.945-3.83 5.455-4.1h.31c.1.134.307.134.307.407 0 .27-.41 1.05-.617 1.32.31-.134.31-.134.41-.27 1.1-.272 3.125-2.101 3.125-3.015 0-.543 0-2.404-1.306-2.404-1.918 0-6.279 2.775-7.993 4.369C2.438 47.062 0 52.212 0 54.989c0 .648 1.234 2.745 1.923 2.745 1.61 0 5.351-3.015 7.789-6.436l-1.51 4.064c-3.64 4.067-4.565 6.169-4.565 7.623 0 1.323.41 3.185.721 3.185.205 0 .411-.135.48-.407l2.746-6.605c2.232-3.253 4.048-5.353 5.764-7.217 1.098-1.32 1.304-1.591 1.99-2.37 2.643-3.05 3.433-3.828 4.05-3.828s.617.27.617.779c0 2.269-1.612 4.506-3.122 7.013-.206.405-2.23 3.42-2.642 3.42v-.407c0-.236 0-.506.103-.911.102-.138.102-.138.102-.41 1.099-3.691 2.129-2.743 2.129-3.826 0-.103-.102-.103-.207-.103-1.133 0-3.637 3.015-3.637 5.014 0 .779.205 1.053.513 1.422.209.238.38.509.791.509.823 0 2.54-1.795 3.02-2.338 1.818-2.1 4.36-6.2 4.36-8.708 0-1.319-1.032-3.556-1.82-3.556-1.304 0-4.428 3.153-8.682 8.3l2.61-5.793z" fill="#1775BC"/></g><defs><clipPath id="clip0_203_4651"><path fill="#fff" d="M0 0h160v120H0z"/></clipPath></defs></svg>