<svg width="160" height="120" fill="none" xmlns="http://www.w3.org/2000/svg"><g clip-path="url(#clip0_203_4670)"><mask id="a" style="mask-type:luminance" maskUnits="userSpaceOnUse" x="0" y="44" width="32" height="32"><path d="M0 44h31.615v32H0V44z" fill="#fff"/></mask><g mask="url(#a)"><path d="M25.344 76H6.035C2.702 76 0 73.308 0 69.99V50.006c0-3.318 2.702-6.008 6.035-6.008h19.309c3.333 0 6.035 2.69 6.035 6.008v19.985c0 3.318-2.702 6.008-6.035 6.008z" fill="#EC1C24"/></g><path d="M46.838 71.968h-.672v-4.887h-2.5v4.887h-.669V66.49h3.841v5.478zm4.735-2.915c0-.65-.122-1.148-.362-1.496-.243-.348-.58-.52-1.014-.52-.422 0-.754.172-.998.52-.242.348-.367.83-.373 1.446v.404c0 .63.122 1.124.367 1.483.245.361.582.54 1.01.54.432 0 .767-.17 1.003-.51.237-.34.359-.826.367-1.46v-.407zm.664.354c0 .537-.083 1.004-.25 1.405-.167.4-.404.706-.71.917-.307.21-.665.316-1.074.316a1.84 1.84 0 01-1.061-.318 2.07 2.07 0 01-.719-.909c-.17-.39-.258-.846-.263-1.363v-.394c0-.529.085-.994.255-1.397.169-.404.41-.713.719-.928.31-.214.664-.321 1.063-.321.406 0 .763.105 1.075.318.31.212.548.519.715.921.167.402.25.872.25 1.407v.346zm1.957-.174h1.201c.356 0 .63-.09.821-.273.191-.182.286-.445.286-.79 0-.326-.095-.588-.286-.784-.19-.196-.452-.297-.782-.305h-1.24v2.152zm0 .591v2.144h-.67V66.49h1.871c.555 0 .988.154 1.304.459.314.306.47.712.47 1.216 0 .532-.152.94-.46 1.228-.308.287-.748.431-1.322.431h-1.193zm7.616-2.743h-1.63v4.887h-.663v-4.887H57.89v-.59h3.92v.59zm1.64 2.864h1.724l-.863-2.564-.862 2.564zm1.922.59h-2.125l-.476 1.433h-.69l1.936-5.478h.586l1.939 5.478h-.687l-.483-1.434zm6.029-4.045v5.478h-.668v-4.887h-1.818l-.09 2.173c-.035.728-.104 1.276-.208 1.641-.103.368-.255.637-.454.808-.199.173-.467.26-.8.265h-.22v-.589l.14-.008c.215-.017.381-.094.498-.228.116-.134.203-.348.263-.642.061-.294.105-.744.13-1.354l.105-2.657H71.4zm4.215 2.743h1.201c.358 0 .632-.09.822-.273.19-.182.285-.445.285-.79 0-.326-.095-.588-.285-.784-.19-.196-.451-.297-.783-.305h-1.24v2.152zm0 .591v2.144h-.667V66.49h1.868c.555 0 .99.154 1.304.459.315.306.472.712.472 1.216 0 .532-.154.94-.46 1.228-.308.287-.75.431-1.322.431h-1.195zm7.349-.771c0-.65-.12-1.148-.362-1.496-.241-.348-.578-.52-1.012-.52a1.15 1.15 0 00-.998.52c-.242.348-.367.83-.374 1.446v.404c0 .63.122 1.124.368 1.483.243.361.58.54 1.01.54.431 0 .767-.17 1.002-.51.238-.34.36-.826.366-1.46v-.407zm.666.354c0 .537-.084 1.004-.252 1.405-.167.4-.403.706-.71.917-.305.21-.663.316-1.072.316-.4 0-.752-.107-1.062-.318a2.07 2.07 0 01-.718-.909c-.172-.39-.259-.846-.263-1.363v-.394c0-.529.085-.994.255-1.397.168-.404.407-.713.718-.928.31-.214.664-.321 1.064-.321.405 0 .763.105 1.074.318.308.212.547.519.714.921.168.402.252.872.252 1.407v.346zm5.016.824c-.062.58-.261 1.027-.593 1.341-.334.315-.776.473-1.33.473-.598 0-1.077-.233-1.438-.698-.361-.463-.542-1.084-.542-1.862v-.526c0-.51.085-.957.253-1.343.168-.387.406-.684.715-.891.308-.206.666-.31 1.072-.31.539 0 .97.163 1.296.487.324.324.513.774.567 1.35h-.672c-.059-.438-.184-.756-.378-.952-.194-.197-.465-.294-.813-.294-.427 0-.762.17-1.004.512-.243.342-.364.827-.364 1.456v.532c0 .596.115 1.07.344 1.42.23.352.552.528.964.528.373 0 .656-.091.855-.273.2-.182.33-.5.396-.95h.672zm4.926 0c-.063.58-.262 1.027-.594 1.341-.333.315-.776.473-1.328.473-.6 0-1.079-.233-1.44-.698-.36-.463-.542-1.084-.542-1.862v-.526c0-.51.085-.957.253-1.343a2.01 2.01 0 01.716-.891c.31-.206.665-.31 1.073-.31.537 0 .97.163 1.294.487.326.324.515.774.568 1.35H92.9c-.058-.438-.185-.756-.379-.952-.192-.197-.463-.294-.811-.294-.428 0-.762.17-1.006.512-.242.342-.364.827-.364 1.456v.532c0 .596.116 1.07.345 1.42.23.352.552.528.965.528.37 0 .656-.091.855-.273.198-.182.329-.5.395-.95h.672zm4.393-3.741h.669v5.478h-.67v-4.221l-2.495 4.221h-.672V66.49h.672v4.222l2.496-4.222zm5.18-1.367c0 .305-.096.55-.289.734-.189.186-.441.278-.752.278s-.563-.092-.755-.28c-.193-.184-.289-.429-.289-.732h.524c0 .176.045.315.134.414.088.097.216.146.386.146a.502.502 0 00.382-.145c.091-.099.136-.236.136-.415h.523zm.188 1.367h.668v5.478h-.668v-4.222l-2.496 4.222h-.672V66.49h.672v4.221l2.496-4.221zm5.9 3.741c-.062.58-.261 1.027-.593 1.341-.334.315-.776.473-1.33.473-.598 0-1.078-.233-1.438-.698-.361-.463-.541-1.084-.541-1.862v-.526c0-.51.084-.957.252-1.343a2 2 0 01.715-.891 1.89 1.89 0 011.073-.31c.537 0 .969.163 1.295.487.325.324.514.774.567 1.35h-.672c-.057-.438-.184-.756-.378-.952-.193-.197-.464-.294-.812-.294-.426 0-.763.17-1.004.512-.244.342-.365.827-.365 1.456v.532c0 .596.115 1.07.344 1.42.231.352.552.528.964.528.372 0 .658-.091.857-.273.197-.182.328-.5.394-.95h.672zm2.513-.723h-.615v2.46h-.669V66.49h.669v2.416h.521l1.772-2.416h.832l-1.935 2.657 2.078 2.821h-.818l-1.835-2.46zm6.677-.455c0-.65-.12-1.148-.361-1.496-.242-.348-.58-.52-1.013-.52a1.15 1.15 0 00-.998.52c-.242.348-.367.83-.375 1.446v.404c0 .63.123 1.124.367 1.483.246.361.584.54 1.012.54.432 0 .767-.17 1.003-.51.237-.34.359-.826.365-1.46v-.407zm.666.354c0 .537-.084 1.004-.252 1.405-.167.4-.403.706-.709.917-.306.21-.664.316-1.073.316-.399 0-.754-.107-1.062-.318a2.069 2.069 0 01-.718-.909c-.172-.39-.258-.846-.263-1.363v-.394c0-.529.085-.994.253-1.397.17-.404.409-.713.719-.928a1.827 1.827 0 011.065-.321c.406 0 .763.105 1.074.318.31.212.547.519.714.921.168.402.252.872.252 1.407v.346zm4.431-2.326h-2.444v4.887h-.672V66.49h3.116v.591zm4.108 1.972c0-.65-.121-1.148-.363-1.496-.24-.348-.579-.52-1.012-.52-.423 0-.755.172-.999.52-.241.348-.366.83-.374 1.446v.404c0 .63.122 1.124.368 1.483.245.361.582.54 1.012.54.431 0 .765-.17 1.002-.51.237-.34.359-.826.366-1.46v-.407zm.665.354c0 .537-.083 1.004-.252 1.405-.166.4-.404.706-.708.917a1.85 1.85 0 01-1.073.316c-.4 0-.754-.107-1.062-.318-.31-.212-.549-.516-.719-.909-.171-.39-.258-.846-.264-1.363v-.394c0-.529.085-.994.255-1.397.17-.404.409-.713.72-.928a1.823 1.823 0 011.063-.321c.406 0 .764.105 1.073.318.31.212.549.519.715.921.169.402.252.872.252 1.407v.346zm4.007 0v1.972h1.103c.311 0 .557-.088.736-.262.18-.174.27-.415.27-.721 0-.66-.332-.989-.996-.989h-1.113zm0-.58h1.008c.294 0 .527-.08.703-.237.175-.158.261-.374.261-.645 0-.302-.08-.52-.242-.658-.163-.137-.41-.206-.742-.206h-.988v1.745zm-.669 3.141V66.49h1.657c.55 0 .964.123 1.241.37.277.245.415.609.415 1.09 0 .257-.067.482-.2.68a1.345 1.345 0 01-.552.456c.274.083.491.241.65.473.16.231.239.51.239.83 0 .492-.148.878-.443 1.16-.295.28-.71.42-1.249.42h-1.758zm5.392-2.735h1.201c.358 0 .632-.09.821-.273.191-.182.286-.445.286-.79 0-.326-.095-.588-.286-.784-.189-.196-.45-.297-.782-.305h-1.24v2.152zm0 .591v2.144h-.669V66.49h1.87c.555 0 .99.154 1.304.459.315.306.472.712.472 1.216 0 .532-.154.94-.462 1.228-.308.287-.748.431-1.32.431h-1.195zm4.512.121h1.722l-.863-2.564-.859 2.564zm1.921.59h-2.123l-.477 1.433h-.689l1.935-5.478h.586l1.939 5.478h-.687l-.484-1.434zm5.618-4.045v5.478h-.672v-2.272a4.398 4.398 0 01-.664.157 4.807 4.807 0 01-.683.043c-.577 0-1.006-.136-1.286-.406-.283-.271-.427-.686-.433-1.243V66.49h.672v1.739c.001.382.083.656.242.824.159.168.426.252.805.252.443 0 .89-.067 1.347-.203V66.49h.672zm2.371 3.455h1.724l-.865-2.564-.859 2.564zm1.921.59h-2.122l-.478 1.433h-.689l1.935-5.478h.586l1.939 5.478h-.685l-.486-1.434z" fill="#231F20"/><path d="M40.149 47.797h2.459l3.074 9.21 3.102-9.21h2.459l2.224 13.202h-2.44l-1.424-8.337-2.816 8.337h-2.226l-2.792-8.337-1.456 8.337h-2.46l2.296-13.202zm15.706 0h7.242v2.459h-4.735v2.388h4.735v2.414h-4.735v3.475h4.735v2.466h-7.242V47.797zm15.57 3.503l-2.904 7.338h5.8L71.426 51.3zm-1.296-3.503h2.55l4.267 10.841h1.477v4.336h-2.444V61h-9.125v1.975h-2.442v-4.336h1.467l4.25-10.841zm12.818 7.423v3.383h.634c1.049 0 1.756-.131 2.12-.395.364-.263.547-.646.547-1.15 0-.568-.215-1.014-.642-1.345-.428-.329-1.138-.493-2.134-.493h-.525zm0-5.027v2.783h.554c.614 0 1.071-.129 1.37-.386.3-.257.448-.607.448-1.05 0-.413-.142-.742-.425-.983-.284-.242-.715-.364-1.294-.364h-.653zM80.424 61V47.797h2.085c1.21 0 2.094.078 2.655.233.794.21 1.426.599 1.894 1.167.47.569.704 1.24.704 2.01 0 .503-.106.96-.32 1.369-.212.41-.56.795-1.04 1.154.805.377 1.394.848 1.766 1.413.373.565.56 1.234.56 2.007 0 .74-.193 1.418-.578 2.028a3.68 3.68 0 01-1.49 1.368c-.608.303-1.446.453-2.518.453h-3.718zm11.089-13.203h7.24v2.459H94.02v2.388h4.734v2.414H94.02v3.475h4.734v2.466h-7.24V47.797zm22.151 2.32l-1.766 1.676c-1.201-1.263-2.551-1.895-4.053-1.895-1.267 0-2.335.431-3.203 1.293-.867.863-1.3 1.926-1.3 3.19 0 .88.191 1.663.576 2.344.384.684.928 1.22 1.631 1.608.702.39 1.483.584 2.341.584.733 0 1.402-.135 2.008-.408.608-.272 1.274-.768 2-1.487l1.712 1.777c-.98.952-1.906 1.613-2.777 1.98-.871.369-1.867.553-2.984.553-2.061 0-3.75-.652-5.062-1.952-1.314-1.302-1.97-2.97-1.97-5.003 0-1.318.299-2.488.897-3.51.598-1.023 1.455-1.845 2.569-2.468a7.27 7.27 0 013.602-.934c1.094 0 2.146.23 3.16.69a7.542 7.542 0 012.619 1.962zm1.272-2.32h7.329v2.478h-2.417v10.724h-2.559V50.275h-2.353v-2.478zm9.421 0h2.56v4.981h4.426v-4.981h2.552v13.202h-2.552V55.21h-4.426V61h-2.56V47.796zm22.592 0v13.202h-2.523v-8.265l-4.947 8.265h-2.195V47.797h2.524v8.535l5.014-8.535h2.127z" fill="#EC1C24"/><mask id="b" style="mask-type:luminance" maskUnits="userSpaceOnUse" x="150" y="47" width="11" height="15"><path d="M150.273 47.679h9.728v13.488h-9.728V47.679z" fill="#fff"/></mask><g mask="url(#b)"><path d="M150.366 47.797h2.552v4.552l3.601-4.552h3.031l-4.632 5.893 5.081 7.31h-2.993l-4.088-5.867V61h-2.552V47.797z" fill="#EC1C24"/></g><path d="M4.574 54.727h4.03l2.036 7.003h.027l2.132-7.002h3.88V65.27h-2.504l.041-8.103h-.027L11.74 65.27H9.387L7.05 57.167h-.027l.055 8.103H4.574V54.728zm17.004 8.553h.866c.427 0 1.031-.06 1.376-.316.37-.27.427-.63.427-.903 0-.482-.165-.858-.606-1.068-.137-.06-.467-.198-1.279-.198h-.784v2.486zm0-4.38h.715c.385 0 .935-.016 1.306-.302.29-.211.4-.482.4-.815 0-.285-.07-.54-.275-.737-.207-.195-.577-.33-1.253-.33h-.893V58.9zm-2.558-4.172h4.415c.481 0 1.664.044 2.448.841.454.468.673 1.087.673 1.868 0 .738-.22 1.206-.397 1.477-.318.468-.826.797-1.295.948v.03c.785.136 1.941.649 1.941 2.38 0 1.28-.606 1.957-1.031 2.29-.799.615-1.995.708-2.71.708H19.02V54.728z" fill="#fff"/></g><defs><clipPath id="clip0_203_4670"><path fill="#fff" d="M0 0h160v120H0z"/></clipPath></defs></svg>