<svg width="160" height="120" fill="none" xmlns="http://www.w3.org/2000/svg"><path d="M0 79h160V41H0v38z" fill="#63358B"/><path d="M13.81 51.742l-.817 2.492v-7.168h-2v11.327H13.3l1.878-5.195.919-2.783v7.978h2.021V47.066h-2.47l-1.838 4.676zm10.7 6.651h2.287V47.066H24.51v4.854h-2.553v-4.854h-2.245v11.327h2.245v-4.855h2.553v4.855zm6.166-4.855h2.553v4.855h2.287V47.066h-2.287v4.854h-2.553v-4.854h-2.245v11.327h2.245v-4.855z" fill="#fff"/><mask id="a" style="mask-type:luminance" maskUnits="userSpaceOnUse" x="0" y="41" width="160" height="38"><path d="M0 41h160v38H0V41z" fill="#fff"/></mask><g mask="url(#a)"><path d="M40.376 46.936c-2.206 0-3.41 1.036-3.41 2.848v5.89c0 1.812 1.204 2.848 3.41 2.848 2.205 0 3.41-1.036 3.41-2.848v-5.89c0-1.812-1.205-2.848-3.41-2.848zm1.163 8.851c0 .81-.449 1.116-1.163 1.116-.715 0-1.164-.307-1.164-1.116v-6.116c0-.81.449-1.117 1.164-1.117.714 0 1.163.307 1.163 1.117v6.116zm10.639-1.003c0-1.197-.47-2.055-1.674-2.427 1-.372 1.449-1.117 1.449-2.282v-.404c0-1.748-1-2.605-3.328-2.605h-3.39v11.327h3.533c2.246 0 3.41-.94 3.41-2.687v-.922zm-4.697-6.1h1.083c.796 0 1.143.356 1.143 1.165v.63c0 .907-.51 1.198-1.347 1.198h-.879v-2.993zm2.45 6.974c0 .841-.407 1.116-1.163 1.116H47.48v-3.479h1.001c1.021 0 1.45.324 1.45 1.376v.987zm5.453.68h2.756l.388 2.055h2.267l-2.287-11.327H55.22l-2.286 11.327h2.062l.388-2.055zm1.368-7.266l1.082 5.728H55.67l1.082-5.728zm10.965 10.841h2.185v-3.107h-.98v-9.74h-2.287v9.708h-2.553v-9.709h-2.245v11.327h5.88v1.521zm7.596-6.714l.919-2.784v7.978h2.021V47.066h-2.47l-1.838 4.676-.817 2.492v-7.168h-2v11.327h2.307l1.878-5.194zm-44.719 9.896h-.837v-1.36h-2.205v1.36h-.837c-2.247 0-3.349.987-3.349 2.8v3.09c0 1.812 1.102 2.8 3.349 2.8h.837v1.278h2.205v-1.279h.837c2.246 0 3.348-.987 3.348-2.799v-3.09c0-1.813-1.102-2.8-3.348-2.8zm-3.042 7.136h-.837c-.715 0-1.123-.324-1.123-1.133v-3.317c0-.809.408-1.116 1.123-1.116h.837v5.566zm4.165-1.133c0 .81-.409 1.133-1.123 1.133h-.837v-5.566h.837c.714 0 1.123.307 1.123 1.116v3.317zm5.432-7.361l-2.287 11.327h2.062l.388-2.055h2.757l.388 2.055h2.266l-2.287-11.327H37.15zm.449 7.734l1.082-5.728 1.083 5.728h-2.165zm9.475-7.734h-3.308v11.327h2.246v-4.256h1.062c2.246 0 3.348-.987 3.348-2.8v-1.472c0-1.812-1.102-2.8-3.348-2.8zm1.102 4.384c0 .81-.388 1.068-1.102 1.068H46.01v-3.834h1.062c.714 0 1.102.259 1.102 1.068v1.698zm8.045 3.658l-1.653-8.043h-3.124v11.328h1.96v-8.01l1.674 8.01h2.124l1.551-8.123v8.123h2.124V61.736h-3.124l-1.531 8.043zm7.985-8.042l-2.287 11.327h2.062l.388-2.055h2.757l.387 2.055h2.266l-2.286-11.327h-3.287zm.449 7.734l1.082-5.728 1.082 5.728h-2.164zm11.353-7.734l-2.94 4.935v-4.935H70.82v11.327h2.246v-3.48l.694-1.035 2.185 4.514h2.307l-3.124-6.278 3.124-5.048h-2.246zm22.34-9.882h-2.552V47h-2.246v11.327h2.246v-4.854h2.552v4.854h2.287V47h-2.287v4.855zm11.006 6.472V47h-2.287v4.855h-2.552V47h-2.246v11.327h2.246v-4.854h2.552v4.854h2.287zm3.492-2.055h2.756l.388 2.055h2.267L115.969 47h-3.287l-2.287 11.327h2.062l.388-2.055zm1.368-7.265l1.082 5.728h-2.164l1.082-5.728zm11.659 9.32V47h-3.389c-2.328 0-3.328.858-3.328 2.605v.89c0 1.166.469 1.926 1.47 2.298-1.123.372-1.491 1.23-1.491 2.411v1.748c0 .55-.02.955-.245 1.375h2.287c.123-.291.204-.469.204-1.392v-1.78c0-1.051.449-1.44 1.47-1.44h.776v4.612h2.246zm-3.124-6.23c-.837 0-1.347-.291-1.347-1.197v-1.117c0-.809.347-1.165 1.143-1.165h1.082v3.48h-.878zM93.549 63.29h2.348v9.708h2.246v-9.709h2.348v-1.618h-6.942v1.618zm7.922 9.709h6.126v-1.618h-3.88v-3.317h3.083v-1.618h-3.083V63.29h3.88v-1.618h-6.126V73zm10.823-11.327h-3.308V73h2.245v-4.256h1.063c2.246 0 3.348-.987 3.348-2.8v-1.471c0-1.813-1.102-2.8-3.348-2.8zm1.102 4.385c0 .81-.388 1.068-1.102 1.068h-1.063V63.29h1.063c.714 0 1.102.26 1.102 1.068v1.7zm4.982-4.385L116.092 73h2.062l.388-2.055h2.757l.387 2.055h2.267l-2.287-11.327h-3.288zm.45 7.735l1.082-5.728 1.082 5.728h-2.164zm6.167 3.592h2.246V63.29h2.552V73h2.287V61.672h-7.085V73zm11.537-6.65l-.817 2.491v-7.168h-2.001V73h2.307l1.878-5.194.919-2.783V73h2.022V61.672h-2.471l-1.837 4.677zm9.086-4.677c-2.328 0-3.328.858-3.328 2.605v.89c0 1.165.47 1.926 1.47 2.298-1.123.372-1.49 1.23-1.49 2.411v1.748c0 .55-.021.954-.245 1.375h2.286c.123-.291.204-.47.204-1.391v-1.78c0-1.052.45-1.44 1.47-1.44h.776v4.611h2.246V61.672h-3.389zm1.143 5.097h-.877c-.838 0-1.348-.291-1.348-1.197v-1.117c0-.809.347-1.165 1.144-1.165h1.081v3.48zm-60.774 6.295c-2.937 0-5.319-2.204-5.319-4.922V51.858c0-2.719 2.382-4.922 5.32-4.922 2.937 0 5.318 2.203 5.318 4.922v16.284c0 2.718-2.381 4.922-5.319 4.922z" fill="#fff"/><path d="M89.255 60v-8.142c0-1.67-1.463-3.024-3.268-3.024-1.804 0-3.267 1.354-3.267 3.024V60h6.535z" fill="#63358B"/></g></svg>