<svg width="160" height="120" fill="none" xmlns="http://www.w3.org/2000/svg"><g clip-path="url(#clip0_203_5688)"><path d="M133.947 100.161H25.087v-.272h108.86v.272zm.001 19.839H25.088v-.272h108.86V120z" fill="#393536"/><mask id="a" style="mask-type:luminance" maskUnits="userSpaceOnUse" x="73" y="24" width="14" height="14"><path d="M84.165 25.905a6.437 6.437 0 00-9.097.465 6.457 6.457 0 00.474 9.107 6.434 6.434 0 009.094-.467 6.456 6.456 0 00-.471-9.105z" fill="#fff"/></mask><g mask="url(#a)"><path d="M84.165 25.905a6.437 6.437 0 00-9.097.465 6.457 6.457 0 00.474 9.107 6.434 6.434 0 009.094-.467 6.456 6.456 0 00-.471-9.105z" fill="url(#paint0_radial_203_5688)"/></g><mask id="b" style="mask-type:luminance" maskUnits="userSpaceOnUse" x="51" y="3" width="31" height="29"><path d="M61.417 6.17a30.788 30.788 0 00-9.703 12.337c2.547.629 10.174 3.114 13.672 12.572 1.053-.343 3.32-1.667 4.895-6.777 2.11-6.843 6.114-13.424 11.306-15.634-5.178-5.129-12-6.336-20.17-2.498z" fill="#fff"/></mask><g mask="url(#b)"><path d="M61.417 6.17a30.788 30.788 0 00-9.703 12.337c2.547.629 10.174 3.114 13.672 12.572 1.053-.343 3.32-1.667 4.895-6.777 2.11-6.843 6.114-13.424 11.306-15.634-5.178-5.129-12-6.336-20.17-2.498z" fill="url(#paint1_linear_203_5688)"/></g><mask id="c" style="mask-type:luminance" maskUnits="userSpaceOnUse" x="61" y="0" width="43" height="17"><path d="M103.458 11.119l.002-.002C97.838 4.326 89.35 0 79.853 0a30.484 30.484 0 00-18.437 6.17C72.76.842 81.503 5.24 86.856 16.351c8.528 1.53 14.32-2.718 16.602-5.232z" fill="#fff"/></mask><g mask="url(#c)"><path d="M103.458 11.119l.002-.002C97.838 4.326 89.35 0 79.853 0a30.484 30.484 0 00-18.437 6.17C72.76.842 81.503 5.24 86.856 16.351c8.528 1.53 14.32-2.718 16.602-5.232z" fill="url(#paint2_linear_203_5688)"/></g><mask id="d" style="mask-type:luminance" maskUnits="userSpaceOnUse" x="59" y="40" width="29" height="22"><path d="M67.868 58.935a30.715 30.715 0 0015.52 2.245c-.73-2.524-2.393-10.38 4.037-18.142-.822-.741-3.102-2.046-8.308-.856-6.973 1.59-14.667 1.41-19.174-1.988-1.847 7.054.52 13.574 7.925 18.74z" fill="#fff"/></mask><g mask="url(#d)"><path d="M67.868 58.935a30.715 30.715 0 0015.52 2.245c-.73-2.524-2.393-10.38 4.037-18.142-.822-.741-3.102-2.046-8.308-.856-6.973 1.59-14.667 1.41-19.174-1.988-1.847 7.054.52 13.574 7.925 18.74z" fill="url(#paint3_linear_203_5688)"/></g><mask id="e" style="mask-type:luminance" maskUnits="userSpaceOnUse" x="49" y="20" width="19" height="39"><path d="M51.126 20.002h-.003c-3.063 8.27-2.56 17.794 2.189 26.03a30.524 30.524 0 0014.556 12.902C57.587 51.76 57.018 41.98 63.95 31.783c-2.94-8.161-9.51-11.06-12.825-11.781z" fill="#fff"/></mask><g mask="url(#e)"><path d="M51.126 20.002h-.003c-3.063 8.27-2.56 17.794 2.189 26.03a30.524 30.524 0 0014.556 12.902C57.587 51.76 57.018 41.98 63.95 31.783c-2.94-8.161-9.51-11.06-12.825-11.781z" fill="url(#paint4_linear_203_5688)"/></g><mask id="f" style="mask-type:luminance" maskUnits="userSpaceOnUse" x="86" y="12" width="25" height="32"><path d="M110.274 26.959a30.83 30.83 0 00-5.819-14.583c-1.818 1.895-7.78 7.265-17.709 5.57-.23 1.085-.219 3.714 3.415 7.634 4.862 5.251 8.552 12.014 7.867 17.621 7.024-1.925 11.48-7.237 12.246-16.242z" fill="#fff"/></mask><g mask="url(#f)"><path d="M110.274 26.959a30.83 30.83 0 00-5.819-14.583c-1.818 1.895-7.78 7.265-17.709 5.57-.23 1.085-.219 3.714 3.415 7.634 4.862 5.251 8.552 12.014 7.867 17.621 7.024-1.925 11.48-7.237 12.246-16.242z" fill="url(#paint5_linear_203_5688)"/></g><mask id="g" style="mask-type:luminance" maskUnits="userSpaceOnUse" x="84" y="26" width="27" height="35"><path d="M84.974 60.942l.001.002c8.684-1.479 16.67-6.677 21.419-14.913a30.588 30.588 0 003.88-19.073c-1.063 12.501-9.236 17.885-21.523 16.971-5.589 6.63-4.81 13.777-3.777 17.013z" fill="#fff"/></mask><g mask="url(#g)"><path d="M84.974 60.942l.001.002c8.684-1.479 16.67-6.677 21.419-14.913a30.588 30.588 0 003.88-19.073c-1.063 12.501-9.236 17.885-21.523 16.971-5.589 6.63-4.81 13.777-3.777 17.013z" fill="url(#paint6_linear_203_5688)"/></g><path d="M38.818 80.625h1.434c.793 0 1.411-.154 1.855-.464.443-.309.664-.79.664-1.445 0-.688-.216-1.176-.647-1.462-.432-.286-1.05-.43-1.854-.43h-1.452v3.801zm.053 6.147h-2.624V74.513h4.215c.77 0 1.463.082 2.082.245.618.164 1.145.412 1.583.745.437.332.772.759 1.005 1.278.233.52.35 1.13.35 1.83 0 .69-.12 1.302-.358 1.84-.24.537-.586.989-1.041 1.357-.455.367-1.009.647-1.662.84-.653.193-1.387.29-2.203.29H38.87v3.834zM53.51 84.67c.443 0 .852-.081 1.225-.245.373-.163.693-.411.962-.744.268-.333.475-.75.62-1.252.146-.502.22-1.098.22-1.786 0-1.39-.292-2.409-.875-3.057-.583-.648-1.353-.972-2.309-.972-.432 0-.837.082-1.216.246a2.654 2.654 0 00-.988.744c-.28.333-.498.753-.656 1.26-.157.509-.236 1.101-.236 1.779 0 .688.085 1.284.254 1.786.169.502.399.92.69 1.252.292.333.636.581 1.033.744.396.164.822.245 1.277.245zm-.087 2.312c-.886 0-1.694-.137-2.422-.411a5.11 5.11 0 01-1.88-1.217c-.526-.537-.93-1.2-1.217-1.988-.285-.788-.428-1.696-.428-2.723 0-1.028.149-1.936.446-2.724.297-.788.708-1.45 1.233-1.988a5.136 5.136 0 011.863-1.217 6.478 6.478 0 012.335-.411c.945 0 1.787.146 2.528.438.74.291 1.364.709 1.871 1.251.508.544.895 1.209 1.163 1.997s.402 1.673.402 2.654c0 1.085-.148 2.028-.445 2.828-.298.8-.712 1.46-1.242 1.979a5 5 0 01-1.872 1.156 7.027 7.027 0 01-2.335.376zm17.649-.695a9.544 9.544 0 01-.534.243c-.192.082-.42.157-.682.226-.262.07-.566.125-.91.165-.343.04-.737.061-1.18.061-.933 0-1.782-.134-2.545-.403a5.354 5.354 0 01-1.96-1.182c-.541-.519-.96-1.164-1.259-1.935-.297-.77-.446-1.658-.446-2.662 0-1.05.15-1.982.447-2.793.297-.812.725-1.492 1.285-2.04a5.437 5.437 0 012.038-1.244c.799-.28 1.7-.42 2.703-.42.664 0 1.261.058 1.792.175.53.117.96.25 1.286.402l-.578 2.207a6.474 6.474 0 00-1.137-.28 6.8 6.8 0 00-.997-.087c-.606 0-1.157.075-1.652.228a3.33 3.33 0 00-1.277.71 3.245 3.245 0 00-.831 1.23c-.199.497-.297 1.085-.297 1.763 0 1.3.364 2.276 1.093 2.931.728.656 1.711.983 2.947.983.28 0 .618-.037 1.014-.113a5.386 5.386 0 001.155-.36l.525 2.195zm5.981-4.506h3.271l-1.626-5.149-1.644 5.15zm3.988 2.312h-4.705l-.874 2.68h-2.589l4.18-12.26h3.411l4.128 12.26h-2.676l-.875-2.68zm9.516 2.679h-2.624V76.93h-3.48v-2.417h9.567v2.417h-3.463v9.842zm10.722-2.102c.443 0 .851-.081 1.224-.245.374-.163.694-.411.962-.744s.475-.75.621-1.252c.146-.502.219-1.098.219-1.786 0-1.39-.291-2.409-.875-3.057-.583-.648-1.353-.972-2.308-.972-.432 0-.837.082-1.216.246a2.653 2.653 0 00-.989.744c-.28.333-.498.753-.655 1.26-.158.509-.236 1.101-.236 1.779 0 .688.084 1.284.253 1.786.17.502.4.92.691 1.252.291.333.635.581 1.032.744.396.164.822.245 1.277.245zm-.088 2.312c-.885 0-1.693-.137-2.422-.411a5.105 5.105 0 01-1.88-1.217c-.525-.537-.93-1.2-1.216-1.988-.286-.788-.429-1.696-.429-2.723 0-1.028.15-1.936.447-2.724.297-.788.708-1.45 1.233-1.988a5.135 5.135 0 011.862-1.217 6.484 6.484 0 012.336-.411c.944 0 1.786.146 2.527.438a5.06 5.06 0 011.872 1.251c.507.544.894 1.209 1.163 1.997.268.788.402 1.673.402 2.654 0 1.085-.149 2.028-.446 2.828-.297.8-.711 1.46-1.242 1.979a5.003 5.003 0 01-1.871 1.156 7.035 7.035 0 01-2.336.376zm22.267-.21h-2.641l-.665-8.143-2.519 8.143h-2.501l-2.484-8.108-.664 8.108h-2.641l1.224-12.259h3.131l2.763 9.247 2.729-9.247h3.026l1.242 12.26zm-95.746 26.511h-.605v-6.071h-2.034v-.558h4.672v.558h-2.033v6.071zm6.734 0h-3.632v-6.629h3.632v.558H31.42v2.368h2.78v.559h-2.78v2.585h3.026v.559zm5.259 0l-1.882-3.012-1.892 3.012h-.737l2.25-3.457-2.033-3.172h.738l1.674 2.756 1.74-2.756h.691l-2.034 3.153 2.261 3.476h-.776zm6.735 0h-.596v-3.135h-3.727v3.135h-.605v-6.629h.605v2.936h3.727v-2.936h.596v6.629zm4.398-.464c.353 0 .667-.066.941-.199a1.86 1.86 0 00.69-.573c.187-.249.327-.549.422-.9.094-.35.142-.743.142-1.179 0-.435-.046-.828-.138-1.179a2.485 2.485 0 00-.42-.895 1.93 1.93 0 00-.715-.573 2.345 2.345 0 00-1.007-.203c-.347 0-.658.068-.932.203a1.955 1.955 0 00-.695.578c-.19.249-.334.549-.435.9-.101.35-.152.74-.152 1.169 0 .43.05.818.147 1.165.098.348.245.648.44.9.195.253.437.447.724.583.286.135.616.203.988.203zm-.057.559c-.46 0-.87-.084-1.23-.251a2.524 2.524 0 01-.907-.706 3.134 3.134 0 01-.558-1.079 4.728 4.728 0 01-.19-1.374c0-.498.067-.956.199-1.373.132-.417.323-.777.572-1.079.25-.304.55-.539.904-.706a2.731 2.731 0 011.182-.251c.492 0 .92.088 1.286.265.366.177.67.418.913.725.243.306.422.667.54 1.084.116.417.174.862.174 1.335 0 .531-.068 1.008-.203 1.43-.136.423-.33.782-.582 1.075a2.503 2.503 0 01-.913.673 2.945 2.945 0 01-1.187.232zm9.034-.094h-.597v-6.071h-2.62a56.677 56.677 0 01-.09 2.746c-.047.771-.132 1.408-.255 1.913-.123.506-.295.88-.515 1.123a1.1 1.1 0 01-.852.364.735.735 0 01-.165-.014 3.81 3.81 0 01-.137-.033v-.578a.51.51 0 00.122.019h.114c.19 0 .353-.083.492-.251.139-.167.255-.448.35-.843.095-.394.167-.92.218-1.576.05-.657.081-1.475.094-2.453l.02-.976h3.82v6.63zm4.398-.465c.353 0 .666-.066.94-.199a1.86 1.86 0 00.691-.573 2.62 2.62 0 00.421-.9c.095-.35.142-.743.142-1.179a4.7 4.7 0 00-.137-1.179 2.487 2.487 0 00-.421-.895 1.929 1.929 0 00-.714-.573 2.343 2.343 0 00-1.007-.203c-.347 0-.658.068-.932.203a1.955 1.955 0 00-.695.578c-.19.249-.335.549-.435.9-.102.35-.152.74-.152 1.169 0 .43.049.818.147 1.165.097.348.244.648.44.9.195.253.436.447.723.583a2.3 2.3 0 00.989.203zm-.057.559c-.46 0-.87-.084-1.23-.251a2.525 2.525 0 01-.908-.706 3.136 3.136 0 01-.558-1.079 4.724 4.724 0 01-.189-1.374c0-.498.066-.956.198-1.373.133-.417.324-.777.573-1.079.249-.304.55-.539.903-.706a2.73 2.73 0 011.183-.251c.491 0 .92.088 1.286.265.365.177.67.418.913.725.242.306.422.667.539 1.084.116.417.175.862.175 1.335 0 .531-.068 1.008-.204 1.43a3.048 3.048 0 01-.581 1.075 2.502 2.502 0 01-.913.673 2.943 2.943 0 01-1.187.232zm4.947-.095h-.606v-6.629h3.453v.558h-2.847v6.071zm8.825 0h-.606v-5.72l-3.632 5.72h-.68v-6.629h.605v5.73l3.632-5.73h.68v6.629zm6.678 0H84v-5.72l-3.632 5.72h-.681v-6.629h.605v5.73l3.632-5.73h.681v6.629zm3.574-.832c.234.126.491.219.772.278.28.06.53.09.752.09.353 0 .646-.038.88-.113.233-.076.417-.178.553-.307.135-.129.231-.278.288-.448a1.68 1.68 0 00.085-.538c0-.384-.137-.691-.411-.92-.274-.23-.686-.345-1.234-.345h-.757v-.559h.596c.504 0 .895-.108 1.173-.326.277-.218.416-.522.416-.914 0-.366-.117-.663-.35-.89-.234-.228-.606-.341-1.116-.341a4.4 4.4 0 00-.715.061 3.552 3.552 0 00-.799.242l-.132-.54a4.473 4.473 0 01.851-.256c.132-.025.268-.043.407-.052.138-.01.287-.014.444-.014.31 0 .59.032.842.095s.468.164.648.303c.18.139.319.318.416.536.098.218.147.479.147.782 0 .19-.032.367-.095.531a1.59 1.59 0 01-.26.446 1.62 1.62 0 01-.397.341c-.155.095-.32.164-.497.209v.028c.252.032.472.096.658.194.186.098.339.218.458.359.12.142.209.298.265.469.057.17.085.346.085.529 0 .354-.056.656-.17.909a1.604 1.604 0 01-.482.62c-.208.16-.459.279-.752.354-.293.076-.62.114-.979.114-.34 0-.66-.032-.956-.095a2.281 2.281 0 01-.766-.302l.133-.53zm9.28.273v-5.511h-2.516a13.184 13.184 0 00-.019.445v.113c-.02.436-.043.884-.071 1.345-.029.461-.074.909-.137 1.345a10.88 10.88 0 01-.251 1.236 4.86 4.86 0 01-.393 1.027h3.387zm1.371 2.065h-.605v-1.506H93.43v1.506h-.596v-2.065h.624c.196-.34.35-.721.464-1.141.113-.42.202-.866.265-1.34.063-.473.105-.963.127-1.468.023-.505.04-1.013.052-1.525l.02-.596h3.67v6.07h.775v2.065zm3.812-1.97c.353 0 .667-.066.941-.199.275-.133.504-.323.691-.573.185-.249.326-.549.42-.9.095-.35.142-.743.142-1.179 0-.435-.045-.828-.137-1.179a2.482 2.482 0 00-.421-.895 1.926 1.926 0 00-.714-.573 2.344 2.344 0 00-1.007-.203c-.347 0-.658.068-.932.203a1.955 1.955 0 00-.695.578 2.713 2.713 0 00-.435.9c-.101.35-.151.74-.151 1.169 0 .43.048.818.146 1.165.098.348.244.648.44.9.195.253.436.447.724.583.286.135.616.203.988.203zm-.057.559c-.46 0-.87-.084-1.23-.251a2.537 2.537 0 01-.908-.706 3.156 3.156 0 01-.557-1.079 4.728 4.728 0 01-.19-1.374c0-.498.067-.956.199-1.373a3.19 3.19 0 01.572-1.079c.249-.304.55-.539.903-.706a2.737 2.737 0 011.183-.251c.492 0 .92.088 1.286.265.366.177.67.418.913.725.243.306.422.667.539 1.084.117.417.175.862.175 1.335 0 .531-.068 1.008-.203 1.43-.136.423-.33.782-.582 1.075a2.503 2.503 0 01-.913.673 2.944 2.944 0 01-1.187.232zm4.947-3.192h.965c.334 0 .619-.038.856-.113.236-.076.428-.183.577-.322.148-.139.255-.3.321-.483.067-.183.1-.385.1-.606 0-.228-.033-.43-.1-.607a1.112 1.112 0 00-.317-.454 1.458 1.458 0 00-.567-.289 3.164 3.164 0 00-.851-.1h-.984v2.974zm0 3.097h-.606v-6.629h1.637c.365 0 .698.036.998.109.299.072.556.189.771.35.214.161.378.368.491.62.114.253.171.559.171.919 0 .682-.218 1.201-.653 1.558-.435.357-1.05.535-1.844.535h-.965v2.538zm7.387-.464c.353 0 .667-.066.942-.199.274-.133.504-.323.69-.573.186-.249.326-.549.421-.9.095-.35.142-.743.142-1.179a4.7 4.7 0 00-.137-1.179 2.498 2.498 0 00-.421-.895 1.934 1.934 0 00-.714-.573 2.346 2.346 0 00-1.008-.203c-.346 0-.657.068-.931.203a1.958 1.958 0 00-.696.578 2.713 2.713 0 00-.435.9c-.101.35-.151.74-.151 1.169 0 .43.049.818.146 1.165.098.348.245.648.44.9.196.253.437.447.724.583.287.135.616.203.988.203zm-.057.559c-.46 0-.87-.084-1.229-.251a2.52 2.52 0 01-.908-.706 3.13 3.13 0 01-.558-1.079 4.735 4.735 0 01-.189-1.374c0-.498.066-.956.198-1.373a3.19 3.19 0 01.573-1.079c.249-.304.55-.539.903-.706a2.73 2.73 0 011.182-.251c.492 0 .921.088 1.287.265.365.177.67.418.912.725.243.306.423.667.54 1.084.116.417.175.862.175 1.335 0 .531-.068 1.008-.204 1.43a3.034 3.034 0 01-.582 1.075 2.5 2.5 0 01-.912.673 2.949 2.949 0 01-1.188.232zm4.947-.654h1.05c.599 0 1.05-.113 1.353-.34.303-.228.454-.559.454-.995 0-.846-.539-1.269-1.618-1.269h-1.239v2.604zm0-3.115h1.088c.303 0 .56-.03.771-.09.211-.06.38-.144.506-.251a.933.933 0 00.274-.384c.057-.148.086-.308.086-.478 0-.423-.138-.728-.412-.914-.274-.186-.683-.28-1.225-.28h-1.088v2.397zm-.605 3.674v-6.629h1.788c.725 0 1.264.143 1.617.431.353.287.53.699.53 1.236 0 .435-.106.773-.317 1.013-.211.24-.525.404-.941.492v.019c.233.019.438.073.615.161.176.089.324.199.444.332.12.132.211.284.275.454.062.171.094.348.094.531 0 .265-.044.518-.132.757-.089.24-.229.449-.421.625a2.08 2.08 0 01-.748.422c-.305.104-.676.156-1.111.156h-1.693zm6.129-.559h.691c.378 0 .693-.039.946-.118.252-.079.454-.189.605-.328.152-.139.259-.299.322-.48.063-.18.094-.375.094-.584 0-.216-.031-.41-.094-.585a1.042 1.042 0 00-.312-.446 1.488 1.488 0 00-.582-.285 3.454 3.454 0 00-.903-.1h-.767v2.926zm-.605.559v-6.629h.605v2.585h.786c.838 0 1.467.153 1.886.46.42.306.63.813.63 1.52 0 .378-.065.701-.194.966-.13.265-.31.478-.539.639a2.318 2.318 0 01-.823.35 4.685 4.685 0 01-1.046.109h-1.305zm8.607-3.258v-2.813h-1.333c-.265 0-.494.038-.686.114-.193.076-.35.179-.473.308a1.239 1.239 0 00-.275.454 1.717 1.717 0 00-.089.555c0 .435.145.775.435 1.018.29.243.681.364 1.173.364h1.248zm-1.192.559a.66.66 0 00-.43.142 1.656 1.656 0 00-.359.46c-.123.211-.271.489-.445.833s-.402.766-.686 1.264h-.719c.246-.404.451-.767.615-1.089.164-.322.309-.601.435-.838s.241-.432.346-.587c.104-.155.215-.267.335-.336a1.95 1.95 0 01-1.017-.63c-.255-.307-.383-.696-.383-1.17 0-.353.056-.655.166-.904.11-.25.265-.455.463-.616a1.86 1.86 0 01.724-.35 3.84 3.84 0 01.955-.109h1.797v6.629h-.605v-2.699h-1.192z" fill="#393536"/></g><defs><linearGradient id="paint1_linear_203_5688" x1="58.117" y1="26.352" x2="73.384" y2="2.873" gradientUnits="userSpaceOnUse"><stop stop-color="#5594D6"/><stop offset="1" stop-color="#1B2765"/></linearGradient><linearGradient id="paint2_linear_203_5688" x1="64.2" y1="-.727" x2="102.072" y2="14.555" gradientUnits="userSpaceOnUse"><stop stop-color="#5594D6"/><stop offset="1" stop-color="#1B2765"/></linearGradient><linearGradient id="paint3_linear_203_5688" x1="86.972" y1="51.704" x2="59.03" y2="50.242" gradientUnits="userSpaceOnUse"><stop stop-color="#5594D6"/><stop offset="1" stop-color="#1B2765"/></linearGradient><linearGradient id="paint4_linear_203_5688" x1="60.51" y1="59.969" x2="54.812" y2="19.482" gradientUnits="userSpaceOnUse"><stop stop-color="#5594D6"/><stop offset="1" stop-color="#1B2765"/></linearGradient><linearGradient id="paint5_linear_203_5688" x1="94.468" y1="14.007" x2="107.197" y2="38.958" gradientUnits="userSpaceOnUse"><stop stop-color="#5594D6"/><stop offset="1" stop-color="#1B2765"/></linearGradient><linearGradient id="paint6_linear_203_5688" x1="114.849" y1="32.821" x2="82.641" y2="57.953" gradientUnits="userSpaceOnUse"><stop stop-color="#5594D6"/><stop offset="1" stop-color="#1B2765"/></linearGradient><radialGradient id="paint0_radial_203_5688" cx="0" cy="0" r="1" gradientUnits="userSpaceOnUse" gradientTransform="matrix(9.06171 0 0 9.07318 77.79 27.1)"><stop stop-color="#5594D6"/><stop offset="1" stop-color="#1B2765"/></radialGradient><clipPath id="clip0_203_5688"><path fill="#fff" d="M0 0h160v120H0z"/></clipPath></defs></svg>