<svg width="160" height="120" fill="none" xmlns="http://www.w3.org/2000/svg"><g clip-path="url(#clip0_203_5760)"><path d="M106.07 11.385c15.161 15.066 15.289 39.418.279 54.333-15.009 14.915-39.49 14.804-54.674-.278a38.32 38.32 0 01-8.474-12.415A38.123 38.123 0 0143.05 23.6a38.314 38.314 0 018.346-12.5c15.009-14.915 39.498-14.804 54.674.277" fill="#E6E6E5"/><mask id="a" style="mask-type:luminance" maskUnits="userSpaceOnUse" x="40" y="-1" width="78" height="78"><path d="M106.07 11.385c15.161 15.066 15.289 39.418.279 54.333-15.009 14.915-39.49 14.804-54.674-.278a38.32 38.32 0 01-8.474-12.415A38.123 38.123 0 0143.05 23.6a38.314 38.314 0 018.346-12.5c15.009-14.915 39.498-14.804 54.674.277" fill="#fff"/></mask><g mask="url(#a)" fill="#4DC0EF"><path d="M88.22.062H69.15v77.232h19.07V.062z"/><path d="M57.96 4.644l-13.484 13.4L99.43 72.658l13.485-13.4L57.961 4.643z"/><path d="M117.584 29.162H39.865v18.952h77.719V29.162z"/><path d="M99.407 4.659L44.452 59.27l13.485 13.401 54.955-54.612-13.485-13.4z"/></g><path d="M80.72 35.745l-2.075-21.171V3.869s16.198 12.782 2.075 31.876z" fill="url(#paint0_linear_203_5760)"/><path d="M79.044 4.345l-.399-.476S94.524 16.477 81.12 35.19c8.139-14.907 1.037-26.88-2.075-30.845z" fill="url(#paint1_linear_203_5760)"/><path d="M88.38 31.068l10.293-12.37 5.745-5.71c0-.079 1.756 15.384-16.038 18.08z" fill="url(#paint2_linear_203_5760)"/><path d="M104.339 13.384v-.476s1.755 15.146-15.56 18c12.448-3.648 15.081-13.718 15.56-17.524z" fill="url(#paint3_linear_203_5760)"/><path d="M86.146 28.847l12.448-10.23 5.745-5.708c.08 0-15.512-1.745-18.193 15.938z" fill="url(#paint4_linear_203_5760)"/><path d="M103.94 12.988h.478s-15.24-1.744-18.113 15.463c3.59-12.37 13.804-14.971 17.635-15.463z" fill="url(#paint5_linear_203_5760)"/><path d="M88.38 45.895l10.293 12.37 5.745 5.71s1.756-15.463-16.038-18.08z" fill="url(#paint6_linear_203_5760)"/><path d="M104.339 63.499v.475s1.755-15.145-15.56-18c12.448 3.648 15.081 13.719 15.56 17.525z" fill="url(#paint7_linear_203_5760)"/><path d="M86.146 48.036l12.448 10.23 5.745 5.708c.079 0-15.512 1.745-18.193-15.938z" fill="url(#paint8_linear_203_5760)"/><path d="M103.94 63.974h.478s-15.24 1.745-18.113-15.462a20.978 20.978 0 006.453 10.394 21.19 21.19 0 0011.182 5.068z" fill="url(#paint9_linear_203_5760)"/><path d="M80.72 41.059L78.645 62.23v10.784c0-.063 16.198-12.845 2.075-31.955z" fill="url(#paint10_linear_203_5760)"/><path d="M79.044 72.459l-.399.476s15.879-12.608 2.474-31.322c8.139 14.908 1.037 26.881-2.075 30.846z" fill="url(#paint11_linear_203_5760)"/><path d="M81.198 36.3l21.305 2.063h10.852c-.08-.08-13.006-16.16-32.157-2.062z" fill="url(#paint12_linear_203_5760)"/><path d="M112.765 37.886l.478.397s-12.687-15.78-31.518-2.458c15.033-8.009 27.002-1.031 31.04 2.061z" fill="url(#paint13_linear_203_5760)"/><path d="M81.198 40.345l21.305-2.062h10.852c-.08 0-13.006 16.176-32.157 2.062z" fill="url(#paint14_linear_203_5760)"/><path d="M112.765 38.759l.478-.397s-12.687 15.78-31.518 2.458c15.033 8.01 27.002.952 31.04-2.061z" fill="url(#paint15_linear_203_5760)"/><path d="M76.65 35.745l2.075-21.171V3.869c-.08 0-16.278 12.782-2.075 31.876z" fill="url(#paint16_linear_203_5760)"/><path d="M78.246 4.345l.4-.476S62.765 16.477 76.17 35.19c-8.09-14.907-1.037-26.88 2.075-30.845z" fill="url(#paint17_linear_203_5760)"/><path d="M68.99 31.068l-10.293-12.37-5.777-5.71c0-.079-1.724 15.384 16.07 18.08z" fill="url(#paint18_linear_203_5760)"/><path d="M52.92 13.384v-.476s-1.756 15.146 15.56 18C56.11 27.26 53.43 17.19 52.92 13.384z" fill="url(#paint19_linear_203_5760)"/><path d="M71.145 28.847l-12.448-10.23-5.777-5.708s15.512-1.745 18.225 15.938z" fill="url(#paint20_linear_203_5760)"/><path d="M53.43 12.988h-.51s15.24-1.744 18.113 15.463C67.394 16.08 57.18 13.48 53.43 12.988z" fill="url(#paint21_linear_203_5760)"/><path d="M68.99 45.895l-10.293 12.37-5.777 5.71s-1.724-15.463 16.07-18.08z" fill="url(#paint22_linear_203_5760)"/><path d="M52.92 63.499v.475s-1.756-15.145 15.56-18C56.11 49.623 53.43 59.694 52.92 63.5z" fill="url(#paint23_linear_203_5760)"/><path d="M71.145 48.036l-12.448 10.23-5.777 5.708s15.512 1.745 18.225-15.938z" fill="url(#paint24_linear_203_5760)"/><path d="M53.43 63.974h-.51s15.24 1.745 18.113-15.462a21.145 21.145 0 01-6.462 10.361 21.356 21.356 0 01-11.14 5.101z" fill="url(#paint25_linear_203_5760)"/><path d="M76.65 41.059l2.075 21.171v10.784c-.08-.063-16.278-12.845-2.075-31.955z" fill="url(#paint26_linear_203_5760)"/><path d="M78.246 72.459l.4.476s-15.88-12.608-2.475-31.322c-8.09 14.908-1.037 26.881 2.075 30.846z" fill="url(#paint27_linear_203_5760)"/><path d="M76.171 36.3l-21.304 2.063H44.095c0-.08 12.926-16.16 32.076-2.062z" fill="url(#paint28_linear_203_5760)"/><path d="M44.573 37.886l-.478.397s12.687-15.78 31.518-2.458c-15.001-8.009-27.05-1.031-31.04 2.061z" fill="url(#paint29_linear_203_5760)"/><path d="M76.171 40.345l-21.304-2.062H44.095S57.02 54.46 76.17 40.345z" fill="url(#paint30_linear_203_5760)"/><path d="M44.573 38.759l-.478-.397s12.687 15.78 31.518 2.458c-15.001 8.01-27.05.952-31.04-2.061z" fill="url(#paint31_linear_203_5760)"/><path d="M13.023 100.759l-.367 1.285h-1.229l1.596-5.012h1.596l1.652 5.012h-1.293l-.415-1.285h-1.54zm1.365-.848l-.335-1.063c-.088-.301-.176-.682-.256-.967-.072.293-.16.674-.24.967l-.342 1.063h1.173zm6.432 1.989a3.709 3.709 0 01-1.357.222c-1.828 0-2.777-1.094-2.777-2.521 0-1.705 1.293-2.649 2.896-2.649a3.54 3.54 0 011.309.215l-.255.903a2.672 2.672 0 00-1.006-.182 1.606 1.606 0 00-1.212.457 1.584 1.584 0 00-.471 1.2 1.524 1.524 0 001.042 1.512c.208.071.43.096.65.074.341.004.68-.049 1.005-.158l.175.927zm4.627.001a3.624 3.624 0 01-1.348.222c-1.836 0-2.777-1.094-2.777-2.521a2.6 2.6 0 01.842-1.961 2.637 2.637 0 012.03-.688c.446-.012.89.06 1.309.214l-.247.904a2.722 2.722 0 00-1.014-.182 1.605 1.605 0 00-1.186.472 1.584 1.584 0 00-.457 1.185 1.52 1.52 0 00.481 1.176 1.538 1.538 0 001.21.41 3.06 3.06 0 001.013-.159l.144.928zm3 .222a2.397 2.397 0 01-2.358-1.559 2.367 2.367 0 01-.14-.987 2.475 2.475 0 01.709-1.883 2.507 2.507 0 011.877-.75 2.407 2.407 0 011.831.707 2.378 2.378 0 01.682 1.831 2.419 2.419 0 01-.687 1.911 2.45 2.45 0 01-1.906.73h-.008zm.064-.896c.798 0 1.269-.722 1.269-1.705 0-.984-.447-1.673-1.269-1.673-.822 0-1.293.793-1.293 1.697 0 .903.48 1.681 1.285 1.681h.008zm4.684-4.194v4.083h1.851v-4.083h1.197v4.123h.527l-.056 2.133h-.902l-.064-1.269h-3.75v-5.011l1.197.024zm5.514-.001v1.483c0 .793 0 1.586-.064 2.276.28-.595.638-1.253.95-1.792l1.14-1.967h1.253v5.012h-1.101v-1.483c-.01-.704.02-1.408.088-2.11a13.87 13.87 0 01-.91 1.785l-1.077 1.808h-1.356v-5.012h1.077zm5.705 3.727l-.367 1.285h-1.245l1.596-5.012h1.596l1.652 5.012h-1.293l-.415-1.285h-1.524zm1.325-.848l-.336-1.063c-.087-.301-.175-.682-.255-.967-.072.293-.16.674-.24.967l-.319 1.063h1.15zm3.989-2.878v4.083h1.835v-4.083h1.197v4.123h.527l-.056 2.133h-.901l-.064-1.269h-3.759v-5.011l1.221.024zm5.49-.001v1.483c0 .793 0 1.586-.064 2.276.287-.595.638-1.253.95-1.792l1.14-1.967h1.261v5.012h-1.109v-1.483c-.009-.704.02-1.408.088-2.11-.26.615-.561 1.21-.902 1.785l-1.077 1.808h-1.388v-5.012h1.101zm4.029 5.012c.11-.177.199-.366.264-.563.125-.563.38-1.089.742-1.539.127-.112.276-.196.439-.245a1.24 1.24 0 01-.796-.397 1.225 1.225 0 01-.321-.825 1.285 1.285 0 01.55-1.062 3.071 3.071 0 011.74-.397 9.825 9.825 0 011.516.111v4.94h-1.19v-1.966h-.287a.8.8 0 00-.566.19 3.482 3.482 0 00-.63 1.356 3.107 3.107 0 01-.192.42l-1.269-.023zm2.945-4.155a1.928 1.928 0 00-.487-.048c-.519 0-.933.198-.933.714 0 .515.446.697.997.697.14.014.282.014.423 0V97.89zm7.277-1.079v.444c.583.034 1.13.288 1.531.71a2.268 2.268 0 010 3.122 2.29 2.29 0 01-1.531.711v.492h-1.117v-.452a2.186 2.186 0 01-1.621-.627 2.157 2.157 0 01-.637-1.61 2.263 2.263 0 01.653-1.623 2.29 2.29 0 011.62-.684v-.444l1.102-.04zm-1.125 1.22c-.463.064-1.061.445-1.061 1.507-.043.334.042.671.239.945.197.273.49.463.822.53v-2.981zm1.117 2.982c.47-.055 1.07-.428 1.07-1.49 0-1.063-.567-1.428-1.07-1.491v2.981zm4.285-.253l-.375 1.285h-1.237l1.596-5.012h1.596l1.652 5.012h-1.301l-.415-1.285h-1.516zm1.34-.848l-.327-1.063c-.087-.301-.183-.682-.263-.967-.064.293-.152.674-.231.967l-.352 1.063h1.174zm2.745-2.816a11.033 11.033 0 011.596-.103 2.574 2.574 0 011.596.412 1.376 1.376 0 01.567 1.15 1.49 1.49 0 01-.487 1.19 2.591 2.591 0 01-1.724.531 2.128 2.128 0 01-.407 0v1.8h-1.14v-4.98zm1.19 2.276c.132.015.266.015.398 0 .639 0 1.03-.301 1.03-.793 0-.492-.335-.737-.942-.737a2.153 2.153 0 00-.487 0v1.53zm7.923.754c0-.603-.048-1.325-.048-2.062a35.241 35.241 0 01-.599 1.943l-.662 1.958h-.933l-.567-1.942a20.777 20.777 0 01-.479-1.959c0 .674-.056 1.451-.088 2.078l-.103 1.903H82.34l.335-5.012h1.596l.518 1.673c.176.58.335 1.206.455 1.792.136-.579.32-1.245.503-1.8l.558-1.665h1.596l.28 5.012h-1.157l-.08-1.919zm3.551.634l-.368 1.285h-1.244l1.596-5.012h1.595l1.652 5.012h-1.293l-.407-1.285h-1.531zm1.34-.848l-.327-1.063a26.972 26.972 0 01-.255-.967c-.072.293-.16.674-.24.967l-.319 1.063h1.141zm3.95-2.878v4.083h1.859v-4.083h1.197v4.123h.526l-.056 2.133h-.91l-.063-1.269h-3.75v-5.011l1.197.024zm7.564 2.877h-1.947v1.19h2.179v.928h-3.376v-5.011h3.264v.927h-2.067v1.04h1.947v.927zm1.205-2.806a9.362 9.362 0 011.548-.111 2.986 2.986 0 011.596.285 1.077 1.077 0 01.63.983 1.146 1.146 0 01-.861 1.071 1.27 1.27 0 011.053 1.229 1.307 1.307 0 01-.551 1.063c-.63.369-1.362.53-2.09.46a9.153 9.153 0 01-1.293-.08l-.032-4.9zm1.189 1.91h.391c.638 0 .965-.245.965-.618 0-.372-.303-.579-.845-.579-.17-.02-.341-.02-.511 0v1.198zm0 2.229c.154.015.309.015.463 0 .542 0 1.021-.206 1.021-.729 0-.524-.479-.714-1.077-.714h-.407v1.443zm4.692-3.259h-1.429v-.952h4.07v.952h-1.444v4.06h-1.197v-4.06zm4.54-.952v1.483c0 .793 0 1.586-.064 2.276a22.32 22.32 0 01.95-1.792l1.141-1.967h1.229v5.012h-1.078v-1.483c0-.793 0-1.46.08-2.11a12.974 12.974 0 01-.901 1.785l-1.078 1.808h-1.356v-5.012h1.077zm5.578.001v1.475a.776.776 0 00.241.64.79.79 0 00.652.216c.277-.001.551-.066.798-.19v-2.141h1.197v5.082h-1.197v-2.101a2.71 2.71 0 01-1.189.254 1.476 1.476 0 01-1.567-.942 1.429 1.429 0 01-.084-.644v-1.681l1.149.032zm7.213 2.877h-1.955v1.19h2.186v.928h-3.375v-5.011h3.304v.927h-2.075v1.04h1.955l-.04.927zm5.091 1.991a3.757 3.757 0 01-1.357.222c-1.835 0-2.777-1.095-2.777-2.522 0-1.705 1.293-2.648 2.897-2.648.443-.013.885.06 1.301.214l-.248.904a2.7 2.7 0 00-1.005-.183c-.438 0-.858.173-1.168.481a1.635 1.635 0 000 2.321c.31.308.73.481 1.168.481.342.004.681-.05 1.005-.158l.184.888zm2.138-4.869v2.086h.112l1.46-2.086h1.452l-1.851 2.228a1.597 1.597 0 011.213 1.206c.173.54.378 1.069.614 1.586h-1.292a8.194 8.194 0 01-.407-1.103c-.184-.563-.423-.999-1.07-.999h-.223v2.102h-1.181V97.04l1.173-.008zm4.828 0v1.483c0 .793 0 1.586-.064 2.276.279-.595.638-1.253.949-1.792l1.141-1.967h1.237v5.012h-1.101v-1.483c-.009-.704.02-1.408.088-2.11a13.87 13.87 0 01-.91 1.785l-1.077 1.808h-1.357v-5.012h1.094zm7.253 5.012l-.479-.904c-.2-.349-.319-.611-.471-.904-.112.293-.247.555-.415.904l-.431.904h-1.396l1.532-2.538-1.476-2.474h1.372l.471.912c.152.31.271.547.399.793.128-.317.223-.54.359-.793l.447-.912h1.372l-1.492 2.443 1.596 2.569h-1.388zm-128.691 3.917v5.051h-1.189v-4.123h-1.89v4.123h-1.197v-5.011l4.276-.04zm1.197.063a10.781 10.781 0 011.596-.103 2.578 2.578 0 011.596.412 1.4 1.4 0 01.566 1.15 1.508 1.508 0 01-.486 1.189 2.588 2.588 0 01-1.724.532 2.128 2.128 0 01-.407 0v1.808h-1.14v-4.988zm1.19 2.276c.132.015.266.015.398 0 .638 0 1.03-.302 1.03-.793 0-.492-.336-.738-.942-.738a2.148 2.148 0 00-.487.04v1.491zm5.816 2.76a2.402 2.402 0 01-2.353-1.566 2.366 2.366 0 01-.136-.987 2.469 2.469 0 01.705-1.878 2.517 2.517 0 011.871-.747 2.396 2.396 0 012.37 1.55c.119.315.167.652.144.988a2.421 2.421 0 01-.69 1.914 2.445 2.445 0 01-1.91.726zm.064-.904c.798 0 1.277-.721 1.277-1.705 0-.983-.447-1.673-1.277-1.673-.83 0-1.293.793-1.293 1.697s.479 1.681 1.285 1.681h.008zm4.556-4.195v1.491c0 .793 0 1.586-.064 2.267.28-.586.63-1.252.95-1.784l1.14-1.974h1.253v5.051h-1.1v-1.475c0-.793 0-1.459.08-2.117a12.901 12.901 0 01-.903 1.784l-1.1 1.808h-1.357v-5.011l1.101-.04zm4.293.293a3.301 3.301 0 011.652-.397c1.149 0 1.835.548 1.835 1.285a1.219 1.219 0 01-1.061 1.181 1.27 1.27 0 011.237 1.182c0 1.126-1.19 1.514-2.179 1.514a3.48 3.48 0 01-1.596-.348l.248-.881c.403.186.84.288 1.284.302.607 0 .974-.246.974-.658 0-.555-.615-.666-1.11-.666h-.502v-.833h.495c.542 0 .95-.23.95-.634 0-.405-.288-.548-.799-.548a2.98 2.98 0 00-1.165.294l-.263-.793zm4.652-.222a10.28 10.28 0 011.548-.111c.548-.05 1.1.049 1.596.285a1.081 1.081 0 01.63.991 1.14 1.14 0 01-.862 1.063c.294.052.56.204.752.43a1.261 1.261 0 01.157 1.405 1.296 1.296 0 01-.406.464 3.52 3.52 0 01-2.082.452 11.08 11.08 0 01-1.301-.071l-.032-4.908zm1.189 1.911h.39c.64 0 .966-.238.966-.611 0-.372-.303-.587-.845-.587a2.295 2.295 0 00-.511 0v1.198zm0 2.228c.154.014.309.014.463 0 .542 0 1.021-.198 1.021-.73 0-.531-.479-.705-1.077-.705h-.407v1.435zm5.905.889a2.396 2.396 0 01-2.36-1.564 2.364 2.364 0 01-.138-.989 2.474 2.474 0 01.712-1.878 2.522 2.522 0 011.874-.747 2.396 2.396 0 012.37 1.55c.117.315.166.652.143.988a2.42 2.42 0 01-.687 1.911 2.46 2.46 0 01-1.906.729h-.008zm.064-.904c.797 0 1.268-.721 1.268-1.705 0-.983-.447-1.673-1.245-1.673-.797 0-1.292.793-1.292 1.697s.479 1.681 1.285 1.681h-.016zm7.492-4.195v4.123h.519l-.056 2.125h-.894l-.064-1.268h-3.104l-.064 1.268h-.917l-.048-2.125h.455c.212-.351.381-.726.502-1.118.14-.544.207-1.104.2-1.665v-1.34h3.47zm-2.394 1.586a5.815 5.815 0 01-.231 1.657 4.706 4.706 0 01-.367.856h1.763v-3.171h-1.133l-.032.658zm4.851-1.586v1.491c0 .793 0 1.586-.063 2.267.287-.586.638-1.252.957-1.784l1.15-1.974h1.22v5.051h-1.085v-1.475c-.01-.707.02-1.413.088-2.117a13.845 13.845 0 01-.902 1.784l-1.101 1.808h-1.365v-5.011l1.101-.04zm5.514.951h-1.428v-.951h4.07v.951H63.97v4.1h-1.197v-4.1zm6.591 1.944h-1.947v1.189h2.179v.967h-3.375v-5.011h3.263v.928h-2.067v1.046h1.947v.881zm5.33-2.895v5.051H73.5v-4.123h-1.197v1.189c0 1.293-.176 2.284-.982 2.736a2.252 2.252 0 01-1.053.246l-.152-.92a1 1 0 00.607-.262c.34-.506.484-1.117.407-1.721v-2.196h3.566zm4.357 2.895h-1.947v1.189h2.147v.967h-3.344v-5.011h3.264v.928h-2.067v1.046h1.947v.881zm2.306-2.895v1.491c0 .793 0 1.586-.064 2.268.28-.587.639-1.253.95-1.784l1.14-1.975h1.23v5.051h-1.078v-1.475c-.009-.706.02-1.413.088-2.117a13.83 13.83 0 01-.91 1.784l-1.069 1.808H80.29v-5.011l1.07-.04zm.734-1.149c0 .293.104.459.36.459.255 0 .334-.166.358-.459h.798c-.048.634-.494.919-1.197.919-.702 0-1.077-.293-1.14-.919h.821zm8.65 4.044h-1.915v1.189h2.178v.967H87.59v-5.011h3.264v.928h-2.027v1.046h1.915v.881zm1.197-2.824c.512-.076 1.03-.113 1.548-.111a3.121 3.121 0 011.596.285 1.08 1.08 0 01.622.991 1.14 1.14 0 01-.862 1.063 1.266 1.266 0 01.908 1.835 1.296 1.296 0 01-.405.464c-.63.362-1.358.52-2.083.452a11.08 11.08 0 01-1.3-.071l-.024-4.908zm1.189 1.911h.39c.64 0 .974-.238.974-.611s-.311-.587-.854-.587a2.294 2.294 0 00-.51 0v1.198zm0 2.228c.154.014.309.014.463 0 .542 0 1.02-.198 1.02-.73 0-.531-.478-.705-1.076-.705h-.407v1.435zm3.718-4.147a10.781 10.781 0 011.596-.103 2.58 2.58 0 011.596.412 1.362 1.362 0 01.566 1.15 1.502 1.502 0 01-.487 1.189 2.586 2.586 0 01-1.723.532 2.128 2.128 0 01-.407 0v1.808h-1.189l.048-4.988zm1.189 2.276c.132.015.266.015.399 0 .638 0 1.03-.302 1.03-.793 0-.492-.336-.738-.942-.738a2.148 2.148 0 00-.487.04v1.491zm4.285 1.388l-.367 1.284h-1.245l1.596-5.011h1.596l1.683 5.051h-1.292l-.407-1.285-1.564-.039zm1.348-.849l-.335-1.062a24.864 24.864 0 01-.255-.968c-.072.294-.16.674-.24.968l-.319 1.062h1.149zm2.586-2.585a3.298 3.298 0 011.651-.397c1.157 0 1.836.548 1.836 1.285a1.223 1.223 0 01-1.062 1.181c.317.01.62.136.848.354.229.218.368.514.389.828 0 1.126-1.189 1.514-2.178 1.514a3.478 3.478 0 01-1.596-.348l.247-.881c.404.186.841.288 1.285.302.606 0 .973-.246.973-.658 0-.555-.614-.666-1.109-.666h-.502v-.833h.494c.543 0 .958-.23.958-.634 0-.405-.295-.548-.798-.548a2.979 2.979 0 00-1.165.294l-.271-.793zm5.713-.293v1.491c0 .793 0 1.586-.064 2.267.287-.586.638-1.252.95-1.784l1.141-1.974h1.228v5.051h-1.101v-1.475c-.009-.707.02-1.413.088-2.117a14.91 14.91 0 01-.902 1.784l-1.069 1.808h-1.364v-5.011l1.093-.04zm5.585 0v1.491c0 .793 0 1.586-.064 2.268.28-.587.639-1.253.95-1.784l1.141-1.975h1.229v5.051h-1.101v-1.475a19.7 19.7 0 01.087-2.117 13.725 13.725 0 01-.909 1.784l-1.069 1.808h-1.357v-5.011l1.093-.04zm.734-1.149c0 .293.104.459.359.459.256 0 .336-.166.36-.459h.797c-.047.634-.494.919-1.196.919-.703 0-1.078-.293-1.142-.919h.822zm7.637 6.025c-.432.155-.89.228-1.349.214-1.835 0-2.777-1.086-2.777-2.513 0-1.705 1.293-2.649 2.897-2.649.443-.013.885.06 1.3.214l-.247.896a2.698 2.698 0 00-1.005-.182 1.66 1.66 0 00-1.775 1.645 1.638 1.638 0 00.527 1.206 1.67 1.67 0 001.248.44c.342.001.682-.056 1.005-.167l.176.896zm2.138-4.876v2.093h.112l1.46-2.093h1.484l-1.851 2.228a1.649 1.649 0 011.213 1.205c.168.542.374 1.072.614 1.586h-1.292a8.355 8.355 0 01-.407-1.094c-.184-.571-.423-.999-1.069-.999h-.232v2.125h-1.205v-5.011l1.173-.04zm5.849 5.099a2.414 2.414 0 01-1.827-.719 2.36 2.36 0 01-.533-.846 2.36 2.36 0 01-.138-.989 2.477 2.477 0 011.563-2.447 2.498 2.498 0 011.015-.177 2.404 2.404 0 011.836.703 2.371 2.371 0 01.685 1.834 2.422 2.422 0 01-.687 1.911 2.448 2.448 0 01-1.906.73h-.008zm.056-.904c.798 0 1.276-.722 1.276-1.705 0-.983-.446-1.673-1.276-1.673-.83 0-1.285.793-1.285 1.697s.479 1.681 1.277 1.681h.008zm6.726-4.195v.928h-2.002v4.123h-1.189v-5.011l3.191-.04zm2.753 5.099a2.402 2.402 0 01-2.353-1.566 2.369 2.369 0 01-.136-.987 2.478 2.478 0 011.562-2.447 2.516 2.516 0 011.015-.178 2.387 2.387 0 012.514 2.538 2.438 2.438 0 01-.688 1.911 2.459 2.459 0 01-1.906.729h-.008zm.064-.904c.798 0 1.277-.721 1.277-1.705 0-.983-.455-1.673-1.277-1.673-.822 0-1.293.793-1.293 1.697s.479 1.681 1.285 1.681h.008zM29.42 116.919h2.275a1.337 1.337 0 00-.48-.893 1.353 1.353 0 00-.972-.304 2.907 2.907 0 00-1.086.214l-.239-.841a3.84 3.84 0 011.42-.285 2.405 2.405 0 011.936.676 2.379 2.379 0 01.697 1.917 2.492 2.492 0 01-.793 1.918 2.535 2.535 0 01-1.975.667 3.87 3.87 0 01-1.365-.238l.216-.872c.338.119.694.181 1.053.182a1.445 1.445 0 001.596-1.253H29.42v-.888zm5.706-2.029v2.093h.112l1.452-2.093h1.452l-1.843 2.236a1.589 1.589 0 011.205 1.205c.175.54.38 1.069.614 1.586h-1.284a7.298 7.298 0 01-.415-1.102c-.176-.563-.423-.999-1.07-.999h-.223v2.101h-1.18v-5.019l1.18-.008zm5.824 5.098a2.419 2.419 0 01-1.82-.721 2.368 2.368 0 01-.668-1.832 2.469 2.469 0 01.705-1.878 2.506 2.506 0 011.872-.747 2.398 2.398 0 012.37 1.549c.117.316.166.653.143.988a2.424 2.424 0 01-.69 1.915 2.458 2.458 0 01-1.911.726zm.065-.904c.798 0 1.276-.722 1.276-1.697 0-.975-.454-1.681-1.276-1.681-.822 0-1.293.793-1.293 1.697s.479 1.681 1.285 1.681h.008zm4.724-4.194v1.934h1.978v-1.934h1.19v5.019h-1.213v-2.093h-1.956v2.093h-1.196v-5.019h1.197zm6.598 5.098a2.42 2.42 0 01-1.821-.721 2.366 2.366 0 01-.668-1.832 2.467 2.467 0 01.706-1.878 2.504 2.504 0 011.871-.747 2.398 2.398 0 012.37 1.549c.118.316.166.653.143.988a2.425 2.425 0 01-.687 1.912 2.46 2.46 0 01-1.906.729h-.008zm.064-.904c.798 0 1.277-.722 1.277-1.697 0-.975-.455-1.681-1.277-1.681-.822 0-1.293.793-1.293 1.697s.48 1.681 1.285 1.681h.008zm7.924-1.094c0-.603-.048-1.332-.048-2.062a27.614 27.614 0 01-.599 1.943l-.638 1.951h-.957l-.567-1.943a27.937 27.937 0 01-.479-1.951c0 .674-.056 1.451-.087 2.07l-.096 1.911h-1.125l.335-5.019h1.596l.518 1.673c.176.587.335 1.205.447 1.792.144-.579.327-1.237.503-1.8l.558-1.665h1.596l.28 5.019h-1.15l-.087-1.919zm3.431-3.1v1.49c0 .793 0 1.586-.064 2.268a25 25 0 01.95-1.784l1.14-1.974h1.23v5.019h-1.078v-1.483c-.01-.707.02-1.413.088-2.117a14.574 14.574 0 01-.91 1.792l-1.077 1.808h-1.38v-5.019h1.1zm5.585-.001v1.483a.789.789 0 00.538.819.793.793 0 00.348.037c.278 0 .552-.068.798-.198v-2.141h1.197v5.083h-1.197v-2.093c-.374.165-.78.249-1.189.245a1.472 1.472 0 01-1.214-.394 1.446 1.446 0 01-.438-1.192v-1.681l1.157.032zm7.206 2.894H74.6v1.158h2.178v.936h-3.375v-5.02h3.263v.928H74.6v1.047h1.947v.951zm5.098 1.951a3.75 3.75 0 01-1.356.214c-1.827 0-2.777-1.086-2.777-2.513 0-1.705 1.293-2.649 2.897-2.649.445-.011.89.061 1.308.215l-.255.903a2.492 2.492 0 00-1.014-.134 1.674 1.674 0 00-1.247.439 1.643 1.643 0 000 2.412 1.673 1.673 0 001.248.439c.342.002.682-.054 1.005-.166l.191.84zm2.131-4.844v2.093h.112l1.452-2.093h1.452l-1.843 2.236a1.589 1.589 0 011.205 1.205c.174.54.38 1.069.614 1.586h-1.285a7.298 7.298 0 01-.415-1.102c-.175-.563-.422-.999-1.069-.999h-.223v2.101h-1.181v-5.019l1.18-.008zm5.849 5.098a2.42 2.42 0 01-1.822-.721 2.366 2.366 0 01-.668-1.832 2.467 2.467 0 01.706-1.878 2.504 2.504 0 011.872-.747 2.398 2.398 0 012.37 1.549c.117.316.166.653.143.988a2.424 2.424 0 01-.69 1.915 2.457 2.457 0 01-1.911.726zm.064-.904c.798 0 1.276-.722 1.276-1.697 0-.975-.455-1.681-1.276-1.681-.822 0-1.293.793-1.293 1.697s.479 1.681 1.285 1.681h.008zm6.686-4.194v.927h-2.01v4.092h-1.197v-5.019h3.207zm2.777 5.098a2.392 2.392 0 01-2.353-1.566 2.366 2.366 0 01-.137-.987 2.47 2.47 0 01.706-1.878 2.516 2.516 0 011.871-.747c.34-.018.679.035.995.156a2.382 2.382 0 011.527 2.382 2.416 2.416 0 01-.69 1.914 2.44 2.44 0 01-1.911.726h-.008zm.064-.904c.798 0 1.277-.721 1.277-1.697 0-.975-.447-1.681-1.277-1.681-.83 0-1.285.793-1.285 1.697s.479 1.681 1.277 1.681h.008zm9.112.651a3.702 3.702 0 01-1.348.214c-1.835 0-2.777-1.087-2.777-2.514 0-1.705 1.293-2.648 2.897-2.648a3.43 3.43 0 011.3.214l-.247.904a2.537 2.537 0 00-.974-.135 1.659 1.659 0 00-1.637.988 1.632 1.632 0 000 1.315 1.66 1.66 0 001.637.988c.342.001.682-.056 1.006-.167l.143.841zm3 .253a2.397 2.397 0 01-2.36-1.564 2.365 2.365 0 01-.137-.989 2.472 2.472 0 01.711-1.878 2.508 2.508 0 011.874-.747 2.4 2.4 0 012.37 1.549c.118.316.167.653.144.988a2.427 2.427 0 01-1.561 2.483c-.328.126-.681.18-1.033.158h-.008zm.064-.904c.798 0 1.269-.722 1.269-1.697 0-.975-.447-1.681-1.269-1.681-.822 0-1.292.793-1.292 1.697s.478 1.681 1.284 1.681h.008zm4.676-4.195v1.959h.639a2.313 2.313 0 01.856-1.556 2.344 2.344 0 013.278.353c.388.479.568 1.091.502 1.702 0 1.649-.982 2.641-2.394 2.641a2.253 2.253 0 01-1.592-.628 2.219 2.219 0 01-.682-1.561h-.607v2.109h-1.197v-5.019h1.197zm2.929 4.203c.726 0 1.133-.738 1.133-1.705 0-.968-.399-1.689-1.133-1.689s-1.149.793-1.149 1.705c0 .911.415 1.689 1.141 1.689h.008zm2.992-3.886a3.299 3.299 0 011.652-.396c1.157 0 1.843.547 1.843 1.284-.005.291-.115.57-.31.787a1.225 1.225 0 01-.752.395 1.267 1.267 0 011.229 1.181c0 1.126-1.181 1.515-2.178 1.515a3.482 3.482 0 01-1.596-.349l.255-.88c.4.19.835.295 1.277.309.607 0 .982-.246.982-.666 0-.547-.615-.658-1.11-.658h-.502v-.841h.494c.543 0 .95-.23.95-.626 0-.397-.287-.555-.798-.555a2.89 2.89 0 00-1.157.293l-.279-.793zm5.849 3.41l-.367 1.293h-1.245l1.596-5.019h1.596l1.659 5.019h-1.292l-.407-1.293h-1.54zm1.348-.848l-.327-1.063c-.088-.293-.183-.674-.263-.967-.072.301-.16.682-.24.967l-.319 1.063h1.149z" fill="#231F20"/></g><defs><linearGradient id="paint0_linear_203_5760" x1="83.664" y1="36.562" x2="82.127" y2="8.911" gradientUnits="userSpaceOnUse"><stop offset=".01" stop-color="#09C3F4"/><stop offset=".44" stop-color="#29AAE1"/><stop offset=".5" stop-color="#279ED6"/><stop offset=".62" stop-color="#2684BF"/><stop offset=".78" stop-color="#205FA0"/><stop offset=".98" stop-color="#283678"/><stop offset="1" stop-color="#293374"/></linearGradient><linearGradient id="paint1_linear_203_5760" x1="82.188" y1="15.129" x2="71.562" y2="40.883" gradientUnits="userSpaceOnUse"><stop stop-color="#182E58"/><stop offset="1" stop-color="#26C4F4"/></linearGradient><linearGradient id="paint2_linear_203_5760" x1="83.254" y1="19.77" x2="97.23" y2="4.023" gradientUnits="userSpaceOnUse"><stop stop-color="#293678"/><stop offset=".07" stop-color="#1D4382"/><stop offset=".24" stop-color="#005B98"/><stop offset=".41" stop-color="#026FAD"/><stop offset=".57" stop-color="#0B80BE"/><stop offset=".72" stop-color="#0B8DCD"/><stop offset=".87" stop-color="#1C94D2"/><stop offset="1" stop-color="#1D96D4"/></linearGradient><linearGradient id="paint3_linear_203_5760" x1="104.235" y1="17.642" x2="81.662" y2="36.01" gradientUnits="userSpaceOnUse"><stop stop-color="#182E58"/><stop offset="1" stop-color="#26C4F4"/></linearGradient><linearGradient id="paint4_linear_203_5760" x1="83.331" y1="22.752" x2="98.968" y2="8.684" gradientUnits="userSpaceOnUse"><stop stop-color="#293678"/><stop offset=".07" stop-color="#1D4382"/><stop offset=".24" stop-color="#005B98"/><stop offset=".41" stop-color="#026FAD"/><stop offset=".57" stop-color="#0B80BE"/><stop offset=".72" stop-color="#0B8DCD"/><stop offset=".87" stop-color="#1C94D2"/><stop offset="1" stop-color="#1D96D4"/></linearGradient><linearGradient id="paint5_linear_203_5760" x1="87.6" y1="18.35" x2="100.482" y2="8.241" gradientUnits="userSpaceOnUse"><stop stop-color="#182E58"/><stop offset="1" stop-color="#26C4F4"/></linearGradient><linearGradient id="paint6_linear_203_5760" x1="98.579" y1="36.732" x2="112.539" y2="52.445" gradientUnits="userSpaceOnUse"><stop stop-color="#293678"/><stop offset=".07" stop-color="#1D4382"/><stop offset=".24" stop-color="#005B98"/><stop offset=".41" stop-color="#026FAD"/><stop offset=".57" stop-color="#0B80BE"/><stop offset=".72" stop-color="#0B8DCD"/><stop offset=".87" stop-color="#1C94D2"/><stop offset="1" stop-color="#1D96D4"/></linearGradient><linearGradient id="paint7_linear_203_5760" x1="103.037" y1="40.957" x2="113.058" y2="53.875" gradientUnits="userSpaceOnUse"><stop stop-color="#182E58"/><stop offset="1" stop-color="#26C4F4"/></linearGradient><linearGradient id="paint8_linear_203_5760" x1="87.59" y1="48.975" x2="103.267" y2="63.053" gradientUnits="userSpaceOnUse"><stop stop-color="#293678"/><stop offset=".07" stop-color="#1D4382"/><stop offset=".24" stop-color="#005B98"/><stop offset=".41" stop-color="#026FAD"/><stop offset=".57" stop-color="#0B80BE"/><stop offset=".72" stop-color="#0B8DCD"/><stop offset=".87" stop-color="#1C94D2"/><stop offset="1" stop-color="#1D96D4"/></linearGradient><linearGradient id="paint9_linear_203_5760" x1="97.277" y1="60.953" x2="83.701" y2="44.543" gradientUnits="userSpaceOnUse"><stop stop-color="#182E58"/><stop offset="1" stop-color="#26C4F4"/></linearGradient><linearGradient id="paint10_linear_203_5760" x1="83.664" y1="40.234" x2="82.127" y2="67.893" gradientUnits="userSpaceOnUse"><stop offset=".01" stop-color="#09C3F4"/><stop offset=".44" stop-color="#29AAE1"/><stop offset=".5" stop-color="#279ED6"/><stop offset=".62" stop-color="#2684BF"/><stop offset=".78" stop-color="#205FA0"/><stop offset=".98" stop-color="#283678"/><stop offset="1" stop-color="#293374"/></linearGradient><linearGradient id="paint11_linear_203_5760" x1="83.967" y1="48.337" x2="81.351" y2="69.727" gradientUnits="userSpaceOnUse"><stop stop-color="#182E58"/><stop offset="1" stop-color="#26C4F4"/></linearGradient><linearGradient id="paint12_linear_203_5760" x1="80.321" y1="33.343" x2="108.144" y2="34.909" gradientUnits="userSpaceOnUse"><stop offset=".01" stop-color="#09C3F4"/><stop offset=".44" stop-color="#29AAE1"/><stop offset=".5" stop-color="#279ED6"/><stop offset=".62" stop-color="#2684BF"/><stop offset=".78" stop-color="#205FA0"/><stop offset=".98" stop-color="#283678"/><stop offset="1" stop-color="#293374"/></linearGradient><linearGradient id="paint13_linear_203_5760" x1="88.476" y1="32.986" x2="109.992" y2="35.651" gradientUnits="userSpaceOnUse"><stop stop-color="#182E58"/><stop offset="1" stop-color="#26C4F4"/></linearGradient><linearGradient id="paint14_linear_203_5760" x1="80.321" y1="43.295" x2="108.143" y2="41.721" gradientUnits="userSpaceOnUse"><stop offset=".01" stop-color="#09C3F4"/><stop offset=".44" stop-color="#29AAE1"/><stop offset=".5" stop-color="#279ED6"/><stop offset=".62" stop-color="#2684BF"/><stop offset=".78" stop-color="#205FA0"/><stop offset=".98" stop-color="#283678"/><stop offset="1" stop-color="#293374"/></linearGradient><linearGradient id="paint15_linear_203_5760" x1="103.389" y1="42.256" x2="62.508" y2="29.575" gradientUnits="userSpaceOnUse"><stop stop-color="#182E58"/><stop offset="1" stop-color="#26C4F4"/></linearGradient><linearGradient id="paint16_linear_203_5760" x1="73.682" y1="36.562" x2="75.219" y2="8.911" gradientUnits="userSpaceOnUse"><stop offset=".01" stop-color="#09C3F4"/><stop offset=".44" stop-color="#29AAE1"/><stop offset=".5" stop-color="#279ED6"/><stop offset=".62" stop-color="#2684BF"/><stop offset=".78" stop-color="#205FA0"/><stop offset=".98" stop-color="#283678"/><stop offset="1" stop-color="#293374"/></linearGradient><linearGradient id="paint17_linear_203_5760" x1="75.102" y1="15.145" x2="85.728" y2="40.899" gradientUnits="userSpaceOnUse"><stop stop-color="#182E58"/><stop offset="1" stop-color="#26C4F4"/></linearGradient><linearGradient id="paint18_linear_203_5760" x1="65.181" y1="36.644" x2="51.221" y2="20.931" gradientUnits="userSpaceOnUse"><stop stop-color="#293678"/><stop offset=".07" stop-color="#1D4382"/><stop offset=".24" stop-color="#005B98"/><stop offset=".41" stop-color="#026FAD"/><stop offset=".57" stop-color="#0B80BE"/><stop offset=".72" stop-color="#0B8DCD"/><stop offset=".87" stop-color="#1C94D2"/><stop offset="1" stop-color="#1D96D4"/></linearGradient><linearGradient id="paint19_linear_203_5760" x1="53.079" y1="17.666" x2="75.652" y2="36.026" gradientUnits="userSpaceOnUse"><stop stop-color="#182E58"/><stop offset="1" stop-color="#26C4F4"/></linearGradient><linearGradient id="paint20_linear_203_5760" x1="64.534" y1="37.949" x2="48.857" y2="23.871" gradientUnits="userSpaceOnUse"><stop stop-color="#293678"/><stop offset=".07" stop-color="#1D4382"/><stop offset=".24" stop-color="#005B98"/><stop offset=".41" stop-color="#026FAD"/><stop offset=".57" stop-color="#0B80BE"/><stop offset=".72" stop-color="#0B8DCD"/><stop offset=".87" stop-color="#1C94D2"/><stop offset="1" stop-color="#1D96D4"/></linearGradient><linearGradient id="paint21_linear_203_5760" x1="60.274" y1="33.512" x2="47.365" y2="23.396" gradientUnits="userSpaceOnUse"><stop stop-color="#182E58"/><stop offset="1" stop-color="#26C4F4"/></linearGradient><linearGradient id="paint22_linear_203_5760" x1="77.949" y1="48.444" x2="63.98" y2="64.198" gradientUnits="userSpaceOnUse"><stop stop-color="#293678"/><stop offset=".07" stop-color="#1D4382"/><stop offset=".24" stop-color="#005B98"/><stop offset=".41" stop-color="#026FAD"/><stop offset=".57" stop-color="#0B80BE"/><stop offset=".72" stop-color="#0B8DCD"/><stop offset=".87" stop-color="#1C94D2"/><stop offset="1" stop-color="#1D96D4"/></linearGradient><linearGradient id="paint23_linear_203_5760" x1="73.445" y1="52.638" x2="63.423" y2="65.588" gradientUnits="userSpaceOnUse"><stop stop-color="#182E58"/><stop offset="1" stop-color="#26C4F4"/></linearGradient><linearGradient id="paint24_linear_203_5760" x1="79.32" y1="52.034" x2="63.683" y2="66.102" gradientUnits="userSpaceOnUse"><stop stop-color="#293678"/><stop offset=".07" stop-color="#1D4382"/><stop offset=".24" stop-color="#005B98"/><stop offset=".41" stop-color="#026FAD"/><stop offset=".57" stop-color="#0B80BE"/><stop offset=".72" stop-color="#0B8DCD"/><stop offset=".87" stop-color="#1C94D2"/><stop offset="1" stop-color="#1D96D4"/></linearGradient><linearGradient id="paint25_linear_203_5760" x1="60.077" y1="60.969" x2="73.653" y2="44.558" gradientUnits="userSpaceOnUse"><stop stop-color="#182E58"/><stop offset="1" stop-color="#26C4F4"/></linearGradient><linearGradient id="paint26_linear_203_5760" x1="73.674" y1="40.234" x2="75.211" y2="67.893" gradientUnits="userSpaceOnUse"><stop offset=".01" stop-color="#09C3F4"/><stop offset=".44" stop-color="#29AAE1"/><stop offset=".5" stop-color="#279ED6"/><stop offset=".62" stop-color="#2684BF"/><stop offset=".78" stop-color="#205FA0"/><stop offset=".98" stop-color="#283678"/><stop offset="1" stop-color="#293374"/></linearGradient><linearGradient id="paint27_linear_203_5760" x1="73.315" y1="48.337" x2="75.932" y2="69.735" gradientUnits="userSpaceOnUse"><stop stop-color="#182E58"/><stop offset="1" stop-color="#26C4F4"/></linearGradient><linearGradient id="paint28_linear_203_5760" x1="77.009" y1="33.343" x2="49.178" y2="34.909" gradientUnits="userSpaceOnUse"><stop offset=".01" stop-color="#09C3F4"/><stop offset=".44" stop-color="#29AAE1"/><stop offset=".5" stop-color="#279ED6"/><stop offset=".62" stop-color="#2684BF"/><stop offset=".78" stop-color="#205FA0"/><stop offset=".98" stop-color="#283678"/><stop offset="1" stop-color="#293374"/></linearGradient><linearGradient id="paint29_linear_203_5760" x1="68.854" y1="32.986" x2="47.33" y2="35.651" gradientUnits="userSpaceOnUse"><stop stop-color="#182E58"/><stop offset="1" stop-color="#26C4F4"/></linearGradient><linearGradient id="paint30_linear_203_5760" x1="77.009" y1="43.295" x2="49.178" y2="41.721" gradientUnits="userSpaceOnUse"><stop offset=".01" stop-color="#09C3F4"/><stop offset=".44" stop-color="#29AAE1"/><stop offset=".5" stop-color="#279ED6"/><stop offset=".62" stop-color="#2684BF"/><stop offset=".78" stop-color="#205FA0"/><stop offset=".98" stop-color="#283678"/><stop offset="1" stop-color="#293374"/></linearGradient><linearGradient id="paint31_linear_203_5760" x1="53.941" y1="42.264" x2="94.822" y2="29.583" gradientUnits="userSpaceOnUse"><stop stop-color="#182E58"/><stop offset="1" stop-color="#26C4F4"/></linearGradient><clipPath id="clip0_203_5760"><path fill="#fff" d="M0 0h160v120H0z"/></clipPath></defs></svg>