<svg width="160" height="120" fill="none" xmlns="http://www.w3.org/2000/svg"><path d="M93.412 63.616c-2.198.521-4.594.782-7.188.782-2.688 0-5.163-.414-7.424-1.242-2.261-.828-4.207-1.994-5.836-3.497-1.629-1.502-2.902-3.305-3.819-5.407-.917-2.1-1.376-4.44-1.376-7.016 0-2.607.467-4.969 1.4-7.085.932-2.117 2.222-3.92 3.867-5.407 1.643-1.487 3.573-2.63 5.788-3.428 2.213-.797 4.602-1.196 7.164-1.196 2.656 0 5.123.391 7.4 1.173 2.278.782 4.128 1.833 5.551 3.152l-5.124 5.66c-.79-.89-1.834-1.618-3.13-2.186-1.297-.567-2.769-.851-4.413-.851-1.423 0-2.736.253-3.937.758a9.491 9.491 0 00-3.132 2.117 9.576 9.576 0 00-2.064 3.221c-.49 1.242-.735 2.6-.735 4.072 0 1.503.221 2.883.664 4.141.442 1.258 1.099 2.34 1.97 3.244.87.905 1.944 1.61 3.225 2.116 1.281.506 2.744.76 4.389.76.948 0 1.85-.07 2.704-.207a10.31 10.31 0 002.372-.668v-5.935h-6.404v-6.35h13.853v17.255c-1.645.828-3.566 1.503-5.765 2.024z" fill="#231F20"/><path d="M121.048 40.656l-4.459 6.12-4.413-6.12h-9.061l8.538 10.905-9.44 12.008h9.015l5.218-7.039 5.077 7.04h9.157l-9.348-12.009 8.493-10.905h-8.777z" fill="url(#paint0_linear_203_4715)"/><path d="M151.363 41.07c0-.767-.159-1.395-.474-1.886a3.28 3.28 0 00-1.281-1.15 5.633 5.633 0 00-1.827-.553 15.8 15.8 0 00-2.111-.138h-3.558v7.684h3.416c.758 0 1.486-.061 2.182-.184a5.988 5.988 0 001.874-.644 3.517 3.517 0 001.305-1.22c.315-.506.474-1.142.474-1.91zm8.113-.047c0 1.903-.364 3.505-1.091 4.809a8.808 8.808 0 01-2.942 3.151c-1.233.799-2.656 1.381-4.27 1.749-1.613.368-3.29.552-5.029.552h-4.032V63.57h-8.113V30.993h12.335c1.834 0 3.55.177 5.148.53 1.596.352 2.988.92 4.175 1.702a8.347 8.347 0 012.799 3.083c.68 1.273 1.02 2.845 1.02 4.715zM79.864 88.495V78.71c0-.503-.044-.983-.13-1.439a3.921 3.921 0 00-.427-1.205 2.19 2.19 0 00-.834-.827c-.36-.204-.81-.306-1.355-.306-.543 0-1.02.102-1.427.306a2.865 2.865 0 00-1.02.846 3.767 3.767 0 00-.613 1.24 5.19 5.19 0 00-.204 1.457v9.713h-6.12V70.58h5.898v2.482h.074c.223-.383.513-.761.872-1.133a5.226 5.226 0 011.26-.954 8.035 8.035 0 011.577-.647 6.4 6.4 0 011.818-.252c1.236 0 2.286.216 3.153.648.865.431 1.563.99 2.096 1.673a6.501 6.501 0 011.15 2.356c.235.887.352 1.775.352 2.662v11.08h-6.12zm23.443-11.008c0-.935-.303-1.739-.908-2.41-.607-.672-1.515-1.008-2.727-1.008-.593 0-1.137.09-1.632.27-.495.18-.927.426-1.298.737a3.676 3.676 0 00-.89 1.098 3.15 3.15 0 00-.372 1.313h7.827zm5.602 2.266v.72c0 .24-.013.468-.037.683H95.48c.05.504.204.96.464 1.367.26.409.594.762 1.002 1.062.407.3.865.534 1.373.701a4.972 4.972 0 001.576.252c.964 0 1.78-.174 2.448-.522a4.813 4.813 0 001.632-1.349l4.228 2.59c-.865 1.223-2.009 2.165-3.43 2.824-1.423.66-3.073.99-4.953.99-1.384 0-2.695-.21-3.931-.63-1.237-.42-2.319-1.03-3.246-1.835a8.507 8.507 0 01-2.189-2.967c-.532-1.175-.798-2.518-.798-4.03 0-1.462.26-2.788.78-3.975.519-1.187 1.223-2.194 2.114-3.022.89-.827 1.941-1.469 3.153-1.925 1.212-.455 2.523-.683 3.932-.683 1.36 0 2.609.222 3.747.665a8.184 8.184 0 012.93 1.925c.816.84 1.453 1.859 1.91 3.058.458 1.2.687 2.566.687 4.1zm27.3 8.742h-6.12l-3.636-11.153h-.073l-3.562 11.153h-6.12l-6.38-17.916h6.565l3.191 11.333h.111l3.301-11.333h6.12l3.413 11.333h.074l3.227-11.333h6.306l-6.417 17.916zm19.66-12.627a6.807 6.807 0 00-1.744-1.151 4.935 4.935 0 00-2.114-.468 3.81 3.81 0 00-1.576.324c-.482.216-.723.588-.723 1.115 0 .504.265.864.797 1.08.532.215 1.391.455 2.579.719.691.144 1.39.348 2.095.611a7.473 7.473 0 011.91 1.044c.569.432 1.026.96 1.373 1.583.346.624.519 1.367.519 2.23 0 1.127-.235 2.081-.704 2.86a5.683 5.683 0 01-1.837 1.89 8.046 8.046 0 01-2.541 1.042c-.94.216-1.879.324-2.819.324-1.509 0-2.986-.234-4.433-.702-1.446-.467-2.653-1.156-3.617-2.068l3.413-3.49a6.81 6.81 0 002.003 1.439 5.701 5.701 0 002.522.576 3.39 3.39 0 001.466-.342c.482-.228.723-.63.723-1.205 0-.552-.296-.96-.89-1.223-.594-.264-1.521-.54-2.782-.828a14.56 14.56 0 01-1.929-.575 6.147 6.147 0 01-1.725-.972 4.865 4.865 0 01-1.242-1.51c-.322-.6-.483-1.32-.483-2.159 0-1.08.235-1.996.705-2.752a5.876 5.876 0 011.818-1.853 8.22 8.22 0 012.466-1.061c.903-.228 1.8-.342 2.69-.342 1.384 0 2.739.21 4.062.63 1.322.42 2.442 1.05 3.357 1.889l-3.339 3.345z" fill="#231F20"/><path d="M43.458 68.893L26.1 78.677 8.74 68.893l-8.716 4.88L26.1 88.439l26.074-14.666-8.716-4.88z" fill="#893144"/><path d="M.023 73.772l8.716-4.88V49.471l17.376-9.71V30L.023 44.59v29.182z" fill="#D95544"/><path d="M26.114 30v9.761l17.344 9.71v19.421l8.716 4.88V44.59L26.114 30z" fill="#EC7A5D"/><path d="M21.697 66.996l-.846.22 10-16.378.208.824-9.362 15.334z" fill="#F1F0F0"/><path d="M30.004 51.057l.846-.22-10 16.378-.207-.824 9.361-15.334z" fill="#BABABB"/><path d="M31.06 51.662c2.017 1.16 3.311 3.257 3.72 5.495v-.001a9.025 9.025 0 01-.731 5.487 9.337 9.337 0 01-3.207 3.707c-2.323 1.567-5.403 2.127-8.041 1.159a7.245 7.245 0 01-1.103-.513l-.846.22c2.41 1.383 5.389 1.654 8.06.736 3.018-1.038 5.393-3.52 6.252-6.539 1.04-3.657-.297-7.65-3.335-9.931a9.49 9.49 0 00-.977-.644l.208.824z" fill="url(#paint1_linear_203_4715)"/><path d="M20.056 51.55a9.77 9.77 0 00-3.336 4.522 9.328 9.328 0 00-.233 5.468 9.314 9.314 0 004.364 5.677l-.208-.825c-3.34-1.919-4.567-6.208-3.462-9.773a9.278 9.278 0 013.321-4.662 9.592 9.592 0 015.064-1.871c1.543-.1 3.111.21 4.439.972l.846-.22a17.313 17.313 0 00-.373-.202 9.659 9.659 0 00-4.436-1.063c-2.12 0-4.245.67-5.986 1.976z" fill="url(#paint2_linear_203_4715)"/><path d="M31.06 51.663c3.75 2.153 5.123 7.58 2.539 11.812-2.585 4.234-8.152 5.675-11.9 3.522l9.361-15.334z" fill="#D95544"/><path d="M18.105 54.578c2.584-4.233 8.15-5.674 11.9-3.52l-9.361 15.334c-3.752-2.154-5.124-7.58-2.54-11.814z" fill="#EC7A5D"/><defs><linearGradient id="paint0_linear_203_4715" x1="102.213" y1="52.113" x2="130.679" y2="52.113" gradientUnits="userSpaceOnUse"><stop stop-color="#E85751"/><stop offset="1" stop-color="#8B3046"/></linearGradient><linearGradient id="paint1_linear_203_4715" x1="25.271" y1="69.125" x2="34.377" y2="53.269" gradientUnits="userSpaceOnUse"><stop stop-color="#BDBDBD"/><stop offset=".007" stop-color="#BDBDBD"/><stop offset="1" stop-color="#EDEDEE"/></linearGradient><linearGradient id="paint2_linear_203_4715" x1="16.715" y1="64.84" x2="26.267" y2="48.206" gradientUnits="userSpaceOnUse"><stop stop-color="#BDBDBD"/><stop offset=".007" stop-color="#BDBDBD"/><stop offset="1" stop-color="#EDEDEE"/></linearGradient></defs></svg>