<svg width="169" height="70" fill="none" xmlns="http://www.w3.org/2000/svg"><g clip-path="url(#clip0_203_4370)" fill-rule="evenodd" clip-rule="evenodd"><path d="M4.673 39.05v7.426h13.341c1.17 0 2.116-.962 2.116-2.148v-3.13c0-1.187-.947-2.148-2.116-2.148H4.673zm0-4.297h13.341c3.508 0 6.353 2.885 6.353 6.445v3.128c0 3.56-2.845 6.447-6.353 6.447H.438V24.01h22.308v4.297H4.672v6.447zm59.569.98v-7.426h13.34c1.17 0 2.118.962 2.118 2.148v3.131c0 1.186-.949 2.148-2.118 2.148h-13.34zm0 4.296h13.34c3.507 0 6.352-2.884 6.352-6.443v-3.131c0-3.557-2.845-6.446-6.352-6.446H60.007v26.764h4.235V40.03zm31.019-16.02h16.613v4.297H95.259c-1.166 0-2.115.963-2.115 2.149v13.871c0 1.187.95 2.166 2.115 2.15h16.615v4.297H95.261c-3.507 0-6.354-2.888-6.354-6.447v-13.87c0-3.558 2.847-6.447 6.354-6.447zM34.338 43.346h13.954l3.136 7.427h4.71L43.715 24.01h-4.797L26.491 50.773h4.71l3.137-7.427zm6.978-14.589L46.2 39.05h-9.77l4.886-10.293zm34.209 33.116v-2.97h5.119c.55 0 1 .445 1 .988v.992c0 .547-.45.99-1 .99h-5.119zm0 2.45h5.59c1.66 0 3.003-1.328 3.003-2.967V59.42c0-1.643-1.344-2.968-3.004-2.968h-8.063c0 3.959-.013 8.671-.013 12.627h2.474c0-1.65.013-3.105.013-4.758zm-15.518-7.87h10.68v2.45H62.48l.003 10.143h-2.476V56.453zM88.21 69.084h2.685c1.402-2.32 7.36-12.594 7.36-12.594h-2.747l-3.734 6.714-4.044-6.714h-2.75l5.189 9.085c-.316.56-1.426 2.681-1.959 3.509zm11.311-12.611v12.592h2.45l-.004-10.144 7.437.004-.002 8.113v2.03h2.473V56.473l-12.354-.001z" fill="#474244"/><path d="M145.171 68.165c.269.192.243.47-.048.616l-1.083.495c-.293.145-.762.143-1.055-.013l-15.123-7.612c-.287-.155-.524-.547-.524-.873v-5.012c0-.328.215-.439.481-.244l17.352 12.643z" fill="#474344"/><path d="M140.683 16.716c-.284.168-.56.567-.626.888L132.66 55.16c-.067.322.103.74.361.934l3.175 2.311a.51.51 0 00.769-.17L168.615.302c.158-.287.058-.383-.224-.216l-27.708 16.63z" fill="#DD2B2A"/><path d="M127.82 24.904c-.267.188-.482.611-.482.94V51.32c0 .328.215.754.482.943l2.139 1.553c.269.194.527.082.58-.239l5.472-34.053c.045-.324-.128-.43-.393-.24l-7.798 5.62z" fill="#88C826"/><path d="M139.108 59.8a.683.683 0 00.18.864l3.249 2.338a.799.799 0 00.934-.036l22.475-19.102c.251-.212.38-.64.287-.954l-5.561-19.027c-.088-.313-.301-.34-.463-.056L139.108 59.8z" fill="#F0CB15"/><path d="M165.215 49.923c-.11-.31-.41-.398-.667-.197l-18.993 14.772c-.255.2-.248.522.016.716l2.235 1.631c.263.196.717.234 1.013.089l16.96-7.113a.687.687 0 00.337-.824l-.901-9.074z" fill="#54C8ED"/></g><defs><clipPath id="clip0_203_4370"><path fill="#fff" d="M0 0h169v70H0z"/></clipPath></defs></svg>