<svg width="160" height="120" fill="none" xmlns="http://www.w3.org/2000/svg"><path d="M20 16.061c0-1.809.301-3.46.904-4.954a10.567 10.567 0 012.63-3.845c1.152-1.069 2.556-1.905 4.213-2.508 1.658-.602 3.529-.904 5.611-.904V2h4.933v1.85c2.11 0 3.994.295 5.651.884 1.658.59 3.055 1.418 4.193 2.488 1.137 1.068 2.007 2.357 2.61 3.864.602 1.507.904 3.166.904 4.975v1.398c0 1.809-.302 3.46-.904 4.954a10.567 10.567 0 01-2.63 3.845c-1.152 1.069-2.556 1.905-4.214 2.507-1.658.603-3.528.906-5.61.906v1.85h-4.933v-1.85c-2.11 0-3.994-.295-5.651-.884-1.659-.59-3.056-1.42-4.192-2.488a10.646 10.646 0 01-2.61-3.865C20.3 20.927 20 19.268 20 17.46v-1.398zm5.179 1.398c0 2.412.705 4.304 2.117 5.674 1.41 1.37 3.432 2.056 6.062 2.056V8.29c-2.658 0-4.686.679-6.083 2.036-1.397 1.357-2.096 3.268-2.096 5.735v1.398zm21.291-1.398c0-2.44-.706-4.344-2.116-5.714-1.412-1.371-3.432-2.057-6.063-2.057v16.9c2.685 0 4.72-.679 6.104-2.035 1.383-1.357 2.075-3.255 2.075-5.695v-1.398zM64.391 2.37L54.116 31.15h5.178l2.384-7.277h10.934l2.384 7.277h5.425L70.145 2.37h-5.754zm.822 10.854l1.932-5.92 1.931 5.92 2.097 6.29h-8.056l2.096-6.29zM85.148 2.37h9.865c3.864 0 6.679.816 8.447 2.446 1.767 1.631 2.65 3.982 2.65 7.051 0 2.878-.931 5.181-2.794 6.908-1.864 1.727-4.632 2.59-8.303 2.59H90.08v9.785h-4.933V2.37zm4.933 4.358v10.279h4.932c1.972 0 3.452-.466 4.44-1.398.985-.931 1.478-2.179 1.478-3.742 0-1.645-.472-2.912-1.418-3.803-.945-.89-2.445-1.336-4.5-1.336H90.08zm42.417-4.358l-6.37 15.583-6.454-15.583h-7.399v28.78h4.933V7.88l1.685 4.358 4.686 11.307h4.932l4.645-11.307 1.726-4.4V31.15h4.932V2.37h-7.316zM24.727 45.65h7.398l6.453 15.582 6.372-15.583h7.316v28.78h-4.933v-23.31l-1.726 4.399-4.645 11.307H36.03l-4.686-11.307-1.685-4.359V74.43h-4.932V45.65zm34.937 0h18.497v4.357H64.597v7.442h11.097v4.358H64.597v8.265H78.16v4.358H59.664V45.65zm23.84 24.422h2.425a14.3 14.3 0 001.254-2.2c.342-.754.622-1.686.842-2.796.22-1.11.377-2.46.473-4.05.095-1.59.143-3.562.143-5.92v-9.457h19.525v24.423h2.671v10.525h-4.767v-6.168H88.271v6.168h-4.767V70.072zm10.07-14.967c0 2.084-.04 3.913-.123 5.49-.083 1.576-.206 2.946-.37 4.11-.164 1.166-.384 2.18-.658 3.043a12.463 12.463 0 01-.986 2.324h11.796V50.007h-9.659v5.098z" fill="#040606"/><path d="M24.756 88.929v28.781h2.877V91.56h15.619v26.15h2.877V88.929H24.756zm31.354-.001h9.042c3.507 0 6.097.776 7.769 2.323 1.67 1.549 2.507 3.75 2.507 6.6 0 2.796-.843 4.981-2.528 6.557-1.686 1.577-4.269 2.365-7.748 2.365h-6.165v10.936h-2.878v-28.78zm2.877 2.632v12.582h6.165c2.548 0 4.404-.535 5.57-1.605 1.164-1.069 1.746-2.63 1.746-4.687 0-2.055-.576-3.618-1.726-4.686-1.151-1.07-3.015-1.604-5.59-1.604h-6.165zm34.609 26.437c-1.727 0-3.316-.301-4.769-.904a10.702 10.702 0 01-3.78-2.632c-1.07-1.151-1.9-2.556-2.487-4.214-.59-1.658-.885-3.529-.885-5.612v-2.632c0-2.082.301-3.947.904-5.591.604-1.645 1.432-3.043 2.488-4.194a10.707 10.707 0 013.76-2.652c1.453-.617 3.042-.924 4.769-.924 1.726 0 3.315.3 4.767.903a10.685 10.685 0 013.782 2.631c1.069 1.153 1.897 2.55 2.486 4.194.59 1.645.884 3.522.884 5.633v2.632c0 2.083-.301 3.946-.904 5.591s-1.432 3.043-2.487 4.195a10.73 10.73 0 01-3.761 2.652c-1.452.616-3.04.924-4.767.924zm0-2.713c1.287 0 2.48-.233 3.575-.699a7.8 7.8 0 002.837-2.057c.794-.904 1.417-2.02 1.869-3.35.453-1.33.679-2.843.679-4.543v-2.632c0-1.699-.233-3.207-.698-4.522-.467-1.316-1.097-2.426-1.891-3.33a8.016 8.016 0 00-2.836-2.077 8.727 8.727 0 00-3.535-.72c-1.288 0-2.481.234-3.577.7a7.79 7.79 0 00-2.836 2.055c-.794.904-1.417 2.022-1.87 3.351-.452 1.33-.678 2.844-.678 4.543v2.632c0 1.673.233 3.173.699 4.502.465 1.329 1.095 2.446 1.89 3.351a7.999 7.999 0 002.836 2.076 8.732 8.732 0 003.536.72zm42.624-26.355l-9.124 17.392-9.125-17.392h-3.864v28.781h2.878V92.3l1.849 4.03 6.782 12.951h2.877l6.782-12.95 1.85-4.031v25.41h2.877V88.929h-3.782z" fill="#997AC4"/></svg>