<svg width="160" height="120" fill="none" xmlns="http://www.w3.org/2000/svg"><path d="M0 86.999h159.999V33H0v54z" fill="#40BFB8"/><path d="M6.105 47.735c.76-.248 1.42-.396 1.981-.446.56-.05.998-.075 1.312-.075.494 0 .998.038 1.51.112a4.19 4.19 0 011.393.447c.417.222.757.539 1.023.948.265.41.398.948.398 1.618 0 .297-.055.595-.163.892a2.8 2.8 0 01-.489.837 3.3 3.3 0 01-.805.689 4.11 4.11 0 01-1.094.465v.037c.458.024.88.117 1.266.279a3.4 3.4 0 011.004.632c.284.26.504.57.66.93.157.36.236.744.236 1.153a3.97 3.97 0 01-.326 1.627c-.217.49-.579.914-1.085 1.274-.254.186-.54.341-.86.465-.32.124-.645.226-.977.307a7.07 7.07 0 01-.977.167 9.5 9.5 0 01-.877.047 12.635 12.635 0 01-1.294-.093 11.435 11.435 0 01-2.198-.503v-3.273h1.013l.272 2.139.235.316c.241.149.506.267.796.354.29.087.651.13 1.085.13.483 0 .93-.062 1.34-.186.41-.124.765-.3 1.067-.53.301-.23.54-.512.714-.846.175-.335.263-.72.263-1.154 0-.607-.112-1.084-.335-1.432a2.36 2.36 0 00-.805-.79 2.64 2.64 0 00-.986-.335 7.337 7.337 0 00-.896-.065c-.277 0-.537.016-.778.047-.241.03-.5.09-.778.177V52.98c.06 0 .19.006.39.018.198.013.4.019.605.019.362 0 .73-.034 1.104-.103a2.25 2.25 0 001.05-.51c.313-.261.533-.55.66-.866a2.7 2.7 0 00.19-1.013c0-.447-.076-.822-.226-1.125a2.077 2.077 0 00-.589-.735 2.29 2.29 0 00-.814-.4 3.488 3.488 0 00-.904-.12c-.314 0-.618.03-.914.092-.296.063-.6.162-.914.298l-.271.316-.199 1.767H6.105v-2.883zM21.266 59.06v-7.234h-1.7a23.91 23.91 0 01-.38 1.74 27.184 27.184 0 01-1.258 3.746c-.26.62-.54 1.203-.841 1.748h4.18zm2.804-8.09v.67l-.977.093-.307.298v6.843l.217.186h1.176v3.46h-.923l-.325-2.306-.272-.298h-6.006l-.272.298-.326 2.306h-.922v-3.46h.905c.373-.57.702-1.159.985-1.766a19.317 19.317 0 001.267-3.599c.139-.576.25-1.118.335-1.627l-.308-.335-1.122-.093v-.67h6.875zm3.926 7.869c.314.136.582.222.805.26.224.037.401.055.534.055.53 0 .992-.102 1.384-.306a2.93 2.93 0 00.986-.826c.265-.346.462-.747.588-1.205.127-.458.19-.94.19-1.447 0-.445-.051-.872-.154-1.28a3.218 3.218 0 00-.479-1.076 2.395 2.395 0 00-.814-.732c-.326-.18-.712-.27-1.158-.27-.35 0-.697.066-1.04.196-.344.13-.625.262-.842.398v6.233zM25.192 63.3l.995-.093.29-.297V52.124h-1.285v-.576l2.117-.67h.687v1.04c.302-.239.576-.431.823-.575a4.6 4.6 0 01.697-.34c.217-.083.419-.136.606-.161a4.04 4.04 0 01.534-.038c.446 0 .877.087 1.293.26.416.174.784.437 1.104.79.32.354.576.803.769 1.349.193.546.29 1.19.29 1.934 0 .905-.143 1.658-.426 2.26-.283.601-.588 1.063-.913 1.385a3.91 3.91 0 01-1.285.865c-.506.217-1.104.325-1.791.325a8.17 8.17 0 01-1.7-.167v3.106l.307.297 1.158.093v.67h-4.27v-.67zm15.813-8.368c-.387.112-.809.245-1.267.4-.458.155-.844.307-1.158.456-.144.074-.292.155-.443.242a1.62 1.62 0 00-.407.335 1.78 1.78 0 00-.298.474c-.079.18-.118.4-.118.66 0 .174.024.35.072.53.048.18.127.344.235.493.109.148.257.273.444.372.187.099.419.148.696.148.241 0 .53-.052.869-.158.337-.105.796-.331 1.375-.678v-3.274zm0 3.906c-.7.508-1.285.843-1.755 1.004-.47.161-.875.242-1.212.242-.41 0-.76-.072-1.05-.214a2.048 2.048 0 01-.714-.567 2.414 2.414 0 01-.416-.781 2.877 2.877 0 01-.136-.874c0-.348.054-.648.163-.902.108-.254.25-.471.425-.651.174-.18.37-.332.588-.456a5.33 5.33 0 01.65-.316c.157-.062.336-.13.535-.205.199-.074.434-.151.706-.232.27-.08.587-.17.95-.27.361-.099.783-.21 1.266-.335v-.595c0-.186-.003-.396-.01-.632a1.7 1.7 0 00-.153-.67 1.32 1.32 0 00-.47-.539c-.218-.148-.537-.223-.96-.223-.24 0-.482.025-.723.075-.241.05-.477.117-.706.204v1.562h-1.248c-.109 0-.23-.025-.362-.074-.133-.05-.199-.186-.199-.41 0-.247.063-.498.19-.752.127-.255.335-.487.624-.698.29-.21.664-.384 1.122-.52.458-.137 1.02-.205 1.683-.205.108 0 .25.003.425.01.174.006.364.033.57.083.205.05.41.12.615.214.205.093.386.226.543.4.144.148.256.316.334.502.079.186.136.372.172.558.036.186.057.356.064.511.005.155.008.282.008.381v5.393l.308.391h.959v.67h-2.533l-.253-1.08zm6.621.222c.246.063.473.103.683.121.209.019.449.028.72.028.27 0 .543-.03.82-.093.277-.062.529-.164.756-.307.228-.142.413-.331.554-.567.141-.235.212-.526.212-.874 0-.248-.04-.505-.12-.771-.08-.267-.267-.5-.562-.698a1.83 1.83 0 00-.83-.288 8.387 8.387 0 00-1.56-.019c-.24.019-.464.04-.673.065v3.404zm0-4.184c.169.025.326.04.47.047.145.006.32.009.525.009.193 0 .422-.012.688-.037.265-.025.515-.09.75-.196.236-.105.435-.269.598-.492.162-.224.244-.533.244-.93 0-.335-.06-.605-.181-.81a1.403 1.403 0 00-.461-.483 1.793 1.793 0 00-.616-.241 3.445 3.445 0 00-.66-.066c-.23 0-.452.01-.67.028-.216.019-.446.06-.687.121v3.05zm1.701-3.905c.63 0 1.146.056 1.547.167.4.112.715.26.946.447.23.185.388.4.473.641.085.242.128.5.128.772 0 .546-.164 1.004-.492 1.376a2.484 2.484 0 01-1.255.762v.038c.254.025.511.08.772.167.26.087.497.214.709.381.212.168.387.388.527.66.14.274.209.602.209.986 0 .298-.07.623-.21.977-.139.353-.415.672-.827.957a2.907 2.907 0 01-1.228.512 7.73 7.73 0 01-1.21.102h-4.594v-.67l.977-.093.307-.297V52.03l-.307-.298-.977-.093v-.67h4.505zm9.571.651c-.194 0-.453.053-.778.158-.326.106-.64.357-.941.753a3.615 3.615 0 00-.588 1.349 7.13 7.13 0 00-.172 1.553c0 .371.033.765.1 1.18.066.416.19.822.37 1.219.145.297.301.539.47.725.17.186.344.332.525.437.181.105.359.177.534.214.175.037.34.056.498.056.289 0 .603-.075.94-.224.338-.148.646-.44.923-.874s.458-.889.543-1.366a7.79 7.79 0 00.126-1.349c0-.198-.008-.418-.027-.66a5.808 5.808 0 00-.108-.753 4.314 4.314 0 00-.245-.781 3.304 3.304 0 00-.416-.726c-.313-.396-.633-.647-.958-.753-.326-.105-.592-.158-.796-.158zm.054-.818c.651 0 1.236.12 1.755.363.518.241.959.573 1.32.994.362.422.64.915.833 1.479.193.564.29 1.169.29 1.813 0 .757-.121 1.417-.363 1.98-.241.565-.536 1.033-.886 1.405-.278.297-.66.58-1.149.846-.489.267-1.101.4-1.836.4a4.118 4.118 0 01-1.936-.456 3.615 3.615 0 01-.66-.427 3.268 3.268 0 01-.462-.456c-.314-.347-.582-.79-.805-1.33-.223-.539-.335-1.193-.335-1.962 0-.595.084-1.174.253-1.739a4.33 4.33 0 01.77-1.487c.343-.428.78-.772 1.311-1.033.53-.26 1.164-.39 1.9-.39zm9.878.818c-.193 0-.452.053-.778.158-.326.106-.64.357-.94.753a3.616 3.616 0 00-.588 1.349 7.111 7.111 0 00-.073 2.734c.066.415.19.821.371 1.218.145.297.301.539.47.725.17.186.344.332.525.437.181.105.359.177.534.214.175.037.34.056.498.056.289 0 .602-.075.94-.224.338-.148.645-.44.923-.874.277-.434.458-.889.543-1.366.084-.478.126-.927.126-1.349 0-.198-.009-.418-.027-.66a5.913 5.913 0 00-.108-.753 4.338 4.338 0 00-.245-.781 3.316 3.316 0 00-.416-.726c-.313-.396-.633-.647-.959-.753-.325-.105-.59-.158-.796-.158zm.055-.818c.65 0 1.236.12 1.754.363.519.241.96.573 1.321.994.362.422.64.915.832 1.479a5.57 5.57 0 01.29 1.813c0 .757-.12 1.417-.362 1.98-.241.565-.537 1.033-.886 1.405-.278.297-.66.58-1.15.846-.488.267-1.1.4-1.835.4a4.12 4.12 0 01-1.937-.456 3.625 3.625 0 01-.66-.427 3.28 3.28 0 01-.461-.456c-.314-.347-.582-.79-.805-1.33-.224-.539-.335-1.193-.335-1.962 0-.595.084-1.174.253-1.739.17-.564.425-1.06.769-1.487a3.805 3.805 0 011.312-1.033c.53-.26 1.164-.39 1.9-.39zm8.937.166v.67l-.833.13-.09.186 1.502 2.437 1.61-2.38-.145-.243-.868-.13v-.67h3.256v.656l-1.013.2-2.357 3.273 2.629 3.962 1.085.152v.703h-3.835v-.72l.76-.136.09-.146-1.683-2.736-1.845 2.662.09.22 1.032.136v.72h-3.42v-.703l1.031-.153 2.606-3.57-2.425-3.664-1.103-.213v-.642h3.926zm8.232 7.869c.313.136.582.222.805.26.223.037.4.055.534.055.53 0 .992-.102 1.384-.306a2.94 2.94 0 00.986-.826c.265-.346.461-.747.588-1.205.126-.458.19-.94.19-1.447a5.26 5.26 0 00-.154-1.28 3.216 3.216 0 00-.48-1.076 2.394 2.394 0 00-.814-.732c-.326-.18-.712-.27-1.158-.27-.35 0-.696.066-1.04.196-.343.13-.624.262-.841.398v6.233zM83.249 63.3l.996-.093.289-.297V52.124h-1.285v-.576l2.117-.67h.688v1.04c.301-.239.576-.431.823-.575.247-.145.48-.259.697-.34.217-.083.419-.136.606-.161.187-.025.364-.038.533-.038.446 0 .878.087 1.294.26.416.174.784.437 1.103.79.32.354.576.803.77 1.349.193.546.29 1.19.29 1.934 0 .905-.143 1.658-.426 2.26-.284.601-.588 1.063-.914 1.385a3.92 3.92 0 01-1.284.865c-.507.217-1.104.325-1.792.325a8.17 8.17 0 01-1.7-.167v3.106l.307.297 1.158.093v.67h-4.27v-.67zm15.813-8.368c-.386.112-.808.245-1.266.4a10.71 10.71 0 00-1.158.456 10.6 10.6 0 00-.444.242c-.15.087-.286.198-.407.335a1.79 1.79 0 00-.298.474c-.079.18-.118.4-.118.66 0 .174.024.35.073.53.048.18.126.344.235.493.108.148.256.273.443.372.187.099.42.148.697.148.241 0 .53-.052.868-.158.338-.105.796-.331 1.375-.678v-3.274zm0 3.906c-.7.508-1.284.843-1.755 1.004-.47.161-.874.242-1.212.242-.41 0-.76-.072-1.05-.214a2.051 2.051 0 01-.714-.567 2.423 2.423 0 01-.416-.781 2.883 2.883 0 01-.136-.874c0-.348.055-.648.163-.902a2.12 2.12 0 01.425-.651 2.65 2.65 0 01.588-.456c.217-.123.435-.23.651-.316.157-.062.335-.13.534-.205.2-.074.434-.151.706-.232a57.363 57.363 0 012.216-.605v-.595c0-.186-.003-.396-.009-.632a1.698 1.698 0 00-.154-.67 1.32 1.32 0 00-.47-.539c-.217-.148-.537-.223-.959-.223-.242 0-.483.025-.724.075-.241.05-.476.117-.705.204v1.562h-1.248c-.11 0-.23-.025-.362-.074-.133-.05-.2-.186-.2-.41 0-.247.064-.498.19-.752.127-.255.335-.487.625-.698.29-.21.663-.384 1.121-.52.459-.137 1.02-.205 1.683-.205.109 0 .25.003.425.01.175.006.365.033.57.083.205.05.41.12.615.214.205.093.386.226.543.4.145.148.256.316.335.502.078.186.135.372.172.558.036.186.057.356.063.511.006.155.009.282.009.381v5.393l.308.391h.959v.67h-2.534l-.253-1.08zm3.836.408l.977-.093.307-.297V52.03l-.307-.298-.977-.093v-.67h3.98v.67l-.868.093-.308.298v2.79h4.053v-2.79l-.308-.298-.868-.093v-.67h3.98v.67l-.977.093-.308.298v6.825l.308.297.977.093v.67h-3.98v-.67l.868-.093.308-.297v-3.18h-4.053v3.18l.308.297.868.093v.67h-3.98v-.67zm16.88-5.039v-.452c0-.18-.024-.388-.072-.623a2.065 2.065 0 00-.181-.551 2.958 2.958 0 00-.145-.235 1.305 1.305 0 00-.299-.307 2.121 2.121 0 00-.47-.262 1.759 1.759 0 00-.679-.118c-.386 0-.72.079-1.004.235a2.273 2.273 0 00-.705.597c-.187.24-.329.512-.425.813a4.802 4.802 0 00-.199.903h4.179zm1.61 4.76a6.116 6.116 0 01-1.583.82 5.305 5.305 0 01-1.746.297c-.687 0-1.288-.118-1.8-.354a3.616 3.616 0 01-1.284-.967 4.03 4.03 0 01-.769-1.45 6.159 6.159 0 01-.254-1.804c0-.707.112-1.36.335-1.962a4.45 4.45 0 01.932-1.534c.12-.124.271-.257.452-.4a3.698 3.698 0 011.456-.698 4.348 4.348 0 011.023-.111c.349 0 .714.053 1.094.158.38.105.73.294 1.05.567.319.273.578.651.778 1.135.199.483.298 1.097.298 1.84v.521h-5.862v.28c0 .458.061.898.181 1.32.121.421.308.815.561 1.18.253.367.57.66.95.884.38.223.829.335 1.348.335.301 0 .687-.065 1.158-.196.47-.13 1.031-.424 1.682-.883v1.023zm1.483.279l.977-.093.308-.297V52.03l-.308-.298-.977-.093v-.67h3.981v.67l-.869.093-.307.298v2.79h4.052v-2.79l-.307-.298-.869-.093v-.67h3.981v.67l-.977.093-.308.298v6.825l.308.297.977.093v.67h-3.981v-.67l.869-.093.307-.297v-3.18h-4.052v3.18l.307.297.869.093v.67h-3.981v-.67zm10.928 0l.977-.093.308-.297V52.03l-.308-.298-.977-.093v-.67h3.981v.67l-.869.093-.308.298v5.077l4.198-4.63v-.447l-.308-.298-.868-.093v-.67h3.98v.67l-.977.093-.307.298v6.825l.307.297.977.093v.67h-3.98v-.67l.868-.093.308-.297V53.63l-4.198 4.63v.596l.308.297.869.093v.67h-3.981v-.67zm17.025-5.039v-.452c0-.18-.024-.388-.073-.623a2.032 2.032 0 00-.18-.551 2.958 2.958 0 00-.145-.235 1.305 1.305 0 00-.299-.307 2.121 2.121 0 00-.47-.262 1.759 1.759 0 00-.679-.118 2.05 2.05 0 00-1.004.235 2.273 2.273 0 00-.705.597c-.188.24-.329.512-.425.813a4.802 4.802 0 00-.199.903h4.179zm1.61 4.76a6.12 6.12 0 01-1.583.82 5.305 5.305 0 01-1.746.297c-.687 0-1.288-.118-1.8-.354a3.628 3.628 0 01-1.285-.967 4.046 4.046 0 01-.769-1.45 6.193 6.193 0 01-.253-1.804c0-.707.112-1.36.335-1.962a4.465 4.465 0 01.932-1.534c.12-.124.271-.257.452-.4a3.698 3.698 0 011.456-.698 4.348 4.348 0 011.023-.111c.349 0 .714.053 1.094.158.38.105.73.294 1.049.567.32.273.58.651.778 1.135.199.483.299 1.097.299 1.84v.521h-5.862v.28c0 .458.06.898.181 1.32.12.421.307.815.561 1.18.253.367.57.66.95.884.38.223.829.335 1.348.335.301 0 .687-.065 1.157-.196.471-.13 1.032-.424 1.683-.883v1.023zM8.728 72.84a4.5 4.5 0 00.778.103c.217.006.362.01.434.01a3.45 3.45 0 001.204-.205c.367-.137.687-.338.958-.605a2.73 2.73 0 00.634-.995c.15-.396.226-.849.226-1.357a4.24 4.24 0 00-.154-1.144 2.184 2.184 0 00-.588-.976 2.408 2.408 0 00-.588-.419 3.271 3.271 0 00-1.293-.344 10.82 10.82 0 00-.616-.018c-.205 0-.395.002-.57.009a5.793 5.793 0 00-.425.028v5.914zm-2.967 4.91l1.031-.093.308-.26V67.15l-.308-.26-1.176-.093v-.763h4.125c1.025 0 1.864.09 2.515.27.652.18 1.164.43 1.538.753.374.322.63.704.769 1.143.138.44.208.921.208 1.442 0 .793-.13 1.457-.389 1.99-.26.533-.603.96-1.031 1.283a4 4 0 01-1.484.688 7.424 7.424 0 01-1.764.205c-.217 0-.473-.01-.769-.028a14.16 14.16 0 01-.606-.047v3.664l.308.26 1.284.093v.763H5.761v-.763zm14.293-7.531c-.193 0-.452.053-.778.158-.326.105-.64.356-.94.753a3.615 3.615 0 00-.589 1.348 7.115 7.115 0 00-.072 2.734c.066.416.19.822.37 1.218.145.298.302.54.471.726.169.185.344.331.525.437a1.8 1.8 0 00.533.213c.175.038.341.056.498.056.29 0 .603-.074.94-.223.338-.149.646-.44.924-.874.277-.434.458-.89.542-1.367.084-.477.127-.927.127-1.348 0-.198-.01-.419-.027-.66a5.845 5.845 0 00-.109-.754 4.336 4.336 0 00-.244-.78 3.312 3.312 0 00-.416-.726c-.314-.397-.633-.648-.96-.753-.325-.105-.59-.158-.795-.158zm.054-.818c.651 0 1.236.12 1.755.362a3.88 3.88 0 011.32.995c.363.422.64.915.833 1.479.193.564.29 1.168.29 1.813 0 .756-.121 1.416-.362 1.98-.242.565-.537 1.033-.887 1.404-.277.298-.66.58-1.149.847-.488.266-1.1.4-1.836.4a4.13 4.13 0 01-2.596-.884 3.264 3.264 0 01-.462-.456c-.313-.346-.582-.79-.805-1.33-.223-.538-.335-1.192-.335-1.961 0-.595.085-1.175.254-1.74a4.335 4.335 0 01.769-1.487c.344-.427.78-.771 1.311-1.032.531-.26 1.164-.39 1.9-.39zm12.719 8.331c-.688.422-1.27.685-1.746.79-.477.105-.871.159-1.185.159a4.289 4.289 0 01-1.637-.307 3.54 3.54 0 01-1.294-.902 4.243 4.243 0 01-.85-1.46c-.206-.576-.308-1.23-.308-1.962 0-.72.102-1.367.308-1.943a4.12 4.12 0 01.877-1.47c.38-.403.841-.71 1.384-.92a4.967 4.967 0 011.81-.316c.494 0 .907.056 1.239.167.331.112.6.254.805.428.205.173.353.362.443.567.09.204.136.4.136.586 0 .31-.09.558-.272.744-.18.186-.416.278-.705.278-.097 0-.224-.018-.38-.055a1.541 1.541 0 01-.47-.205v-1.525a1.649 1.649 0 00-.359-.167 1.666 1.666 0 00-.537-.074c-.215 0-.483.052-.806.157-.322.106-.632.338-.931.698-.298.36-.513.8-.645 1.32a6.385 6.385 0 00-.178 2.046 5.108 5.108 0 00.377 1.59c.12.291.29.555.512.79.222.236.503.431.845.586.341.156.763.233 1.267.233.467 0 .898-.087 1.293-.26a6.453 6.453 0 001.007-.54v.967zm8.25 0c-.687.422-1.27.685-1.746.79-.476.105-.872.159-1.185.159a4.289 4.289 0 01-1.637-.307 3.542 3.542 0 01-1.294-.902 4.244 4.244 0 01-.85-1.46c-.206-.576-.308-1.23-.308-1.962 0-.72.102-1.367.308-1.943a4.12 4.12 0 01.877-1.47c.38-.403.842-.71 1.385-.92a4.966 4.966 0 011.809-.316c.494 0 .907.056 1.239.167.332.112.6.254.805.428.205.173.353.362.443.567.09.204.136.4.136.586 0 .31-.09.558-.271.744-.181.186-.416.278-.706.278-.096 0-.223-.018-.38-.055a1.538 1.538 0 01-.47-.205v-1.525a1.653 1.653 0 00-.358-.167 1.666 1.666 0 00-.538-.074c-.215 0-.483.052-.806.157-.322.106-.632.338-.93.698-.3.36-.514.8-.645 1.32a6.375 6.375 0 00-.18 2.046 5.119 5.119 0 00.377 1.59c.121.291.292.555.514.79.22.236.503.431.844.586.342.156.764.233 1.267.233.467 0 .898-.087 1.294-.26.395-.174.73-.354 1.006-.54v.967zm1.086.111l.977-.093.307-.297v-6.826l-.307-.297-.977-.093v-.67h3.98v.67l-.869.093-.307.297v5.077l4.197-4.63v-.447l-.307-.297-.869-.093v-.67h3.98v.67l-.977.093-.307.297v6.826l.308.297.977.093v.67h-3.98v-.67l.868-.093.307-.297v-5.226l-4.197 4.63v.596l.307.297.869.093v.67h-3.98v-.67zm11.072 0l.977-.093.307-.297v-6.826l-.307-.297-.977-.093v-.67h3.98v.67l-.869.093-.307.297v5.077l4.197-4.63v-.447l-.307-.297-.868-.093v-.67h3.98v.67l-.977.093-.308.297v6.826l.308.297.977.093v.67h-3.98v-.67l.868-.093.307-.297v-5.226l-4.197 4.63v.596l.307.297.87.093v.67h-3.981v-.67z" fill="#fff"/></svg>