<svg width="160" height="120" fill="none" xmlns="http://www.w3.org/2000/svg"><path fill-rule="evenodd" clip-rule="evenodd" d="M84.684 84.484c3.763 0 7.145-2.888 7.145-6.955 0-3.192-2.47-5.966-5.967-5.966-3.762 0-7.144 2.888-7.144 6.954 0 3.193 2.432 5.967 5.966 5.967zm1.634-18.736c7.297 0 11.934 5.358 11.934 11.591 0 6.955-6.309 12.922-14.1 12.922-7.297 0-11.933-5.358-11.933-11.592 0-6.955 6.308-12.921 14.1-12.921zm-32.646.684h19.23l-1.178 5.624h-6.46l-3.725 17.559H55.23l3.725-17.558h-6.46l1.177-5.625zm-2.204-23.563l-.266 1.33c-1.558 7.297-4.94 9.957-4.94 9.957h7.448l2.394-11.287h-4.636zM62.68 54.156l-1.938 9.084h-6.309l.684-3.117H43.184l-.988 4.637h-6.271l2.204-10.604h1.33s3.877-2.66 5.435-9.957l1.52-7.297h17.255L60.02 54.156h2.66zm15.164-12.123c-3.762 0-7.145 2.888-7.145 6.955 0 3.192 2.47 5.966 5.967 5.966 3.763 0 7.145-2.888 7.145-6.955 0-3.154-2.47-5.966-5.967-5.966zM76.171 60.77c-7.297 0-11.933-5.36-11.933-11.592 0-6.955 6.308-12.922 14.1-12.922 7.296 0 11.933 5.359 11.933 11.592 0 6.954-6.309 12.922-14.1 12.922zm35.914-.647h-7.106l-3.801-8.437-3.344 3.04-1.14 5.359h-6.271l4.902-23.22h6.309l-1.9 8.968 9.501-8.969h7.829l-10.831 10.11 5.852 13.15zm.419 11.934h-3.573l-1.064 4.978h4.218c1.597 0 2.927-1.178 2.927-2.66-.038-1.216-1.14-2.319-2.508-2.319zm-.456 10.603h-5.359l-1.444 6.955h-6.31l4.904-23.221h9.881c4.408 0 7.601 3.002 7.601 7.373-.038 5.13-4.181 8.893-9.273 8.893zM79.819 5.738c-30.023 0-54.384 24.361-54.384 54.385 0 30.024 24.36 54.385 54.384 54.385s54.385-24.361 54.385-54.385c0-30.024-24.323-54.385-54.385-54.385zm-.038 114.09C46.755 119.828 20 93.074 20 60.048 20 27.02 46.755.265 79.781.265c33.027 0 59.782 26.755 59.782 59.781 0 33.027-26.755 59.781-59.781 59.781z" fill="#00AFE7"/></svg>