<svg width="160" height="120" fill="none" xmlns="http://www.w3.org/2000/svg"><path fill-rule="evenodd" clip-rule="evenodd" d="M.005 61.776H159.88v2.643H.005v-2.643z" fill="#BFE2AA"/><path fill-rule="evenodd" clip-rule="evenodd" d="M13.35 43l4.809 12.785L23.313 43h6.185v.73h-.78c-.075 0-.16.003-.25.01a1.042 1.042 0 00-.277.064c-.214.082-.416.238-.607.463-.19.225-.286.59-.286 1.09v13.887c0 .502.096.866.286 1.09.19.226.393.382.607.463.09.033.184.056.274.062.092.007.178.013.253.013h.78v.727h-8.155v-.727h.777c.077 0 .163-.003.253-.01.089-.006.184-.032.273-.065.215-.081.417-.237.608-.462.19-.225.288-.59.288-1.091v-14.19l-6.598 16.544h-.619l-6.32-16.993v14.639c0 .502.094.866.285 1.09.19.226.393.382.607.463.09.033.184.056.274.062.089.007.175.013.253.013h.78v.727H6.682v-.727h.776c.078 0 .164-.003.253-.01.09-.006.185-.032.274-.065.215-.081.417-.237.607-.462.19-.225.29-.59.29-1.091V45.358c0-.502-.096-.866-.287-1.091-.19-.225-.395-.381-.61-.463a1.036 1.036 0 00-.274-.062c-.089-.006-.175-.013-.253-.013h-.776V43h6.666zm26.392 15.114a3.801 3.801 0 01-.148.342 3.732 3.732 0 00-.15.338 7.493 7.493 0 01-1.648 2.18c-.702.65-1.634.976-2.795.976-1.634 0-2.88-.619-3.732-1.853-.854-1.237-1.283-2.693-1.283-4.36 0-2.157.486-3.922 1.453-5.29.97-1.37 2.167-2.057 3.583-2.057 1.375 0 2.51.583 3.402 1.742.893 1.16 1.33 2.761 1.318 4.8h-6.39v.153c0 .215.013.446.033.687.024.241.06.492.105.74.166.833.497 1.595.984 2.28.489.683 1.2 1.028 2.132 1.028.455 0 .898-.156 1.324-.462.428-.31.836-.85 1.217-1.619l.595.375zm-3.16-4.286v-.186c0-.058.008-.114.02-.162v-.326c0-1.02-.092-1.782-.273-2.28-.182-.501-.375-.853-.572-1.055a.953.953 0 00-.401-.248 1.368 1.368 0 00-.31-.051c-.09 0-.194.016-.307.048a1.083 1.083 0 00-.357.202c-.258.215-.497.629-.708 1.228-.214.6-.321 1.547-.321 2.833l3.229-.003zm3.325 6.644h.393c.166 0 .342-.046.523-.137.185-.091.378-.241.575-.44.503-.534.967-1.475 1.383-2.817.42-1.345.632-3.214.632-5.605 0-.635-.084-1.126-.25-1.465-.167-.342-.614-.524-1.33-.54v-.603h9.666v.602h-.137c-.304 0-.527.072-.664.212a.908.908 0 00-.253.466c-.012.084-.027.166-.033.237a2.84 2.84 0 00-.011.215v8.748c0 .365.062.625.181.775.122.15.253.254.39.303.077.013.152.03.217.036.069.006.128.013.173.013h.526v4.21h-.57c0-.182-.016-.374-.046-.573a8.598 8.598 0 00-.115-.605 3.165 3.165 0 00-.7-1.316c-.342-.39-.875-.59-1.592-.59h-6.072c-.684 0-1.21.2-1.568.59a3.26 3.26 0 00-.744 1.316c-.06.202-.107.404-.137.602a3.8 3.8 0 00-.044.554l-.575.023.182-4.211zm7.196-10.48l-2.658.003c-.015 2.755-.17 4.856-.458 6.292-.292 1.436-.607 2.491-.94 3.159a4.49 4.49 0 01-.367.6 6.188 6.188 0 01-.342.426h4.765v-10.48zm14.024.928v-.534a.523.523 0 00-.048-.215.896.896 0 00-.25-.489c-.137-.143-.378-.215-.711-.215h-.093v-.602h5.497v.602h-.112c-.333 0-.568.072-.696.212-.131.143-.22.31-.265.492a.976.976 0 00-.024.211v9.487c0 .284.057.544.17.779.113.234.41.351.883.351h.045v.6h-5.497v-.6h.069c.44 0 .726-.11.848-.325.122-.215.185-.463.185-.73V53.23l-3.233 6.39v.25c0 .065.006.14.012.212.006.075.021.156.033.24.03.167.116.323.253.463.137.144.36.215.664.215h.137v.6h-5.497V61h.137c.41 0 .678-.11.791-.325a1.56 1.56 0 00.173-.73v-9.558a.526.526 0 00-.048-.215.897.897 0 00-.25-.489c-.137-.143-.378-.215-.711-.215h-.092v-.602h5.497v.602h-.113c-.334 0-.569.072-.697.212-.13.143-.22.31-.265.492a.976.976 0 00-.024.211v6.882l3.233-6.344zm17.963-1.453h-.137c-.306 0-.53.072-.666.212a.91.91 0 00-.253.466c-.012.084-.027.166-.033.237-.006.075-.012.15-.012.215v8.96c0 .075.015.156.045.237.03.183.113.349.241.489.13.143.357.215.678.215h.527v4.185h-.527a14.644 14.644 0 00-.056-.538 3.111 3.111 0 00-.128-.54 3.533 3.533 0 00-.744-1.378c-.357-.417-.875-.628-1.547-.628h-9.096v-.6h.137c.41 0 .679-.11.792-.325a1.56 1.56 0 00.172-.73v-9.347c0-.065-.005-.14-.011-.211-.006-.075-.021-.157-.036-.241a.927.927 0 00-.238-.463c-.131-.143-.357-.215-.679-.215h-.137v-.602h5.36v.602h-.181a.873.873 0 00-.539.264c-.16.157-.241.45-.241.866v9.9h2.91v-9.9c0-.367-.074-.654-.217-.853a.693.693 0 00-.586-.3h-.069c-.014.014-.032.023-.044.023h-.048v-.602h5.363v.602zm9.396 1.453v-.534a.522.522 0 00-.048-.215.896.896 0 00-.25-.489c-.136-.143-.377-.215-.71-.215h-.093v-.602h5.496v.602h-.112c-.334 0-.569.072-.697.212-.13.143-.22.31-.264.492a.976.976 0 00-.024.211v9.487c0 .284.056.544.17.779.112.234.41.351.883.351h.044v.6h-5.496v-.6h.068c.44 0 .727-.11.849-.325.122-.215.184-.463.184-.73V53.23l-3.232 6.39v.25c0 .065.006.14.012.212.006.075.02.156.033.24.03.167.116.323.253.463.137.144.36.215.663.215h.137v.6h-5.497V61h.137c.41 0 .679-.11.792-.325a1.56 1.56 0 00.172-.73v-9.558a.522.522 0 00-.047-.215.895.895 0 00-.25-.489c-.137-.143-.378-.215-.712-.215h-.092v-.602h5.497v.602h-.112c-.333 0-.568.072-.696.212-.131.143-.22.31-.265.492a.976.976 0 00-.024.211v6.882l3.232-6.344zm13.405 3.335v-3.658a2.438 2.438 0 00-.048-.453.928.928 0 00-.238-.462c-.131-.143-.357-.215-.678-.215h-.021v-.602h5.38v.602h-.137c-.303 0-.526.072-.663.212a.911.911 0 00-.253.466c-.012.084-.027.166-.033.237-.006.075-.012.15-.012.215v9.272c0 .065.006.14.012.212.006.075.021.156.033.24a.89.89 0 00.253.463c.137.144.36.215.663.215h.137v.6h-5.38v-.6h.021c.321 0 .547-.071.675-.211a.933.933 0 00.241-.466c.015-.085.03-.166.036-.238.006-.075.012-.15.012-.215v-4.487h-2.98v4.487c0 .368.078.652.23.84.152.193.399.29.732.29h.024v.6h-5.384v-.6h.16c.304 0 .525-.071.653-.211.13-.144.21-.3.24-.466.015-.085.03-.166.036-.238.006-.075.012-.15.012-.215v-9.272a2.635 2.635 0 00-.047-.452.927.927 0 00-.239-.463c-.13-.143-.35-.215-.654-.215h-.161v-.602h5.384v.602h-.024c-.333 0-.58.095-.732.277-.152.182-.23.47-.23.853v3.658h2.98zm15.238 4.184c-.625 1.27-1.345 2.176-2.154 2.71a4.85 4.85 0 01-2.727.801c-1.526 0-2.747-.628-3.651-1.879-.908-1.25-1.363-2.79-1.363-4.611 0-2.17.523-3.889 1.568-5.15 1.045-1.262 2.28-1.894 3.699-1.894 1.161 0 2.093.273 2.795.814.702.543 1.146 1.136 1.327 1.768.045.117.078.234.093.352.014.117.023.234.023.352 0 .097-.006.205-.012.312a2.04 2.04 0 01-.491 1.163c-.214.25-.55.378-1.008.378-.566 0-1.021-.235-1.364-.7-.342-.47-.547-1.14-.607-2.007a2.667 2.667 0 00-.047-.45 1.343 1.343 0 00-.286-.589c-.143-.176-.378-.264-.7-.264-.455 0-.874.307-1.255.916-.381.609-.575 1.608-.575 2.993 0 1.869.259 3.276.777 4.21.518.935 1.086 1.547 1.696 1.83.182.085.363.15.536.19.176.039.351.062.518.062.107 0 .214-.01.321-.023.107-.017.215-.046.322-.078.363-.098.72-.284 1.062-.55.345-.268.64-.63.884-1.079l.619.424zm5.018-3.735c1.191-1.185 2.015-2.11 2.473-2.768.459-.658.688-1.176.688-1.54a.914.914 0 00-.182-.564 1.085 1.085 0 00-.413-.339.4.4 0 01-.09-.013.474.474 0 00-.095-.013h-.387v-.602h5.244v.602a3.319 3.319 0 00-1.753.678 9.326 9.326 0 00-1.431 1.403.342.342 0 00-.137.15l-1.351 1.632 3.985 6.692a2.55 2.55 0 00.365.502c.108.097.227.195.355.286.131.092.283.157.449.19v.599h-5.726v-.6h.226a.6.6 0 00.105-.013.379.379 0 00.104-.039.684.684 0 00.262-.185c.083-.092.128-.232.128-.414a.846.846 0 00-.069-.352 7.841 7.841 0 00-.14-.277.23.23 0 00-.044-.075l-2.2-3.986-.366.427v3.911c0 .05.009.091.024.124.012.215.086.42.214.602.131.183.366.277.7.277h.047v.6h-5.383v-.6h.136c.322 0 .548-.071.676-.211a.933.933 0 00.241-.466c.015-.085.03-.166.036-.238.006-.075.012-.15.012-.215v-9.272c0-.065-.006-.14-.012-.211-.006-.075-.021-.157-.036-.241a.928.928 0 00-.238-.463c-.131-.143-.357-.215-.679-.215h-.136v-.602h5.383v.602c-.303 0-.526.065-.663.19a.915.915 0 00-.277.439c-.012.098-.027.192-.033.274-.006.084-.012.162-.012.227v4.107zm19.339 5.217c-.077.134-.152.26-.217.375a3.147 3.147 0 01-.22.329c-.333.482-.693.827-1.074 1.026-.381.198-.852.3-1.399.3-.107 0-.235-.004-.378-.01a1.467 1.467 0 01-.423-.088c-.274-.098-.535-.29-.779-.564-.244-.273-.399-.733-.459-1.368h-.092a9.105 9.105 0 01-1.717 1.44c-.61.39-1.247.59-1.902.59-.732 0-1.298-.252-1.685-.75a2.802 2.802 0 01-.583-1.755c0-.785.313-1.648.938-2.583.625-.934 2.27-1.973 4.928-3.106v-2.658c0-.433-.086-.765-.253-.99a1.58 1.58 0 00-.551-.489 1.24 1.24 0 00-.386-.123 2.399 2.399 0 00-.301-.026 1.82 1.82 0 00-.985.26c-.274.176-.414.381-.414.616 0 .133.024.254.069.351.047.098.101.193.16.277a.337.337 0 01.045.049c.015.016.033.036.048.049.107.133.199.283.274.44.077.156.116.354.116.59 0 .048-.006.103-.012.162-.006.058-.012.114-.012.163-.06.316-.223.609-.479.876-.259.267-.637.404-1.125.404-.471 0-.881-.153-1.224-.453-.342-.3-.514-.736-.514-1.303 0-.918.339-1.654 1.017-2.195a6.074 6.074 0 012.235-1.14 6.394 6.394 0 011.557-.202c1.25 0 2.158.219 2.714.652.557.436.929.915 1.113 1.43.09.25.149.498.17.739.024.24.036.459.036.641v7.093c0 .316.035.603.101.85.068.251.244.378.518.378a.512.512 0 00.375-.176c.113-.117.226-.25.333-.4l.437.3zm-5.062-5.09c-.732.4-1.336.866-1.8 1.39a2.706 2.706 0 00-.688 2.059c.006.075.012.156.012.238.045.267.134.517.262.752.131.234.357.352.676.352.107 0 .294-.043.562-.124.268-.085.595-.339.976-.756v-3.91zm12.215 1.153a.62.62 0 00-.491.225c-.131.15-.244.312-.334.478a.162.162 0 01-.023.085.62.62 0 00-.045.091L145.43 61.6h-3.732V61a.993.993 0 00.378-.127 1.44 1.44 0 00.331-.273c.184-.202.372-.489.562-.853.191-.365.426-.838.7-1.404.074-.166.148-.323.217-.463a6.38 6.38 0 01.217-.413 3.2 3.2 0 01.697-.964c.268-.241.663-.433 1.181-.567v-.224c-.119-.017-.241-.036-.354-.05a3.017 3.017 0 01-.354-.078c-.643-.166-1.232-.504-1.765-1.012-.533-.508-.801-1.218-.801-2.12 0-.15.009-.31.021-.476.015-.166.048-.335.092-.502.152-.65.536-1.25 1.146-1.79.61-.545 1.652-.818 3.116-.818h6.137v.602h-.113c-.333 0-.568.072-.696.212-.131.143-.221.31-.265.492a.97.97 0 00-.024.211v9.487c0 .065.006.14.012.212.006.075.021.156.033.24a.883.883 0 00.253.463c.137.144.36.215.663.215h.137v.6h-5.497V61h.137c.488 0 .774-.146.848-.44.078-.292.116-.641.116-1.038v-3.537h-.184zm.184-5.94a1.828 1.828 0 00-.357-.062 6.421 6.421 0 00-.354-.013c-.655 0-1.149.208-1.476.625-.327.417-.533.88-.607 1.38 0 .083-.006.164-.012.239-.006.075-.012.146-.012.211 0 .085.012.245.033.476a2.8 2.8 0 00.196.756c.119.315.339.609.652.876.312.267.777.4 1.387.4.089 0 .184-.007.274-.013.089-.006.184-.023.276-.036v-4.84z" fill="#2B8A3B"/><path fill-rule="evenodd" clip-rule="evenodd" d="M30.563 65.606h8.043l.193 3.662h-.559c-.143-1.106-.49-1.834-1.031-2.18-.545-.348-1.308-.523-2.28-.523h-.238v8.389c0 .055.005.119.01.18.006.063.02.132.032.204a.738.738 0 00.237.393c.129.122.338.183.623.183h.28v.509H30.56v-.51h.129c.301 0 .514-.06.634-.179a.769.769 0 00.226-.396c.014-.072.028-.14.034-.201.005-.064.01-.128.01-.183v-8.057a.41.41 0 00-.044-.182.74.74 0 00-.235-.415c-.128-.122-.354-.183-.668-.183h-.086l.003-.511zm19.634 9.392c-.073.114-.143.221-.204.318a2.71 2.71 0 01-.207.28c-.313.41-.65.702-1.009.871-.357.169-.799.255-1.313.255-.1 0-.221-.003-.355-.009a1.501 1.501 0 01-.397-.074 1.838 1.838 0 01-.732-.479c-.23-.232-.375-.622-.43-1.162h-.087c-.5.481-1.04.89-1.613 1.223-.573.332-1.17.5-1.786.5-.687 0-1.218-.212-1.582-.636a2.23 2.23 0 01-.547-1.49c0-.668.293-1.4.88-2.195.587-.794 2.132-1.676 4.628-2.64v-2.257c0-.368-.08-.65-.237-.84a1.457 1.457 0 00-.518-.416 1.265 1.265 0 00-.363-.105 2.537 2.537 0 00-.282-.022c-.358 0-.668.075-.925.221-.257.15-.389.324-.389.523a.67.67 0 00.065.3c.044.082.095.162.15.234a.3.3 0 01.042.042.57.57 0 00.045.041c.1.114.187.24.257.374.073.132.11.301.11.5 0 .042-.006.089-.012.139-.006.05-.011.097-.011.138-.056.268-.21.517-.45.744-.243.227-.598.343-1.056.343-.442 0-.828-.13-1.15-.384-.32-.255-.483-.625-.483-1.107 0-.78.319-1.405.956-1.864a5.939 5.939 0 012.84-1.096 6.65 6.65 0 01.72-.044c1.175 0 2.027.185 2.55.553.522.37.872.777 1.045 1.215.084.213.14.423.16.628.022.204.033.39.033.545v6.025c0 .269.033.512.095.722.064.213.229.321.486.321.129 0 .246-.05.352-.15.107-.099.213-.212.313-.34l.41.255zm-4.754-4.324c-.687.34-1.255.736-1.69 1.181-.437.448-.657.971-.657 1.566 0 .055.005.12.01.183.006.063.012.133.012.202.042.227.125.44.246.639.123.199.335.299.634.299.1 0 .277-.037.529-.106.25-.072.559-.287.916-.641v-3.323zm6.58-5.453l.408.003v.064c0 .1.036.188.106.265.073.078.196.116.366.116.056 0 .11-.002.151-.008.042-.005.087-.011.129-.011.114-.028.235-.067.355-.108.123-.041.27-.086.441-.127.185-.056.38-.105.579-.139.201-.033.438-.052.712-.052 1.146 0 2.08.249 2.795.744.716.498 1.076 1.131 1.076 1.895 0 .141-.01.293-.03.448a2.384 2.384 0 01-.12.468c-.143.368-.39.722-.73 1.054-.344.332-.841.564-1.484.691v.108c.771.1 1.448.413 2.02.935.574.526.861 1.21.861 2.045 0 1.024-.458 1.784-1.375 2.28a6.847 6.847 0 01-3.035.808h-.302c-.944 0-1.682-.186-2.205-.554-.522-.368-.914-.774-1.17-1.212a3.619 3.619 0 01-.303-.672c-.07-.218-.128-.415-.173-.584l.71-.213c.045.111.092.238.14.371.05.133.12.268.206.396.185.337.44.644.752.913.313.27.719.406 1.205.406.073 0 .142-.005.204-.01.064-.006.128-.012.184-.012.459-.055.883-.251 1.27-.584.385-.331.58-.876.58-1.629a3.665 3.665 0 00-.086-.766 1.998 1.998 0 00-.56-.96c-.284-.283-.754-.426-1.4-.426h-.989v-.894h1.205c.073 0 .145-.008.215-.02.33-.044.635-.199.914-.459.28-.26.422-.805.422-1.63 0-.525-.084-.923-.249-1.192-.165-.268-.343-.467-.528-.594-.157-.1-.305-.16-.439-.18a2.091 2.091 0 00-.29-.033c-.101 0-.202.008-.302.019-.1.014-.201.036-.302.064-.358.083-.69.31-.998.67-.307.361-.486.95-.528 1.759h-.581l.173-3.453zm18.516 8.242c-.041.1-.09.199-.14.29-.05.091-.097.188-.14.288-.37.68-.888 1.297-1.547 1.85-.66.554-1.535.83-2.625.83-1.534 0-2.705-.525-3.505-1.574-.801-1.05-1.204-2.287-1.204-3.704 0-1.832.456-3.33 1.364-4.493.91-1.165 2.034-1.748 3.365-1.748 1.291 0 2.356.495 3.194 1.48.839.984 1.25 2.346 1.238 4.078h-6v.13c0 .182.011.379.03.584.023.204.056.417.099.627.156.709.466 1.356.925 1.937.458.581 1.126.874 2 .874.428 0 .845-.132 1.244-.393.403-.262.786-.722 1.143-1.375l.56.319zm-2.968-3.641v-.158c0-.05.009-.097.02-.138v-.277c0-.866-.087-1.513-.257-1.937-.17-.426-.352-.724-.537-.896a.917.917 0 00-.377-.21 1.407 1.407 0 00-.29-.044c-.084 0-.182.013-.289.041-.106.028-.22.089-.335.171-.243.183-.467.535-.665 1.044-.201.509-.302 1.314-.302 2.406l3.032-.002zm7.161-3.26c-.145 0-.327.014-.539.034a2.259 2.259 0 00-.668.182c-.358.128-.685.38-.978.756-.293.376-.456.954-.484 1.734h-.536l.234-3.662h9.852l.238 3.662h-.537c-.028-.78-.193-1.358-.483-1.734-.294-.377-.623-.628-.981-.756-.23-.1-.453-.16-.665-.18a5.456 5.456 0 00-.54-.033h-.408v8.389c0 .055.006.119.011.18.006.063.02.132.031.204a.737.737 0 00.237.393c.13.122.339.183.624.183h.215v.509H74.02v-.51h.215c.302 0 .514-.06.634-.179a.768.768 0 00.227-.396c.014-.072.028-.14.033-.201.006-.064.011-.128.011-.183v-8.389l-.408-.002zm18.237 8.436l-.203.318c-.065.1-.135.194-.207.28-.313.41-.651.702-1.01.871-.357.169-.799.255-1.313.255-.1 0-.22-.003-.355-.009a1.498 1.498 0 01-.396-.074 1.838 1.838 0 01-.733-.479c-.229-.232-.374-.622-.43-1.162h-.087c-.5.481-1.04.89-1.612 1.223-.573.332-1.172.5-1.786.5-.688 0-1.219-.212-1.582-.636a2.231 2.231 0 01-.548-1.49c0-.668.294-1.4.88-2.195.587-.794 2.133-1.676 4.629-2.64v-2.257c0-.368-.081-.65-.238-.84a1.457 1.457 0 00-.517-.416 1.265 1.265 0 00-.363-.105 2.542 2.542 0 00-.282-.022c-.358 0-.669.075-.926.221-.257.15-.388.324-.388.523a.67.67 0 00.064.3c.045.082.095.162.151.234.014.011.03.028.042.042.014.014.03.03.045.041.1.114.187.24.257.374.073.132.109.301.109.5 0 .042-.006.089-.011.139-.006.05-.012.097-.012.138-.056.268-.21.517-.45.744-.243.227-.597.343-1.056.343a1.8 1.8 0 01-1.148-.384c-.322-.255-.484-.625-.484-1.107 0-.78.319-1.405.956-1.864a5.942 5.942 0 012.84-1.096c.25-.028.491-.044.72-.044 1.174 0 2.027.185 2.55.553.522.37.871.777 1.045 1.215.083.213.14.423.159.628.022.204.034.39.034.545v6.025c0 .269.033.512.094.722.065.213.23.321.487.321.128 0 .245-.05.352-.15.106-.099.212-.212.313-.34l.41.255zm-4.753-4.324c-.688.34-1.255.736-1.691 1.181-.436.448-.657.971-.657 1.566 0 .055.006.12.011.183.006.063.011.133.011.202.042.227.126.44.246.639.123.199.336.299.635.299.1 0 .276-.037.528-.106.251-.072.559-.287.917-.641v-3.323z" fill="#161313"/></svg>