<svg width="358" height="385" fill="none" xmlns="http://www.w3.org/2000/svg"><path d="M340.771 84.246L195.327 4.516a32.872 32.872 0 00-31.734 0L18.149 84.245A33.076 33.076 0 005.579 96.41 33.14 33.14 0 00.96 113.294v158.27a33.14 33.14 0 004.618 16.884 33.078 33.078 0 0012.57 12.164l145.445 79.731a32.837 32.837 0 0031.734 0l145.444-79.731a33.086 33.086 0 0012.571-12.164 33.147 33.147 0 004.618-16.884v-158.27a33.146 33.146 0 00-4.618-16.884 33.084 33.084 0 00-12.571-12.164zM318.293 267.64L179.46 343.78 40.627 267.641V117.217L179.46 41.078l138.833 76.139v150.424z" fill="#fff"/></svg>