<svg width="50" height="54" fill="none" xmlns="http://www.w3.org/2000/svg"><path d="M47.593 11.786L27.223.574a4.589 4.589 0 00-4.445 0L2.408 11.786a4.641 4.641 0 00-1.761 1.711A4.675 4.675 0 000 15.871v22.257c0 .835.223 1.656.647 2.374a4.641 4.641 0 001.76 1.71l20.37 11.213a4.584 4.584 0 004.445 0l20.37-11.212a4.641 4.641 0 001.761-1.71A4.674 4.674 0 0050 38.127V15.871c0-.835-.223-1.655-.647-2.374a4.641 4.641 0 00-1.76-1.71zm-3.149 25.79L25 48.283 5.556 37.576V16.423L25 5.716l19.444 10.707v21.153z" fill="#F5F5F5"/><path d="M34.536 20.456a1.553 1.553 0 01.464 1.1 1.531 1.531 0 01-.464 1.1L23.454 33.545a1.583 1.583 0 01-1.12.456 1.607 1.607 0 01-1.12-.456l-4.75-4.666a1.542 1.542 0 01-.464-1.1c0-.413.167-.809.464-1.1a1.598 1.598 0 012.24 0l3.63 3.567 9.961-9.789a1.583 1.583 0 011.12-.456 1.607 1.607 0 011.12.456z" fill="#4FBAAB"/></svg>