<svg width="476" height="512" fill="none" xmlns="http://www.w3.org/2000/svg"><path d="M453.081 111.753L259.156 5.445a43.83 43.83 0 00-42.312 0L22.919 111.753a44.098 44.098 0 00-16.761 16.219A44.189 44.189 0 000 150.484V361.51a44.189 44.189 0 006.158 22.512 44.098 44.098 0 0016.76 16.219l193.926 106.308a43.785 43.785 0 0042.312 0l193.925-106.308a44.088 44.088 0 0016.761-16.219A44.183 44.183 0 00476 361.51V150.484a44.183 44.183 0 00-6.158-22.512 44.088 44.088 0 00-16.761-16.219zm-29.97 244.526L238 457.798 52.889 356.279V155.714L238 54.196l185.111 101.518v200.565z" fill="#F5F5F5"/></svg>