<svg width="68" height="68" fill="none" xmlns="http://www.w3.org/2000/svg"><path d="M59.925 16.639L36.55 3.844a5.289 5.289 0 00-5.1 0L8.075 16.639A5.312 5.312 0 005.313 21.3v25.4a5.312 5.312 0 002.762 4.661L31.45 64.156a5.283 5.283 0 005.1 0l23.375-12.795a5.314 5.314 0 002.763-4.661V21.3a5.312 5.312 0 00-2.763-4.661z" fill="url(#paint0_linear_79_845)"/><path d="M38.166 24.55h3.5c.618 0 1.212.25 1.65.692a2.38 2.38 0 01.683 1.67v1.182M38.166 43.45h3.5c.618 0 1.212-.25 1.65-.692a2.378 2.378 0 00.683-1.67v-1.182M44 34h-5.833m0 0l2.333-2.362M38.167 34l2.333 2.362m-15.838 6.412l7 2.126a2.305 2.305 0 002.064-.367 2.364 2.364 0 00.94-1.896V25.363a2.385 2.385 0 00-.94-1.896 2.318 2.318 0 00-2.064-.367l-7 2.126c-.48.146-.901.445-1.201.853-.3.407-.461.902-.461 1.41v13.022c0 .508.162 1.002.461 1.41.3.408.72.707 1.201.853z" stroke="#fff" stroke-width="2" stroke-linecap="round" stroke-linejoin="round"/><defs><linearGradient id="paint0_linear_79_845" x1="5" y1="3" x2="63" y2="65" gradientUnits="userSpaceOnUse"><stop stop-color="#287ABE"/><stop offset=".475" stop-color="#4FBAAB"/><stop offset="1" stop-color="#22BADE"/></linearGradient></defs></svg>