<svg width="244" height="90" fill="none" xmlns="http://www.w3.org/2000/svg"><g clip-path="url(#clip0_2004_738)" fill="#fff"><path d="M80.236 23.892c-2.8-.387-5.42 1.175-6.53 3.662a3.872 3.872 0 01-3.207 1.05 3.916 3.916 0 01-2.9-2.022c-.462-2.638-2.55-4.79-5.306-5.171-3.418-.473-6.565 1.957-7.03 5.428-.466 3.47 1.928 6.667 5.345 7.14 2.755.38 5.335-1.126 6.475-3.543a3.88 3.88 0 013.326-1.16c1.218.168 2.22.893 2.814 1.881.416 2.698 2.527 4.915 5.328 5.302 3.418.473 6.566-1.957 7.03-5.428.466-3.47-1.927-6.667-5.345-7.14zm4.398 32.069a6.188 6.188 0 00-7.182-2.045 3.887 3.887 0 01-3.01-1.538 4.026 4.026 0 01-.669-3.506 6.423 6.423 0 00-.205-7.466 6.182 6.182 0 00-8.76-1.144c-2.73 2.14-3.235 6.123-1.127 8.895 1.7 2.236 4.578 3 7.061 2.092a3.895 3.895 0 013.171 1.543c.751.989.965 2.22.704 3.347-1.569 2.218-1.597 5.302.13 7.574a6.182 6.182 0 008.761 1.144c2.73-2.14 3.234-6.123 1.126-8.896zM65.436 81.485c.365-2.846-1.19-5.495-3.645-6.609a4.006 4.006 0 01-1.052-3.251 3.975 3.975 0 011.973-2.956c2.596-.485 4.703-2.618 5.061-5.419.446-3.473-1.966-6.655-5.386-7.107-3.42-.452-6.554 1.997-7 5.47-.358 2.8 1.14 5.41 3.527 6.554a4.013 4.013 0 011.163 3.37 3.974 3.974 0 01-1.837 2.87c-2.654.437-4.825 2.595-5.19 5.441-.445 3.473 1.967 6.656 5.387 7.108 3.42.452 6.554-1.998 7-5.47zM33.894 86.22c2.213-1.785 2.913-4.787 1.913-7.321a3.991 3.991 0 011.473-3.078 3.867 3.867 0 013.443-.728 6.17 6.17 0 007.349-.313c2.7-2.178 3.15-6.168 1.004-8.91a6.181 6.181 0 00-8.775-1.02c-2.177 1.757-2.89 4.69-1.96 7.199a4 4 0 01-1.476 3.24 3.863 3.863 0 01-3.286.763 6.171 6.171 0 00-7.456.238c-2.7 2.179-3.15 6.168-1.004 8.91a6.181 6.181 0 008.775 1.02zM8.339 66.472c2.803.372 5.413-1.206 6.51-3.698a3.87 3.87 0 013.202-1.068 3.915 3.915 0 012.91 2.005c.476 2.636 2.577 4.776 5.334 5.142 3.42.453 6.555-1.995 7.001-5.468.447-3.473-1.964-6.655-5.384-7.109-2.758-.366-5.328 1.155-6.455 3.578a3.88 3.88 0 01-3.32 1.18 3.906 3.906 0 01-2.825-1.867c-.43-2.695-2.553-4.9-5.356-5.272-3.42-.453-6.555 1.995-7.001 5.468-.447 3.473 1.964 6.656 5.384 7.109zM4.32 34.163a6.19 6.19 0 007.152 2.153 3.89 3.89 0 012.987 1.583 4.025 4.025 0 01.617 3.516 6.423 6.423 0 00.097 7.468 6.183 6.183 0 008.742 1.276c2.76-2.1 3.323-6.074 1.256-8.878a6.192 6.192 0 00-7.03-2.197 3.894 3.894 0 01-3.147-1.591 4.017 4.017 0 01-.656-3.357 6.422 6.422 0 00-.02-7.575 6.183 6.183 0 00-8.742-1.276c-2.761 2.1-3.324 6.074-1.257 8.878zM23.37 8.881c-.366 2.846 1.188 5.497 3.643 6.61a4.006 4.006 0 011.05 3.252 3.977 3.977 0 01-1.973 2.955c-2.596.484-4.703 2.617-5.063 5.417-.447 3.473 1.964 6.656 5.384 7.11 3.42.453 6.555-1.996 7.001-5.468.36-2.8-1.138-5.411-3.524-6.556a4.012 4.012 0 01-1.162-3.37 3.974 3.974 0 011.838-2.87c2.654-.436 4.826-2.592 5.191-5.439.447-3.473-1.964-6.655-5.384-7.109-3.42-.453-6.555 1.995-7.001 5.468zM54.976 4.41c-2.27 1.71-3.068 4.686-2.15 7.253a3.987 3.987 0 01-1.573 3.027 3.866 3.866 0 01-3.465.612 6.169 6.169 0 00-7.354.066c-2.77 2.087-3.35 6.059-1.294 8.872a6.184 6.184 0 008.737 1.313c2.233-1.683 3.041-4.59 2.194-7.129a3.997 3.997 0 011.58-3.19 3.86 3.86 0 013.309-.65 6.171 6.171 0 007.46.011c2.769-2.087 3.348-6.06 1.292-8.872a6.183 6.183 0 00-8.736-1.314zm-6.861-.623C48.115 1.695 46.446 0 44.387 0c-2.06 0-3.729 1.695-3.729 3.787 0 2.09 1.67 3.786 3.729 3.786s3.728-1.695 3.728-3.786zm28.881 12.296c0-2.091-1.67-3.786-3.728-3.786-2.06 0-3.729 1.695-3.729 3.786 0 2.09 1.67 3.786 3.728 3.786 2.06 0 3.73-1.695 3.73-3.786zm11.84 29.255c0-2.091-1.67-3.786-3.728-3.786-2.06 0-3.729 1.695-3.729 3.786 0 2.09 1.67 3.786 3.728 3.786 2.06 0 3.73-1.695 3.73-3.786zm-81.379 0c0-2.091-1.67-3.786-3.728-3.786-2.06 0-3.729 1.695-3.729 3.786 0 2.09 1.67 3.786 3.729 3.786s3.728-1.695 3.728-3.786zM76.996 74.36c0-2.09-1.67-3.785-3.728-3.785-2.06 0-3.729 1.695-3.729 3.786 0 2.09 1.67 3.786 3.728 3.786 2.06 0 3.73-1.695 3.73-3.786zM19.398 16.083c0-2.091-1.67-3.786-3.729-3.786s-3.728 1.695-3.728 3.786c0 2.09 1.67 3.786 3.728 3.786 2.06 0 3.73-1.695 3.73-3.786zm0 58.277c0-2.09-1.67-3.785-3.729-3.785s-3.728 1.695-3.728 3.786c0 2.09 1.67 3.786 3.728 3.786 2.06 0 3.73-1.695 3.73-3.786zm28.717 11.854c0-2.092-1.669-3.787-3.728-3.787-2.06 0-3.729 1.695-3.729 3.787 0 2.09 1.67 3.786 3.729 3.786s3.728-1.695 3.728-3.786zM115.2 57.891h-2.546l-2.907-7.439-2.876 7.44h-2.487l4.389-10.725h2.038L115.2 57.89zm1.617-10.648h7.909v2.084h-5.617v2.16h4.943v2.084h-4.943v2.236h5.692v2.084h-7.984V47.243zm10.035 0h2.307l-.03 4.274h.734l3.67-4.274h2.861l-4.688 5.157 4.973 5.491h-2.936l-3.82-4.335h-.794l.03 4.335h-2.307V47.243zm16.807 6.191l-1.393-3.453-1.393 3.453h2.786zm-2.427-6.267h2.128l4.494 10.724h-2.413l-.959-2.388h-4.434l-.958 2.388h-2.352l4.494-10.724zm12.372 5.445c1.154 0 1.828-.7 1.828-1.612v-.03c0-1.05-.719-1.613-1.872-1.613h-1.783v3.255h1.827zm-4.134-5.37h4.284c2.502 0 4.015 1.507 4.015 3.682v.03c0 2.465-1.887 3.743-4.239 3.743h-1.753v3.194h-2.307V47.243zm9.542 5.355v-.03c0-3.027 2.247-5.507 5.467-5.507 1.978 0 3.161.67 4.135 1.643l-1.468 1.719c-.809-.745-1.633-1.202-2.682-1.202-1.767 0-3.041 1.49-3.041 3.316v.03c0 1.826 1.244 3.347 3.041 3.347 1.198 0 1.933-.487 2.757-1.247l1.468 1.506c-1.079 1.171-2.277 1.901-4.299 1.901-3.087 0-5.378-2.418-5.378-5.476zm13.96-3.194h-3.191v-2.16h8.689v2.16h-3.191v8.488h-2.307v-8.488zm12.177 4.092h-2.666v2.343h2.742c1.018 0 1.632-.366 1.632-1.157v-.03c0-.715-.524-1.156-1.708-1.156zm1.124-3.103c0-.7-.539-1.096-1.513-1.096h-2.277v2.252h2.127c1.019 0 1.663-.335 1.663-1.126v-.03zm-6.037-3.15h4.869c1.198 0 2.142.336 2.741.944.479.487.719 1.08.719 1.81v.03c0 1.202-.629 1.871-1.378 2.297 1.213.472 1.962 1.187 1.962 2.617v.03c0 1.947-1.558 2.921-3.924 2.921h-4.989V47.243zm10.815.001h7.909v2.084h-5.618v2.16h4.944v2.084h-4.944v2.236h5.693v2.084h-7.984V47.243zm10.035 0h2.307v4.214h4.254v-4.214h2.307V57.89h-2.307v-4.274h-4.254v4.274h-2.307V47.243zm11.384 0h2.307v4.214h4.254v-4.214h2.307V57.89h-2.307v-4.274h-4.254v4.274h-2.307V47.243zm17.406 6.191l-1.393-3.453-1.393 3.453h2.786zm-2.427-6.267h2.127l4.494 10.724h-2.411l-.959-2.388h-4.434l-.959 2.388h-2.352l4.494-10.724zm11.953 2.19c-1.124 0-1.813.518-1.813 1.537 0 .927.644 1.521 1.768 1.521h2.337v-3.058h-2.292zM244 57.891h-2.306v-3.407h-1.678l-2.352 3.407h-2.726l2.651-3.772c-1.363-.472-2.336-1.522-2.336-3.195 0-2.525 1.722-3.681 4.389-3.681H244V57.89zM110.122 74.075c.898 0 1.528-.426 1.528-1.217v-.015c0-.746-.555-1.187-1.513-1.187h-2.607v2.419h2.592zm-4.839-8.58h7.76v2.07h-5.513v2.068h2.637c2.381 0 3.79 1.11 3.79 3.164v.015c0 2.039-1.379 3.332-3.88 3.332h-4.794V65.496zm10.605.001h7.909v2.083h-5.617v2.16h4.943v2.085h-4.943v2.236h5.692v2.084h-7.984V65.496zm9.526 1.581c1.169-1.065 2.457-1.764 4.329-1.764 2.502 0 3.94 1.125 3.94 2.875 0 1.4-.689 2.023-1.782 2.48 1.213.319 2.067.973 2.067 2.479 0 1.825-1.588 3.18-4.374 3.18-1.903 0-3.326-.7-4.374-1.644l1.363-1.673c.898.715 1.872 1.217 3.071 1.217 1.123 0 1.977-.411 1.977-1.263 0-.806-.749-1.217-1.992-1.217h-1.933V69.8h1.993c1.063 0 1.647-.517 1.647-1.247 0-.73-.614-1.141-1.647-1.141-1.079 0-2.023.517-2.892 1.247l-1.393-1.582zm18.785 3.773v-.03c0-1.826-1.319-3.348-3.176-3.348-1.858 0-3.146 1.491-3.146 3.317v.03c0 1.826 1.318 3.347 3.176 3.347s3.146-1.49 3.146-3.316zm-8.734 0v-.03c0-3.028 2.352-5.507 5.588-5.507 3.235 0 5.557 2.449 5.557 5.476v.03c0 3.028-2.351 5.507-5.587 5.507-3.236 0-5.558-2.449-5.558-5.476zm13.196-5.354h8.793v10.648h-2.307v-8.519h-4.179v8.519h-2.307V65.496zm17.331 6.191l-1.393-3.453-1.394 3.453h2.787zm-2.427-6.268h2.127l4.494 10.725h-2.412l-.959-2.389h-4.434l-.958 2.389h-2.352l4.494-10.725zm7.099 5.431v-.03c0-3.028 2.248-5.507 5.469-5.507 1.977 0 3.16.67 4.134 1.643l-1.468 1.719c-.809-.746-1.633-1.203-2.682-1.203-1.767 0-3.041 1.491-3.041 3.317v.03c0 1.826 1.244 3.347 3.041 3.347 1.199 0 1.933-.487 2.757-1.247l1.468 1.506c-1.079 1.171-2.277 1.901-4.299 1.901-3.086 0-5.379-2.419-5.379-5.476zm11.519-5.354h2.307v4.213h4.254v-4.213h2.307v10.648h-2.307v-4.275h-4.254v4.275h-2.307V65.496zm19.653 5.354v-.03c0-1.826-1.318-3.348-3.176-3.348-1.857 0-3.146 1.491-3.146 3.317v.03c0 1.826 1.319 3.347 3.177 3.347 1.857 0 3.145-1.49 3.145-3.316zm-8.733 0v-.03c0-3.028 2.352-5.507 5.588-5.507 3.235 0 5.557 2.449 5.557 5.476v.03c0 3.028-2.352 5.507-5.588 5.507-3.235 0-5.557-2.449-5.557-5.476zm12.731 0v-.03c0-3.028 2.247-5.507 5.468-5.507 1.977 0 3.161.67 4.135 1.643l-1.469 1.719c-.809-.746-1.633-1.203-2.681-1.203-1.768 0-3.041 1.491-3.041 3.317v.03c0 1.826 1.243 3.347 3.041 3.347 1.198 0 1.932-.487 2.757-1.247l1.467 1.506c-1.078 1.171-2.277 1.901-4.299 1.901-3.086 0-5.378-2.419-5.378-5.476zm13.961-3.194h-3.191v-2.16h8.688v2.16h-3.19v8.488h-2.307v-8.488zm11.383 6.374c1.124 0 1.843-.533 1.843-1.552v-.015c0-.974-.644-1.537-1.827-1.537h-1.828v3.103h1.812zm-4.119-8.534h2.307v3.346h1.858c2.516 0 4.134 1.217 4.134 3.59v.015c0 2.267-1.498 3.697-4.224 3.697h-4.075V65.496zM107.997 18.4c.963 0 1.593-.521 1.593-1.296v-.018c0-.842-.622-1.28-1.56-1.28h-1.468v2.595h1.435zm-2.09-3.209h2.173c1.311 0 2.174.708 2.174 1.87v.017c0 1.272-1.046 1.929-2.282 1.929h-1.41v2.08h-.655v-5.896zm10.529 2.965v-.017c0-1.339-.963-2.434-2.29-2.434s-2.273 1.079-2.273 2.417v.017c0 1.34.962 2.435 2.29 2.435 1.327 0 2.273-1.078 2.273-2.418zm-5.244 0v-.017c0-1.625 1.204-3.049 2.971-3.049 1.766 0 2.953 1.407 2.953 3.032v.017c0 1.626-1.203 3.05-2.97 3.05-1.767 0-2.954-1.407-2.954-3.033zm7.055 0v-.017c0-1.668 1.228-3.049 2.936-3.049 1.053 0 1.684.38 2.265.935l-.448.489c-.49-.472-1.038-.809-1.825-.809-1.286 0-2.248 1.061-2.248 2.417v.017c0 1.365.97 2.435 2.248 2.435.796 0 1.318-.312 1.875-.85l.431.429c-.606.623-1.269 1.036-2.323 1.036-1.675 0-2.911-1.34-2.911-3.033zm5.99 0v-.017c0-1.668 1.228-3.049 2.937-3.049 1.054 0 1.684.38 2.265.935l-.448.489c-.489-.472-1.037-.809-1.825-.809-1.286 0-2.248 1.061-2.248 2.417v.017c0 1.365.971 2.435 2.248 2.435.796 0 1.319-.312 1.875-.85l.431.429c-.606.623-1.269 1.036-2.323 1.036-1.675 0-2.912-1.34-2.912-3.033zm10.671 2.932v-4.86l-3.717 4.86h-.539V15.19h.655v4.75l3.633-4.75h.623v5.897h-.655zm3.528-7.338h.498c.091.27.323.439.729.439.407 0 .639-.169.73-.438h.498c-.05.606-.539.96-1.228.96-.688 0-1.177-.354-1.227-.96zm3.028 7.338v-4.86l-3.717 4.86h-.539V15.19h.655v4.75l3.633-4.75h.623v5.897h-.655zm2.042-2.932v-.017c0-1.668 1.228-3.049 2.937-3.049 1.053 0 1.684.38 2.264.935l-.448.489c-.489-.472-1.037-.809-1.825-.809-1.285 0-2.248 1.061-2.248 2.417v.017c0 1.365.971 2.435 2.248 2.435.797 0 1.319-.312 1.875-.85l.431.429c-.605.623-1.269 1.036-2.322 1.036-1.676 0-2.912-1.34-2.912-3.033zm6.415-2.965h.655v2.586h.946l2.422-2.586h.854l-2.721 2.839 2.846 3.058h-.871l-2.505-2.713h-.971v2.713h-.655V15.19zm10.246 5.897v-4.86l-3.716 4.86h-.539V15.19h.655v4.75l3.633-4.75h.623v5.897h-.656zm3.528-7.338h.498c.091.27.323.439.73.439.406 0 .639-.169.73-.438h.497c-.049.606-.539.96-1.227.96-.688 0-1.178-.354-1.228-.96zm3.028 7.338v-4.86l-3.716 4.86h-.539V15.19h.654v4.75l3.634-4.75h.623v5.897h-.656zM109.2 26.457v3.546c1.56-.017 2.331-.74 2.331-1.777 0-1.01-.755-1.744-2.331-1.77zm-.63 3.546v-3.546c-1.56.025-2.331.741-2.331 1.769 0 1.02.754 1.76 2.331 1.777zm-.017.598c-1.899-.033-2.994-.968-2.994-2.366 0-1.382 1.078-2.342 2.994-2.376v-.665h.664v.665c1.891.034 2.994.968 2.994 2.367 0 1.373-1.086 2.342-2.994 2.375v.708h-.664v-.708zm8.381-1.558l-1.319-3.007-1.327 3.007h2.646zm-1.618-3.782h.614l2.646 5.939h-.705l-.68-1.559h-3.161l-.688 1.559h-.672l2.646-5.939zm6.498 3.252c.962 0 1.593-.523 1.593-1.298V27.2c0-.843-.623-1.28-1.56-1.28h-1.469v2.594h1.436zm-2.09-3.21h2.173c1.311 0 2.173.708 2.173 1.87v.017c0 1.272-1.045 1.93-2.281 1.93h-1.411v2.08h-.654v-5.897zm5.543 0h.663l2.115 3.218 2.116-3.218h.663V31.2h-.655v-4.776l-2.115 3.159h-.034l-2.115-3.151V31.2h-.638v-5.897zm10.968 3.74l-1.318-3.007-1.327 3.007h2.645zm-1.617-3.782h.614l2.646 5.939h-.705l-.68-1.559h-3.161l-.688 1.559h-.672l2.646-5.939zm9.028 5.939h-4.621v-5.896h.655v5.28h3.344v-5.28h.655v5.28h.597v1.846h-.63V31.2zm1.802-5.897h4.197v.607h-3.542v2.013h3.169v.607h-3.169v2.063h3.584v.607h-4.239v-5.897zm8.04 3.217h-1.834v2.082h1.95c.879 0 1.427-.396 1.427-1.053v-.017c0-.64-.531-1.011-1.543-1.011zm1.22-1.659c0-.58-.457-.96-1.286-.96h-1.768v2.03h1.718c.788 0 1.336-.362 1.336-1.052v-.018zm-3.7-1.558h2.472c.663 0 1.186.194 1.517.522.241.253.374.565.374.944v.017c0 .766-.465 1.162-.921 1.364.689.21 1.244.615 1.244 1.424v.017c0 1.01-.837 1.609-2.107 1.609h-2.579v-5.897zm7.384.615h-1.957v-.615h4.571v.615h-1.958V31.2h-.656v-5.282zm8.065 5.282v-4.86l-3.716 4.86h-.539v-5.897h.655v4.751l3.633-4.75h.623V31.2h-.656zm5.818-2.317a5.562 5.562 0 01-1.559.236c-1.353 0-2.174-.564-2.174-1.97v-1.846h.664v1.727c0 1.07.505 1.483 1.567 1.483a4.95 4.95 0 001.502-.245v-2.965h.663V31.2h-.663v-2.317zm2.308-3.58h4.197v.607h-3.542v2.013h3.169v.607h-3.169v2.063h3.584v.607h-4.239v-5.897zm5.303 2.965v-.017c0-1.667 1.228-3.049 2.936-3.049 1.054 0 1.684.38 2.265.935l-.448.489c-.489-.472-1.037-.81-1.825-.81-1.286 0-2.248 1.063-2.248 2.419v.016c0 1.365.97 2.435 2.248 2.435.796 0 1.319-.312 1.875-.85l.431.429c-.606.623-1.269 1.036-2.322 1.036-1.676 0-2.912-1.34-2.912-3.032zm6.414-2.965h.655v2.586h.946l2.423-2.586h.854l-2.721 2.839 2.846 3.058h-.872l-2.505-2.712h-.971V31.2h-.655v-5.897zm10.247 5.897v-4.86l-3.717 4.86h-.539v-5.897h.655v4.751l3.634-4.75h.622V31.2h-.655zm3.528-7.337h.498c.091.27.323.438.729.438.407 0 .639-.169.731-.438h.497c-.049.606-.539.96-1.228.96-.688 0-1.177-.354-1.227-.96zm3.028 7.337v-4.86l-3.717 4.86h-.539v-5.897h.655v4.751l3.634-4.75h.622V31.2h-.655zM109.2 36.57v3.545c1.56-.016 2.331-.74 2.331-1.777 0-1.01-.755-1.744-2.331-1.769zm-.63 3.545V36.57c-1.56.025-2.331.741-2.331 1.77 0 1.019.754 1.76 2.331 1.776zm-.017.599c-1.899-.034-2.994-.97-2.994-2.368 0-1.381 1.078-2.341 2.994-2.375v-.665h.664v.665c1.891.034 2.994.969 2.994 2.367 0 1.373-1.086 2.342-2.994 2.376v.707h-.664v-.707zm9.941-2.334v-.017c0-1.339-.963-2.434-2.29-2.434s-2.273 1.079-2.273 2.418v.016c0 1.34.962 2.435 2.29 2.435 1.327 0 2.273-1.078 2.273-2.418zm-5.243 0v-.017c0-1.625 1.203-3.049 2.97-3.049 1.767 0 2.953 1.407 2.953 3.033v.016c0 1.626-1.203 3.05-2.97 3.05-1.767 0-2.953-1.407-2.953-3.033zm9.401.245c.962 0 1.592-.522 1.592-1.297v-.018c0-.842-.622-1.28-1.559-1.28h-1.468v2.595h1.435zm-2.091-3.21h2.174c1.311 0 2.173.708 2.173 1.87v.017c0 1.272-1.045 1.929-2.281 1.929h-1.41v2.081h-.656v-5.897zm6.124 5.897l1.203-2.039-2.455-3.858h.755l2.066 3.277 1.841-3.277h.746l-3.426 5.897h-.73zm5.179-5.897h.664l2.115 3.218 2.115-3.218h.663v5.897h-.655v-4.776l-2.115 3.158h-.033l-2.116-3.15v4.768h-.638v-5.897z"/></g><defs><clipPath id="clip0_2004_738"><path fill="#fff" d="M0 0h244v90H0z"/></clipPath></defs></svg>