<svg width="112" height="120" fill="none" xmlns="http://www.w3.org/2000/svg"><path d="M106.607 26.192L60.977 1.276a10.344 10.344 0 00-9.955 0L5.392 26.192a10.36 10.36 0 00-3.943 3.801A10.326 10.326 0 000 35.27v49.459c0 1.856.5 3.679 1.449 5.276a10.359 10.359 0 003.944 3.802l45.63 24.915a10.335 10.335 0 009.955 0l45.629-24.915a10.358 10.358 0 003.944-3.802A10.328 10.328 0 00112 84.73V35.27c0-1.856-.5-3.678-1.449-5.276a10.36 10.36 0 00-3.944-3.801zm-7.051 57.311L56 107.296 12.444 83.503V36.496L56 12.702l43.556 23.794v47.007z" fill="#F5F5F5"/></svg>