<?xml version="1.0" encoding="utf-8"?><svg viewBox="0 0 132 136" xmlns="http://www.w3.org/2000/svg" xmlns:xlink="http://www.w3.org/1999/xlink"><style>:root>svg{display:none}:root>svg:target{display:block}</style><svg fill="none" viewBox="0 0 37 37" id="icon-arrow-next" xmlns="http://www.w3.org/2000/svg"><path d="M12.24 3.783a2.312 2.312 0 000 3.27L23.687 18.5 12.24 29.947a2.312 2.312 0 003.27 3.27l13.082-13.082a2.313 2.313 0 000-3.27L15.51 3.783a2.312 2.312 0 00-3.27 0z" fill="currentColor"/></svg><svg fill="none" viewBox="0 0 37 37" id="icon-arrow-prev" xmlns="http://www.w3.org/2000/svg"><path d="M24.76 33.217a2.312 2.312 0 000-3.27L13.313 18.5 24.76 7.053a2.312 2.312 0 00-3.27-3.27L8.408 16.865a2.313 2.313 0 000 3.27L21.49 33.217a2.312 2.312 0 003.27 0z" fill="currentColor"/></svg><svg fill="none" viewBox="0 0 12 7" id="icon-caret" xmlns="http://www.w3.org/2000/svg"><path d="M11.736.73a.976.976 0 00-.638-.23.976.976 0 00-.638.23L5.995 4.607 1.529.73A.98.98 0 00.894.51a.975.975 0 00-.63.23.736.736 0 00-.264.547.732.732 0 00.253.552L5.357 6.27c.169.146.398.229.638.229.239 0 .468-.083.637-.23l5.104-4.432A.735.735 0 0012 1.283a.735.735 0 00-.264-.554z" fill="currentColor"/></svg><svg fill="none" viewBox="0 0 40 40" id="icon-hexagon" xmlns="http://www.w3.org/2000/svg"><path d="M34.77 10.665h0a2.125 2.125 0 011.105 1.865v14.94a2.125 2.125 0 01-1.105 1.865h0l-13.75 7.527-.003.001a2.108 2.108 0 01-2.034 0l-.003-.001-13.75-7.527h0a2.125 2.125 0 01-1.105-1.864v0V12.53h0a2.125 2.125 0 011.105-1.865h0l13.75-7.527h.002a2.11 2.11 0 012.036 0h.002l13.75 7.527z" stroke="currentColor" stroke-width="2"/></svg><svg fill="none" viewBox="0 0 50 50" id="icon-hexagon-tg" xmlns="http://www.w3.org/2000/svg"><path d="M43.886 12.557h0a3.538 3.538 0 011.84 3.105v18.676a3.538 3.538 0 01-1.84 3.105h0l-17.188 9.409h0a3.518 3.518 0 01-3.396 0h0L6.114 37.444h0a3.538 3.538 0 01-1.84-3.106v0-18.675h0a3.538 3.538 0 011.84-3.106h0L23.302 3.15h0a3.52 3.52 0 013.396 0h0l17.188 9.408z" stroke="currentColor" stroke-width=".735"/><path d="M30.807 19.437s1.295-.505 1.186.721c-.035.505-.359 2.273-.611 4.185l-.863 5.663s-.072.83-.72.974c-.647.144-1.619-.505-1.799-.65-.144-.108-2.698-1.731-3.597-2.524-.252-.217-.54-.65.036-1.155l3.777-3.607c.432-.433.864-1.443-.935-.217l-5.037 3.427s-.575.361-1.654.036l-2.339-.721s-.863-.541.612-1.082c3.597-1.696 8.022-3.427 11.943-5.05" fill="currentColor"/></svg><svg fill="none" viewBox="0 0 50 50" id="icon-hexagon-vk" xmlns="http://www.w3.org/2000/svg"><path d="M43.886 12.557h0a3.538 3.538 0 011.84 3.105v18.676a3.538 3.538 0 01-1.84 3.105h0l-17.188 9.409h0a3.518 3.518 0 01-3.396 0h0L6.114 37.444h0a3.538 3.538 0 01-1.84-3.106v0-18.675h0a3.538 3.538 0 011.84-3.106h0L23.302 3.15h0a3.52 3.52 0 013.396 0h0l17.188 9.408z" stroke="currentColor" stroke-width=".735"/><g clip-path="url(#fclip0_226_5126)"><path d="M31.988 29.691H30.31c-.634 0-.826-.514-1.963-1.652-.994-.958-1.414-1.077-1.666-1.077-.347 0-.442.095-.442.574v1.509c0 .408-.133.647-1.199.647a6.544 6.544 0 01-5.114-3.066 13.37 13.37 0 01-2.647-5.558c0-.251.096-.48.575-.48h1.677c.43 0 .586.193.755.636.814 2.396 2.203 4.48 2.767 4.48.216 0 .31-.096.31-.635v-2.468c-.071-1.125-.67-1.22-.67-1.628a.414.414 0 01.431-.384h2.635c.36 0 .48.18.48.61v3.331c0 .36.154.479.263.479.216 0 .382-.12.779-.515a13.794 13.794 0 002.06-3.426.722.722 0 01.73-.478h1.677c.503 0 .61.251.503.61A20.926 20.926 0 0130 25.069c-.181.276-.253.42 0 .743.166.251.754.742 1.15 1.21a7.466 7.466 0 011.412 1.963c.144.467-.095.706-.574.706z" fill="currentColor"/></g><defs><clipPath id="fclip0_226_5126"><path fill="#fff" transform="translate(16.912 20.588)" d="M0 0h16.177v9.559H0z"/></clipPath></defs></svg><svg fill="none" viewBox="0 0 112 136" id="icon-location" xmlns="http://www.w3.org/2000/svg"><path d="M105.778 55.636c0 37.091-49.778 74.182-49.778 74.182S6.222 92.728 6.222 55.636c0-13.116 5.245-25.695 14.58-34.97C30.137 11.393 42.798 6.183 56 6.183c13.202 0 25.863 5.21 35.198 14.485 9.335 9.274 14.58 21.853 14.58 34.97z" stroke="currentColor" stroke-width="2" stroke-linecap="round" stroke-linejoin="round"/><path d="M56 74.182c10.31 0 18.667-8.303 18.667-18.546 0-10.242-8.358-18.545-18.667-18.545-10.31 0-18.667 8.303-18.667 18.545 0 10.243 8.358 18.546 18.667 18.546z" stroke="currentColor" stroke-width="2" stroke-linecap="round" stroke-linejoin="round"/></svg><svg fill="none" viewBox="0 0 29 31" id="icon-pdf" xmlns="http://www.w3.org/2000/svg"><path d="M10.01 24.072c.254-.16.531-.314.832-.462-.254.405-.526.797-.815 1.175-.508.652-.903 1-1.151 1.108l-.064.023a.595.595 0 01-.047-.085c-.101-.213-.098-.419.073-.698.192-.32.578-.686 1.172-1.061zm4.45-3.191c-.215.047-.43.098-.645.15.32-.668.622-1.347.906-2.034.287.568.595 1.122.925 1.663-.394.062-.79.135-1.186.22zm4.577 1.819a7.469 7.469 0 01-.789-.795c.416.01.786.044 1.11.105.574.11.844.285.938.405a.201.201 0 01.047.124.897.897 0 01-.108.387.578.578 0 01-.17.24.172.172 0 01-.126.03c-.163-.006-.467-.128-.902-.496zm-4.033-9.196a13.676 13.676 0 01-.363 1.607 10.185 10.185 0 01-.161-.67c-.138-.685-.158-1.221-.083-1.593.069-.343.199-.48.355-.549a.86.86 0 01.263-.077c.023.058.05.178.058.383.01.237-.014.537-.07.901v-.002z" fill="currentColor"/><path fill-rule="evenodd" clip-rule="evenodd" d="M7.25 0h9.594c.48 0 .941.204 1.281.568l6.719 7.182c.34.363.53.856.531 1.37v18.005a4.015 4.015 0 01-1.062 2.74A3.51 3.51 0 0121.75 31H7.25a3.51 3.51 0 01-2.563-1.135 4.015 4.015 0 01-1.062-2.74V3.875c0-1.028.382-2.013 1.062-2.74A3.51 3.51 0 017.25 0zm9.969 2.906v3.875c0 .514.19 1.007.53 1.37.34.364.802.568 1.282.568h3.625L17.22 2.906zm-9.67 23.576c.163.349.417.664.794.812.375.145.747.077 1.051-.059.577-.251 1.151-.844 1.679-1.522.603-.777 1.237-1.797 1.85-2.926a20.018 20.018 0 013.62-.787c.543.742 1.105 1.382 1.65 1.84.507.427 1.092.782 1.692.809.327.017.65-.077.924-.268.281-.195.49-.478.642-.805.163-.351.263-.717.25-1.091a1.693 1.693 0 00-.362-1.004c-.41-.523-1.08-.775-1.74-.9a9.845 9.845 0 00-2.42-.098 21.71 21.71 0 01-1.776-3.266c.453-1.28.792-2.488.942-3.476.065-.423.1-.826.087-1.19a2.539 2.539 0 00-.23-1.042 1.338 1.338 0 00-.358-.458 1.233 1.233 0 00-.507-.25c-.366-.083-.743 0-1.089.15-.683.29-1.044.91-1.18 1.594-.132.66-.072 1.426.084 2.201.159.787.43 1.643.779 2.51-.558 1.479-1.2 2.92-1.925 4.314-.934.315-1.834.734-2.686 1.25-.67.426-1.267.93-1.626 1.525-.38.631-.498 1.383-.145 2.137z" fill="currentColor"/></svg><svg fill="none" viewBox="0 0 132 126" id="icon-play" xmlns="http://www.w3.org/2000/svg"><path d="M70.756 5.033h0l45.19 24.676.104-.19-.104.19a10.035 10.035 0 015.228 8.8V87.49a10.036 10.036 0 01-5.228 8.8l.104.19-.104-.19-45.19 24.675v.001a10.02 10.02 0 01-9.65 0v-.001L15.915 96.29l-.099.181.099-.181a10.043 10.043 0 01-3.823-3.685 10.01 10.01 0 01-1.405-5.115V38.508c0-1.8.485-3.566 1.405-5.114a10.042 10.042 0 013.823-3.685h0l45.19-24.676h0a10.027 10.027 0 019.65 0z" fill="#4FBAAB" fill-opacity=".6" stroke="#4FBAAB" stroke-width=".434"/><path d="M83.472 57.03a6.245 6.245 0 010 11.029L56.78 82.573c-4.298 2.34-9.577-.702-9.577-5.512V48.029c0-4.812 5.28-7.852 9.577-5.516L83.472 57.03z" stroke="#fff" stroke-width="4"/></svg></svg>