<?xml version="1.0" encoding="utf-8"?><svg viewBox="0 0 50 50" xmlns="http://www.w3.org/2000/svg" xmlns:xlink="http://www.w3.org/1999/xlink"><style>:root>svg{display:none}:root>svg:target{display:block}</style><svg fill="none" viewBox="0 0 12 7" id="icon-caret" xmlns="http://www.w3.org/2000/svg"><path d="M11.736.73a.976.976 0 00-.638-.23.976.976 0 00-.638.23L5.995 4.607 1.529.73A.98.98 0 00.894.51a.975.975 0 00-.63.23.736.736 0 00-.264.547.732.732 0 00.253.552L5.357 6.27c.169.146.398.229.638.229.239 0 .468-.083.637-.23l5.104-4.432A.735.735 0 0012 1.283a.735.735 0 00-.264-.554z" fill="currentColor"/></svg><svg fill="none" viewBox="0 0 40 40" id="icon-hexagon" xmlns="http://www.w3.org/2000/svg"><path d="M34.77 10.665h0a2.125 2.125 0 011.105 1.865v14.94a2.125 2.125 0 01-1.105 1.865h0l-13.75 7.527-.003.001a2.108 2.108 0 01-2.034 0l-.003-.001-13.75-7.527h0a2.125 2.125 0 01-1.105-1.864v0V12.53h0a2.125 2.125 0 011.105-1.865h0l13.75-7.527h.002a2.11 2.11 0 012.036 0h.002l13.75 7.527z" stroke="currentColor" stroke-width="2"/></svg><svg fill="none" viewBox="0 0 50 50" id="icon-hexagon-tg" xmlns="http://www.w3.org/2000/svg"><path d="M43.886 12.557h0a3.538 3.538 0 011.84 3.105v18.676a3.538 3.538 0 01-1.84 3.105h0l-17.188 9.409h0a3.518 3.518 0 01-3.396 0h0L6.114 37.444h0a3.538 3.538 0 01-1.84-3.106v0-18.675h0a3.538 3.538 0 011.84-3.106h0L23.302 3.15h0a3.52 3.52 0 013.396 0h0l17.188 9.408z" stroke="currentColor" stroke-width=".735"/><path d="M30.807 19.437s1.295-.505 1.186.721c-.035.505-.359 2.273-.611 4.185l-.863 5.663s-.072.83-.72.974c-.647.144-1.619-.505-1.799-.65-.144-.108-2.698-1.731-3.597-2.524-.252-.217-.54-.65.036-1.155l3.777-3.607c.432-.433.864-1.443-.935-.217l-5.037 3.427s-.575.361-1.654.036l-2.339-.721s-.863-.541.612-1.082c3.597-1.696 8.022-3.427 11.943-5.05" fill="currentColor"/></svg><svg fill="none" viewBox="0 0 50 50" id="icon-hexagon-vk" xmlns="http://www.w3.org/2000/svg"><path d="M43.886 12.557h0a3.538 3.538 0 011.84 3.105v18.676a3.538 3.538 0 01-1.84 3.105h0l-17.188 9.409h0a3.518 3.518 0 01-3.396 0h0L6.114 37.444h0a3.538 3.538 0 01-1.84-3.106v0-18.675h0a3.538 3.538 0 011.84-3.106h0L23.302 3.15h0a3.52 3.52 0 013.396 0h0l17.188 9.408z" stroke="currentColor" stroke-width=".735"/><g clip-path="url(#dclip0_226_5126)"><path d="M31.988 29.691H30.31c-.634 0-.826-.514-1.963-1.652-.994-.958-1.414-1.077-1.666-1.077-.347 0-.442.095-.442.574v1.509c0 .408-.133.647-1.199.647a6.544 6.544 0 01-5.114-3.066 13.37 13.37 0 01-2.647-5.558c0-.251.096-.48.575-.48h1.677c.43 0 .586.193.755.636.814 2.396 2.203 4.48 2.767 4.48.216 0 .31-.096.31-.635v-2.468c-.071-1.125-.67-1.22-.67-1.628a.414.414 0 01.431-.384h2.635c.36 0 .48.18.48.61v3.331c0 .36.154.479.263.479.216 0 .382-.12.779-.515a13.794 13.794 0 002.06-3.426.722.722 0 01.73-.478h1.677c.503 0 .61.251.503.61A20.926 20.926 0 0130 25.069c-.181.276-.253.42 0 .743.166.251.754.742 1.15 1.21a7.466 7.466 0 011.412 1.963c.144.467-.095.706-.574.706z" fill="currentColor"/></g><defs><clipPath id="dclip0_226_5126"><path fill="#fff" transform="translate(16.912 20.588)" d="M0 0h16.177v9.559H0z"/></clipPath></defs></svg></svg>