<svg width="174" height="37" fill="none" xmlns="http://www.w3.org/2000/svg"><mask id="a" style="mask-type:luminance" maskUnits="userSpaceOnUse" x="0" y="0" width="174" height="37"><path d="M173.117.947H0v35.108h173.117V.947z" fill="#fff"/></mask><g mask="url(#a)"><path d="M10.978.946c-2.025 0-3.768 1.252-4.51 3.03 2.875.717 5.016 3.339 5.016 6.464 0 .125-.007.251-.014.377 2.468-.251 4.402-2.363 4.402-4.923 0-2.728-2.194-4.948-4.894-4.948zm6.572 4.571c.007.127.02.25.02.377 0 3.122-2.14 5.743-5.01 6.462.74 1.78 2.483 3.031 4.51 3.031 2.7 0 4.894-2.22 4.894-4.947 0-2.564-1.94-4.678-4.414-4.923zm-.48 11.585c-2.38 0-4.465-1.287-5.622-3.206a4.955 4.955 0 00-1.537 3.591c0 2.728 2.194 4.949 4.892 4.949 2.7 0 4.894-2.22 4.894-4.948a4.94 4.94 0 00-.085-.902 6.49 6.49 0 01-2.541.516zm-8.856.386a6.68 6.68 0 011.49-4.216 4.816 4.816 0 00-2.55-.732c-2.699 0-4.894 2.218-4.894 4.948 0 2.727 2.195 4.948 4.893 4.948a4.82 4.82 0 002.551-.733 6.68 6.68 0 01-1.49-4.215zM0 10.44c0-2.728 2.195-4.948 4.894-4.948 2.699 0 4.893 2.22 4.893 4.948 0 .308-.031.61-.085.903a6.5 6.5 0 00-2.549-.52c-2.378 0-4.461 1.285-5.62 3.202A4.954 4.954 0 010 10.44z" fill="#B10B0B"/><path d="M30.572 6.177c-.183 0-.468.123-.548.185-.062.062-.164.288-.183.76-.022.412-.022 2.96-.042 5.304 0 1.871.042 3.207.042 3.72.02 1.255.08 1.625 1.26 1.933.406.082.569.247.569.432 0 .164-.346.287-.63.287-.529 0-1.688-.123-2.582-.123-.59 0-1.586.082-2.216.082-.467 0-.753-.102-.753-.33 0-.143.286-.308.488-.369.996-.246 1.24-.555 1.301-1.5a48.43 48.43 0 00.123-3.207c0-.658 0-5.262-.04-5.858-.062-.72-.164-1.048-1.283-1.193-.264-.04-.467-.184-.467-.308 0-.165.183-.288.427-.329.12-.02.488-.02.67-.02 1.303 0 2.97-.165 3.884-.165 1.952 0 3.273.37 4.107 1.192a3.91 3.91 0 011.18 2.775c0 1.686-.752 2.59-1.342 3.104-.53.452-1.647.925-2.44.925-.224 0-.793-.04-1.058-.144-.285-.123-.427-.225-.427-.41 0-.083.142-.206.306-.206h.305c.853 0 2.115-1.028 2.115-3.166 0-1.644-1.098-3.37-2.766-3.37zm10.905.905c-.69.678-1.423 2.158-1.423 4.604 0 3.165 1.912 6.599 4.88 6.599a2.897 2.897 0 002.074-.844c.853-.863 1.565-2.63 1.565-4.83 0-1.623-.63-4.09-2.114-5.468-.692-.616-1.789-1.11-2.684-1.11-.916 0-1.83.576-2.298 1.049zm9.881 4.892c0 2.692-1.137 4.44-2.561 5.59-1.159.905-2.887 1.48-4.452 1.48-2.135 0-4.006-.821-5.286-2.198-1.1-1.193-1.749-2.816-1.749-4.708 0-2.507 1.097-4.11 2.622-5.344.915-.72 2.624-1.48 4.33-1.48 4.494 0 7.096 3.37 7.096 6.66zm12.147-6.331c.488.123.996.246 1.464.308.141 0 .305.247.305.555.02.575.06 1.295.1 1.892.021.431-.12.78-.344.78-.103 0-.285-.246-.387-.555-.204-.636-.508-1.192-.854-1.46-.874-.739-1.91-1.192-3.008-1.192-3.234 0-4.758 2.59-4.758 5.715 0 1.377.244 2.57.691 3.474 1.118 2.261 2.968 3.063 4.554 3.063.265 0 1.26-.04 1.972-.473.753-.43 1.3-1.028 1.769-1.87.245-.452.386-.638.55-.638.222 0 .222.534.16.761-.1.513-.425 1.418-.609 1.789-.06.185-.426.514-.73.657-.286.102-1.689.595-3.56.595-3.009 0-5.144-1.356-5.977-2.322-.772-.904-1.708-2.343-1.708-4.624 0-2.488 1.384-4.235 2.237-4.935 1.728-1.438 3.822-1.849 5.49-1.849.935 0 1.91.144 2.643.33zm4.159-.103c.487 0 1.463.103 2.094.103.61 0 1.79-.083 2.277-.083.407 0 .63.103.63.288s-.305.288-.528.35c-.793.226-.956.329-1.017 1.254-.04.76-.02 3.062-.02 4.03 0 .081.061.204.142.204 1.097-.082 1.769-.431 2.5-1.623.57-.946.977-1.727 1.486-2.529.813-1.357 1.789-2.22 2.886-2.22.691 0 1.058.288 1.058.863 0 .185-.144.535-.264.658-.163.185-.347.226-.59.185-.224-.041-.488-.103-.692-.103-1.2 0-1.727.863-2.297 1.768-.57.905-1.017 1.624-1.322 2.056a.231.231 0 000 .164c.469.904 2.277 3.803 3.172 4.995 1.342 1.788 1.87 1.933 2.948 2.179.122.04.326.124.326.227 0 .184-.122.307-.407.39-.285.082-.752.102-1.22.102-1.789 0-2.663-.287-3.457-1.357-.752-.945-1.605-2.28-2.54-3.782-.672-1.09-.936-1.439-1.587-1.46-.102 0-.122.145-.142.248 0 1.665.061 3.823.082 4.584.02.41.121.719 1.016.946.365.102.59.246.59.41 0 .186-.346.31-.67.31-.448 0-1.851-.042-2.482-.042-.63 0-1.647.082-2.298.082-.305 0-.548-.164-.548-.309 0-.184.162-.287.609-.39.976-.226 1.2-.514 1.261-1.768.04-1.028.04-2.445.04-4.645 0-2.405-.04-3.187-.06-3.926-.022-.966-.203-1.234-.914-1.44-.53-.143-.673-.288-.673-.431 0-.185.326-.287.61-.287zm16.7 1.542c-.692.678-1.424 2.158-1.424 4.604 0 3.165 1.911 6.599 4.881 6.599a2.9 2.9 0 002.074-.844c.854-.863 1.566-2.63 1.566-4.83 0-1.623-.631-4.09-2.115-5.468-.692-.616-1.79-1.11-2.684-1.11-.915 0-1.83.576-2.298 1.049zm9.882 4.892c0 2.692-1.139 4.44-2.563 5.59-1.157.905-2.887 1.48-4.452 1.48-2.135 0-4.005-.821-5.286-2.198-1.099-1.193-1.75-2.816-1.75-4.708 0-2.507 1.1-4.11 2.624-5.344.915-.72 2.623-1.48 4.331-1.48 4.493 0 7.096 3.37 7.096 6.66zm5.477-.452c1.383 0 4.067-.083 6.2-.083.082 0 .164-.205.184-.514.041-.267.041-2.672-.04-3.473-.082-.74-.184-.946-.997-1.173-.284-.081-.59-.205-.59-.41 0-.144.203-.268.671-.268.265 0 1.77.062 2.298.062.651 0 1.932-.082 2.175-.082.387 0 .631.103.631.267 0 .206-.183.33-.651.452-.731.165-.854.493-.895 1.09-.101.966-.162 2.816-.162 5.735 0 2.015.061 3.084.081 3.761.02.802.225.864 1.038 1.13.366.124.568.268.568.433 0 .226-.285.287-.65.287-.346 0-1.443-.061-2.054-.061-.448 0-2.074.103-2.481.103-.486 0-.69-.103-.69-.288s.265-.35.548-.432c.997-.267 1.037-.43 1.14-1.953.06-.822.081-2.755.04-3.309 0-.185-.082-.268-.164-.268-1.626 0-5.793-.06-6.2-.02-.101.02-.265.185-.265.308-.04.761 0 2.96.021 3.618.02.967.143 1.274.974 1.521.428.124.713.289.713.514.021.206-.385.267-.65.267-.143 0-1.83-.061-2.54-.061-.47 0-1.506.082-2.197.082-.529 0-.712-.102-.712-.268 0-.225.224-.349.57-.45.894-.248 1.076-.474 1.179-1.338.081-.821.183-3.885.183-6.7 0-.617.04-1.748 0-2.57-.042-.679-.224-.904-.895-1.11-.467-.144-.69-.288-.69-.453 0-.205.263-.287.63-.287.548 0 1.665.082 2.195.082.854 0 1.769-.062 2.256-.062.427 0 .671.083.671.267 0 .227-.264.35-.692.453-.852.185-.914.576-.935 1.418-.04.74-.12 3.125-.06 3.515.02.165.1.268.244.268zm21.669-6.002c.142 0 .265.103.265.226-.041.596-.02 1.912 0 2.61.021.267-.123.658-.284.658-.163 0-.367-.103-.488-.576-.265-.904-.631-1.85-1.384-1.932-.629-.082-2.155-.061-2.581-.041-.406 0-.508.123-.508.329-.083 1.069-.083 2.919-.083 4.296 0 1.439.021 4.194.021 5.653.021.885.346 1.09 1.282 1.316.304.102.528.247.528.41 0 .164-.244.309-.611.309-.507 0-1.747-.103-2.52-.103-.752 0-2.032.123-2.44.123-.325 0-.548-.185-.548-.287 0-.226.243-.37.609-.452.874-.206.956-.556.996-1.029.062-.637.224-1.87.224-5.899 0-1.911 0-3.165-.041-3.7-.04-.678-.183-.925-.976-1.11-.447-.123-.609-.247-.609-.452 0-.144.284-.268.588-.268.896 0 1.689.062 2.501.062h2.644c2.684 0 3.172-.082 3.415-.143zm6.953.657c-.182 0-.468.123-.55.185-.06.062-.161.288-.182.76-.02.412-.02 2.96-.04 5.304 0 1.871.04 3.207.04 3.72.021 1.255.082 1.625 1.262 1.933.405.082.568.247.568.432 0 .164-.345.287-.629.287-.531 0-1.688-.123-2.582-.123-.591 0-1.587.082-2.217.082-.469 0-.753-.102-.753-.33 0-.143.284-.308.489-.369.996-.246 1.24-.555 1.3-1.5a48.47 48.47 0 00.123-3.207c0-.658 0-5.262-.04-5.858-.063-.72-.165-1.048-1.282-1.193-.265-.04-.467-.184-.467-.308 0-.165.182-.288.426-.329.122-.02.488-.02.671-.02 1.3 0 2.969-.165 3.884-.165 1.951 0 3.274.37 4.108 1.192a3.908 3.908 0 011.178 2.775c0 1.686-.752 2.59-1.343 3.104-.528.452-1.645.925-2.438.925-.224 0-.794-.04-1.057-.144-.286-.123-.428-.225-.428-.41 0-.083.142-.206.304-.206h.305c.855 0 2.116-1.028 2.116-3.166 0-1.644-1.1-3.37-2.766-3.37zm14.088-.513c.67 0 1.502-.082 1.788-.123.082-.021.224.123.244.267.021.37.021 1.788.021 2.2 0 .287-.144.575-.325.575-.183 0-.346-.308-.386-.514-.267-1.151-.835-1.46-1.302-1.542-.386-.062-1.26-.144-2.827-.123-.081 0-.245.082-.265.575-.04.514-.1 3.371-.079 4.502 0 .062.079.205.202.205h1.626c1.444 0 1.404-.082 1.79-.986.122-.308.263-.535.448-.535.162 0 .223.35.202.576-.04.576-.081.945-.081 1.418 0 .555.041.884.081 1.398.021.37-.102.617-.264.617-.162 0-.325-.247-.386-.453-.266-.904-.529-1.047-1.322-1.11-.651-.061-1.404-.061-2.033-.061-.081 0-.263.205-.263.247-.083.575-.062 2.178-.041 2.856.02.494 0 1.255.08 1.686.06.186.245.453.448.494.325.061.956.123 1.646.123.611 0 1.363 0 1.871-.184.61-.227 1.159-.72 1.606-1.523.285-.534.468-.719.632-.719.202 0 .182.432.161.597 0 .164-.589 2.056-.772 2.385-.06.143-.387.266-.488.266-.224 0-5.246-.103-6.77-.103-1.362 0-1.587.103-2.319.103-.385 0-.692-.061-.692-.266 0-.186.266-.33.612-.413 1.037-.245 1.3-.452 1.381-1.561.062-.864.163-2.426.163-4.975 0-2.425.02-3.371-.02-3.967-.041-.74-.203-1.151-1.078-1.316-.426-.082-.651-.164-.651-.37 0-.185.346-.308.631-.308.955 0 2.624.062 3.679.062h3.052zm14.582-.021c.488.123.996.246 1.464.308.141 0 .305.247.305.555.019.575.06 1.295.102 1.892.02.431-.123.78-.347.78-.101 0-.284-.246-.386-.555-.203-.636-.508-1.192-.854-1.46-.874-.739-1.91-1.192-3.009-1.192-3.233 0-4.758 2.59-4.758 5.715 0 1.377.245 2.57.692 3.474 1.118 2.261 2.968 3.063 4.554 3.063.264 0 1.261-.04 1.972-.473.753-.43 1.301-1.028 1.769-1.87.244-.452.387-.638.549-.638.224 0 .224.534.163.761-.103.513-.428 1.418-.611 1.789-.06.185-.425.514-.731.657-.286.102-1.687.595-3.558.595-3.008 0-5.143-1.356-5.977-2.322-.773-.904-1.708-2.343-1.708-4.624 0-2.488 1.381-4.235 2.236-4.935 1.727-1.438 3.822-1.849 5.489-1.849.936 0 1.912.144 2.644.33zm13.854 0c.488.123.995.246 1.462.308.144 0 .307.247.307.555.02.575.061 1.295.101 1.892.022.431-.123.78-.346.78-.101 0-.284-.246-.384-.555-.205-.636-.51-1.192-.856-1.46-.874-.739-1.91-1.192-3.008-1.192-3.233 0-4.759 2.59-4.759 5.715 0 1.377.245 2.57.693 3.474 1.117 2.261 2.967 3.063 4.554 3.063.263 0 1.26-.04 1.971-.473.753-.43 1.301-1.028 1.769-1.87.243-.452.388-.638.549-.638.223 0 .223.534.163.761-.102.513-.427 1.418-.61 1.789-.061.185-.426.514-.731.657-.286.102-1.688.595-3.559.595-3.01 0-5.143-1.356-5.977-2.322-.773-.904-1.707-2.343-1.707-4.624 0-2.488 1.382-4.235 2.236-4.935 1.727-1.438 3.821-1.849 5.489-1.849.935 0 1.911.144 2.643.33zM28.323 26.68c-.383.378-.79 1.2-.79 2.558 0 1.759 1.061 3.665 2.71 3.665.621 0 1.017-.32 1.152-.468.475-.48.87-1.46.87-2.683 0-.902-.35-2.272-1.174-3.037-.384-.354-.995-.616-1.491-.616-.508 0-1.016.32-1.277.582zm5.49 2.718c0 1.496-.633 2.466-1.424 3.106-.643.502-1.603.822-2.474.822-1.173 0-2.223-.457-2.935-1.222-.61-.662-.96-1.564-.96-2.614 0-1.394.599-2.284 1.445-2.97.508-.399 1.457-.821 2.406-.821 2.496 0 3.941 1.873 3.941 3.7zm4.89-.765c.373 0 .633-.034.938-.034.192 0 .305.057.305.137 0 .114-.09.16-.249.205-.395.114-.372.229-.406.468-.012.092-.012.686-.012 1.314 0 .65.012 1.21.034 1.575.023.32.147.377.441.48.18.057.259.125.259.217 0 .09-.146.171-.27.171-.25 0-.848-.046-1.096-.046-.294 0-.576.023-.916.023-.124 0-.315-.034-.315-.16 0-.114.17-.17.361-.217.227-.057.294-.182.305-.376 0-.263 0-.937.011-1.702 0-.525-.01-1.279-.034-1.495 0-.08-.034-.138-.101-.149-.452-.011-.892.011-1.344.011-.09 0-.113.046-.124.149a64.76 64.76 0 00-.046 1.587c-.01.537 0 1.347.012 1.53.011.274.08.388.27.445.182.046.26.137.26.206 0 .057-.055.182-.304.182-.08 0-.599-.034-.847-.034-.361 0-.825.035-1.016.035-.193 0-.283-.103-.283-.195 0-.08.113-.148.294-.194.26-.068.304-.148.338-.274.046-.16.08-.947.09-1.69.012-.639.023-1.187.012-1.381-.012-.297-.079-.377-.407-.468-.169-.046-.248-.126-.248-.194 0-.126.135-.16.294-.16.282 0 .734.034.983.034h2.811zm3.152 1.131c-.012.056.034.114.078.114.294.011.645 0 1.209 0 .192 0 .396-.114.396-.389 0-.32-.317-.696-.633-.696-.474 0-.915.445-1.05.97zm2.337-.811c.26.25.43.605.43 1.005 0 .08-.113.274-.249.274h-2.462c-.056 0-.112.034-.124.08-.034.09-.045.262-.045.41 0 .252.135.777.35 1.062.282.366.757.571 1.254.571.474 0 .801-.114 1.016-.4.045-.068.101-.136.147-.136.045 0 .101.08.101.148a.645.645 0 01-.09.285c-.35.548-.88.994-1.807.994-1.3 0-2.089-.994-2.089-2.295 0-.914.497-1.827 1.434-2.26a2.19 2.19 0 01.926-.218c.452 0 .915.183 1.208.48zm2.971.354a.598.598 0 00-.124.297c-.068.502-.068 1.427-.045 2.032 0 .205.045.4.113.525.237.422.689.651.926.651a.61.61 0 00.384-.137c.587-.434.677-1.416.677-1.724 0-.309-.056-.89-.474-1.359-.248-.285-.666-.422-.847-.422-.214 0-.464.057-.61.137zm2.655-.171c.304.353.552.879.552 1.495 0 .834-.361 1.507-.97 1.987-.634.502-1.345.582-1.74.582-.204 0-.418-.012-.553-.034-.046-.012-.09.103-.09.16-.012.514.011 1.472.044 1.724.034.308.091.48.542.616.227.069.305.16.305.24 0 .103-.18.148-.316.148-.316 0-1.095-.057-1.502-.057-.282 0-.429.035-.914.035-.193 0-.328-.069-.328-.171 0-.07.113-.16.294-.206.53-.114.598-.252.632-.925.011-.4.034-1.313.034-2.466 0-.765.011-2.044-.011-2.478-.012-.24-.046-.285-.079-.32-.204-.16-.43-.353-.43-.41 0-.058.125-.217.238-.263.225-.069.847-.263 1.151-.445a.732.732 0 01.227-.103c.044 0 .135.103.135.16-.022.205-.022.354-.034.536 0 .046.056.092.09.08.203-.137.508-.297.667-.365.192-.08.452-.16.779-.16.452 0 .971.286 1.277.64zm2.642.628c-.011.056.034.114.08.114.293.011.643 0 1.207 0 .193 0 .396-.114.396-.389 0-.32-.316-.696-.633-.696-.474 0-.914.445-1.05.97zm2.338-.811c.26.25.429.605.429 1.005 0 .08-.113.274-.248.274h-2.462c-.057 0-.114.034-.125.08a1.45 1.45 0 00-.045.41c0 .252.136.777.35 1.062.282.366.757.571 1.254.571.474 0 .802-.114 1.016-.4.046-.068.102-.136.147-.136.046 0 .102.08.102.148a.634.634 0 01-.09.285c-.35.548-.881.994-1.807.994-1.3 0-2.09-.994-2.09-2.295 0-.914.497-1.827 1.435-2.26.282-.138.62-.218.925-.218.452 0 .916.183 1.209.48zm3.999.457c-.023-.366-.17-.411-.362-.468-.192-.057-.249-.126-.249-.206 0-.08.114-.137.271-.137.08 0 .621.035.848.035.36 0 .722-.035.914-.035.192 0 .294.057.294.137 0 .069-.08.137-.226.171-.327.092-.373.286-.384.434 0 .091-.022.64-.022 1.29 0 .035.022.069.067.069.339 0 .577-.16.768-.434.158-.217.237-.376.485-.834.25-.49.655-.924 1.13-.924.361 0 .542.194.542.48 0 .308-.215.616-.328.582-.18-.035-.338-.149-.576-.149a.643.643 0 00-.553.331c-.225.354-.293.48-.429.64-.011.011 0 .045.011.057.125.068.272.24.384.41.271.4.735 1.143 1.04 1.577.158.205.383.353.688.433.124.034.181.069.181.16 0 .126-.238.206-.757.206-.655 0-.993-.206-1.276-.606-.203-.296-.428-.65-.71-1.084-.227-.366-.352-.56-.611-.582-.023 0-.046.045-.046.091 0 .525 0 .97.012 1.279.011.365.135.41.362.468.157.034.282.102.282.182 0 .126-.136.172-.294.172-.27 0-.61-.035-.971-.035-.35 0-.644.035-.903.035-.136 0-.272-.092-.272-.172 0-.09.113-.148.294-.194.249-.068.316-.171.339-.297.022-.137.045-.662.045-1.45 0-.034 0-.068-.045-.068-.159-.011-.384.251-.452.365-.236.343-.486.686-.881 1.222-.304.411-.677.662-1.299.662-.508 0-.71-.091-.71-.217 0-.068.055-.114.17-.148.326-.103.518-.24.687-.434.316-.365.712-.97 1.016-1.37.17-.217.373-.423.498-.491.022-.011.033-.034 0-.068-.136-.172-.328-.48-.52-.766-.124-.16-.305-.308-.542-.308-.215 0-.396.103-.553.137-.046 0-.17-.011-.237-.08-.068-.068-.136-.251-.136-.445 0-.274.192-.525.667-.525.542 0 .79.4.949.696.338.64.405.845.654 1.154.146.17.395.342.7.342.034 0 .046-.034.046-.057 0-.731.01-1.108 0-1.233zm6.968 3.014c.045-.035.09-.172.09-.217.023-.16.046-.64.046-1.016 0-.046-.046-.115-.08-.115-.191 0-.71.172-.914.297-.136.103-.203.16-.203.457 0 .502.406.73.621.73.1 0 .327-.068.44-.136zm1.05-3.334c.136.183.249.468.249.982 0 .445-.046 1.803-.046 1.93 0 .319.227.456.418.456.057 0 .283-.092.395-.137.035-.023.046-.011.069.011a.469.469 0 01.033.16c0 .217-.53.777-1.163.777-.327 0-.678-.103-.847-.548-.01-.046-.08-.069-.102-.046a5.045 5.045 0 01-.892.48c-.124.045-.35.09-.496.09-.419 0-.87-.513-.87-1.152 0-.206.09-.423.203-.583.113-.16.305-.228.407-.274.248-.103 1.276-.388 1.535-.468.136-.046.204-.126.204-.171.011-.103.034-.73.023-.88-.012-.273-.25-.73-.758-.73-.157 0-.281.023-.36.08-.046.023-.068.137-.068.525 0 .046-.023.08-.045.103-.08.08-.915.456-.994.456-.068 0-.148-.09-.148-.16 0-.33.25-.639.95-1.095.417-.274.97-.423 1.129-.423.69 0 1.005.366 1.174.617zm4.755.114c0-.103-.033-.229-.078-.229-.08-.022-.09-.034-.26-.034-.485 0-.915.274-.915.811 0 .628.542.936 1.208.948.046 0 .057-.035.057-.08.012-.355 0-1.016-.011-1.416zm1.863-.491c0 .103-.089.217-.27.251-.384.103-.384.24-.395.388 0 .092-.023.571-.023 1.222 0 .685.011 1.313.023 1.713.011.365.204.4.406.468.18.057.282.148.282.24 0 .08-.146.16-.293.16-.08 0-.983-.035-1.22-.035-.372 0-.542.034-.745.034-.17 0-.328-.057-.328-.171 0-.102.103-.148.271-.194.26-.069.396-.217.418-.342.023-.137.023-1.017.023-1.36 0-.068-.034-.09-.057-.09-.17 0-.36.16-.61.502-.293.388-.496.708-.756 1.062-.316.422-.643.65-1.378.65-.079 0-.338.012-.462-.034-.08-.023-.216-.068-.216-.16 0-.09.103-.114.204-.148.271-.08.508-.206 1.175-1.096.293-.377.598-.685.756-.777.023-.01.023-.034 0-.034-.78-.171-1.174-.616-1.174-1.13 0-.617.372-1.233 1.965-1.233.519 0 1.14.034 1.525.023.225 0 .429-.012.586-.012.126.012.293.023.293.103zm5.705 2.364c-.17-.114-.519-.194-.723-.194-.135 0-.203 0-.304.022-.046.012-.068.058-.08.137-.022.115-.022.549-.011.925 0 .217.023.4.124.56.09.125.328.262.44.262.543 0 .95-.456.95-.981 0-.343-.193-.583-.396-.731zm-.756-2.124c-.158 0-.26.034-.305.069-.034.034-.057.102-.068.25-.012.16-.022.971 0 1.143.011.09.056.114.124.114.192 0 .543-.012.723-.08.294-.114.452-.365.452-.697 0-.308-.272-.799-.926-.799zm1.422 1.656c-.056.011-.022.057.023.08.203.057.452.182.542.25.17.138.406.343.406.811 0 .617-.45 1.017-.937 1.199-.43.16-.982.183-1.445.183-.249 0-.497-.011-.791-.011-.361 0-.812.023-1.208.034-.158.011-.294-.092-.294-.183 0-.103.136-.137.283-.171.395-.103.407-.263.43-.537.033-.24.044-.616.044-1.507 0-.445.011-.845-.011-1.29-.012-.285-.045-.377-.429-.491-.136-.034-.248-.126-.248-.263 0-.057.044-.114.237-.114.203 0 .666.034.89.034.216 0 1.165-.057 1.526-.057.712 0 1.66.183 1.66 1.085 0 .537-.339.788-.678.948zm3.446-1.302a.606.606 0 00-.125.297c-.067.502-.067 1.427-.045 2.032 0 .205.045.4.113.525.237.422.69.651.926.651a.61.61 0 00.384-.137c.587-.434.678-1.416.678-1.724 0-.309-.057-.89-.475-1.359-.248-.285-.666-.422-.846-.422-.216 0-.464.057-.61.137zm2.653-.171c.305.353.554.879.554 1.495 0 .834-.361 1.507-.972 1.987-.632.502-1.343.582-1.74.582-.202 0-.416-.012-.552-.034-.045-.012-.09.103-.09.16-.012.514.01 1.472.045 1.724.034.308.09.48.542.616.225.069.304.16.304.24 0 .103-.18.148-.315.148-.317 0-1.095-.057-1.503-.057-.281 0-.428.035-.914.035-.192 0-.328-.069-.328-.171 0-.07.113-.16.293-.206.532-.114.6-.252.634-.925.01-.4.034-1.313.034-2.466 0-.765.011-2.044-.012-2.478-.011-.24-.045-.285-.08-.32-.202-.16-.428-.353-.428-.41 0-.058.124-.217.237-.263.226-.069.847-.263 1.152-.445a.74.74 0 01.226-.103c.045 0 .135.103.135.16-.023.205-.023.354-.034.536 0 .046.057.092.09.08.204-.137.509-.297.667-.365.192-.08.451-.16.78-.16.451 0 .97.286 1.275.64zm2.644.628c-.012.056.034.114.08.114.293.011.643 0 1.207 0 .191 0 .395-.114.395-.389 0-.32-.316-.696-.632-.696-.475 0-.915.445-1.05.97zm2.337-.811c.26.25.43.605.43 1.005 0 .08-.113.274-.249.274h-2.461c-.057 0-.114.034-.126.08a1.45 1.45 0 00-.044.41c0 .252.136.777.35 1.062.282.366.757.571 1.254.571.474 0 .802-.114 1.016-.4.045-.068.101-.136.147-.136.045 0 .101.08.101.148a.644.644 0 01-.09.285c-.35.548-.881.994-1.807.994-1.299 0-2.09-.994-2.09-2.295 0-.914.498-1.827 1.435-2.26a2.21 2.21 0 01.927-.218c.45 0 .914.183 1.207.48zm4.1 2.249c.022.034.056.011.08-.023.146-.251 1.015-2.112 1.118-2.455.022-.046.078-.102.124-.102h.632c.361.011.565-.035.88-.035.136 0 .25.012.25.091 0 .115-.102.206-.25.24-.36.103-.463.217-.486.549-.033.65.012 2.603.035 2.854.034.365.203.388.44.468.17.046.26.114.26.183 0 .136-.191.182-.316.182-.339 0-.892-.034-1.118-.034-.237 0-.542.034-.813.034-.147 0-.339-.057-.339-.182 0-.069.124-.149.316-.206.226-.069.305-.125.328-.388.045-.445.079-2.204.079-2.66 0-.023-.056-.058-.09.034-.52 1.199-1.005 2.283-1.232 2.923-.056.16-.214.388-.327.388-.101 0-.203-.251-.225-.331-.328-.89-.814-1.964-1.232-2.946-.022-.034-.09-.057-.09 0-.035.88-.068 2.021-.034 2.443.022.297.124.457.542.571.17.058.249.126.249.194 0 .103-.113.16-.294.16s-.52-.034-.745-.034c-.374 0-.576.034-.802.034-.147 0-.248-.068-.248-.148 0-.068.056-.137.248-.194.327-.092.485-.309.53-.64.08-.536.18-2.032.18-2.774 0-.251-.156-.388-.53-.49-.214-.058-.259-.127-.259-.195 0-.08.112-.149.305-.149.293 0 .677.058 1.072.058.17 0 .362.011.43.011.056 0 .124.068.135.126.192.48.994 2.043 1.197 2.443zm6.755-1.998c0-.103-.034-.229-.08-.229-.079-.022-.091-.034-.259-.034-.487 0-.915.274-.915.811 0 .628.542.936 1.209.948.045 0 .055-.035.055-.08.012-.355 0-1.016-.01-1.416zm1.863-.491c0 .103-.09.217-.271.251-.384.103-.384.24-.396.388 0 .092-.022.571-.022 1.222 0 .685.011 1.313.022 1.713.012.365.203.4.407.468.181.057.282.148.282.24 0 .08-.147.16-.293.16-.079 0-.983-.035-1.22-.035-.372 0-.543.034-.745.034-.17 0-.327-.057-.327-.171 0-.102.101-.148.27-.194.259-.069.396-.217.419-.342.021-.137.021-1.017.021-1.36 0-.068-.033-.09-.055-.09-.17 0-.363.16-.611.502-.293.388-.497.708-.756 1.062-.317.422-.644.65-1.378.65-.08 0-.339.012-.463-.034-.08-.023-.214-.068-.214-.16 0-.09.101-.114.203-.148.27-.08.508-.206 1.174-1.096.294-.377.599-.685.757-.777.023-.01.023-.034 0-.034-.78-.171-1.175-.616-1.175-1.13 0-.617.373-1.233 1.965-1.233.52 0 1.141.034 1.525.023.226 0 .429-.012.588-.012.123.012.293.023.293.103z" fill="#222"/></g></svg>