<svg width="131" height="51" fill="none" xmlns="http://www.w3.org/2000/svg"><g clip-path="url(#clip0_79_416)"><path d="M129.152 50.5H54.488v-1.742h74.664V50.5z" fill="#C9A565"/><path d="M61.365 4.422h-4.223v9.581h-2.759V1.81h9.74v12.194h-2.758V4.422zm5.776-2.613h2.776l3.724 5.14 3.516-5.14h2.603v12.194h-2.757v-7.77l-3.362 4.756h-.397L69.9 6.286v7.717h-2.759V1.81zm17.207 4.668h4.741c-.534-1.48-1.931-2.264-3.758-2.264-.862 0-1.81.28-2.62.888l-1.052-2.09c.81-.715 2.293-1.412 4.344-1.412 3.5 0 6.085 2.51 6.085 6.307 0 3.92-2.499 6.306-6.447 6.306-1.742 0-3.345-.592-4.069-1.27l1.173-2.354c.62.523 1.637 1.01 2.845 1.01 1.602 0 3.137-.713 3.602-2.507h-4.844V6.477zm16.982-.957v4.424c1.81-.035 2.465-.784 2.465-2.212 0-1.15-.621-2.16-2.465-2.213zm-2.759 4.424V5.52c-1.758.053-2.43 1.028-2.43 2.213 0 1.41.74 2.177 2.43 2.212zm0 2.561c-3.223-.035-5.361-1.725-5.361-4.773 0-3.014 2.19-4.686 5.361-4.773v-1.29h2.759v1.29c3.137.07 5.396 1.794 5.396 4.773 0 3.031-2.19 4.738-5.396 4.773v1.638h-2.759v-1.638zm9.846-6.795c-.431-.452-.655-1.218-.655-1.828 0-1.847 1.189-2.927 1.947-3.38l1.208 1.097a2.38 2.38 0 00-.742 1.708c0 .4.138.853.414 1.133l-2.172 1.27zM57.66 18.307h-2.302v4.36h-.907V17.45h4.116v5.215h-.908v-4.359zm2.486-.856h2.986v.856h-2.08v1.297h1.859v.857h-1.858v1.349h2.153v.857h-3.06V17.45zm3.747 0h4.256v.856h-1.675v4.36h-.906v-4.36h-1.675v-.856zm5.192 0h2.988v.856h-2.08v1.297h1.858v.857h-1.859v1.349h2.154v.857h-3.06V17.45zm5.296.856v1.603c.214.022.435.037.641.037.54 0 .96-.26.96-.84 0-.545-.332-.814-.95-.814-.186 0-.407.007-.65.014zm-.907 4.36V17.45c.288 0 1.107-.015 1.467-.015 1.52 0 1.998.82 1.998 1.677 0 .887-.655 1.69-1.887 1.69-.154 0-.45 0-.67-.021v1.884h-.908zm5.569-2.34v1.483c.207.015.383.03.575.03.671 0 .951-.313.951-.775 0-.447-.272-.784-.907-.784-.168 0-.39.017-.619.046zm-.907-2.876h3.017v.856h-2.11v1.164c.2-.03.508-.045.693-.045 1.076 0 1.733.61 1.733 1.572 0 1.08-.723 1.698-1.99 1.698-.598 0-1.04-.03-1.343-.03v-5.215zm7.154 4.001c-.354.797-.76 1.214-1.401 1.214-.265 0-.568-.096-.708-.208l.317-.774c.14.096.236.126.384.126.243 0 .405-.141.509-.365l.073-.18-2.279-3.814h1.027l1.687 2.914 1.231-2.914h.915l-1.755 4.001zm3.614-3.145v1.603c.214.022.436.037.642.037.538 0 .958-.26.958-.84 0-.545-.33-.814-.95-.814-.184 0-.405.007-.65.014zm-.906 4.36V17.45c.287 0 1.105-.015 1.467-.015 1.52 0 1.998.82 1.998 1.677 0 .887-.656 1.69-1.888 1.69-.154 0-.449 0-.67-.021v1.884h-.907zm4.661-5.216h2.913v.856h-2.006v4.36h-.907V17.45zm7.625 4.709c-.324.35-.98.59-1.65.59-1.579 0-2.663-1.067-2.663-2.69 0-1.498.936-2.69 2.64-2.69.671 0 1.231.215 1.571.527l-.407.679a1.933 1.933 0 00-1.164-.35c-.959 0-1.68.7-1.68 1.833 0 1.088.729 1.832 1.782 1.832.437 0 .872-.14 1.225-.416l.346.685zm1.048-4.709h.909v2.474l2.035-2.474h1.09l-2.123 2.43 2.257 2.785h-1.151l-2.108-2.69v2.69h-.909v-5.215zm5.106 5.215v-5.215h.907v3.71l2.706-3.71h.796v5.215h-.906v-3.703l-2.707 3.703h-.796zm7.656-6.482c.059.29.257.432.626.432.331 0 .56-.112.589-.431h.849c-.022.64-.627 1.065-1.438 1.065-.884 0-1.423-.432-1.474-1.066h.848zm-1.668 6.482v-5.215h.907v3.71l2.707-3.71h.796v5.215h-.906v-3.703l-2.707 3.703h-.797zm-58.012 2.331h.916l1.762 2.437 1.681-2.437h.855v5.216h-.9v-3.77L57.1 28.76h-.134l-1.645-2.295v3.748h-.907v-5.216zm6.639 0h2.988v.857h-2.08v1.297h1.858v.856H61.96v1.349h2.153v.857h-3.061v-5.216zm3.936 0h1.039l1.872 2.489v-2.49h.9v2.49l1.866-2.49h1.047l-1.94 2.49 2.02 2.727h-1.045L68.8 27.507v2.706h-.9v-2.706l-1.953 2.706h-1.04l2.02-2.72-1.939-2.496zm8.971 4.359h2.153v-3.502H74.69l-.081.91c-.096 1.348-.465 2.361-.65 2.592zm-1.548 0h.553c.213-.268.707-1.372.796-3.316l.052-1.043h3.2v4.359h.7v1.788h-.848v-.931H73.26v.931h-.848v-1.788zm8.72-.358c-.355.798-.76 1.215-1.401 1.215-.265 0-.568-.097-.708-.209l.317-.775a.59.59 0 00.384.127c.242 0 .405-.142.509-.365l.073-.18-2.278-3.814h1.024l1.69 2.913 1.23-2.913h.916l-1.756 4.001zm5.952-1.014h-2.36v2.229h-.907v-5.216h.907v2.13h2.36v-2.13h.9v5.216h-.9v-2.229zm3.611.038h1.51l-.752-1.855-.758 1.855zm.383-3.04h.797l2.182 5.23h-.966l-.538-1.333h-2.205l-.538 1.334h-.915l2.183-5.232zm4.804.872v1.602c.214.022.436.037.642.037.539 0 .958-.26.958-.842 0-.544-.331-.813-.95-.813-.185 0-.405.008-.65.016zm-.907 4.359v-5.216c.29 0 1.106-.016 1.468-.016 1.52 0 1.998.82 1.998 1.677 0 .887-.656 1.691-1.887 1.691-.155 0-.45 0-.672-.022v1.886h-.907zm6.977-.775c1.083 0 1.732-.805 1.732-1.834 0-1.08-.759-1.832-1.732-1.832-.989 0-1.726.752-1.726 1.832 0 1.044.759 1.834 1.726 1.834zm0-4.523c1.533 0 2.692 1.065 2.692 2.69 0 1.564-1.159 2.69-2.692 2.69-1.534 0-2.684-1.066-2.684-2.69 0-1.512 1.098-2.69 2.684-2.69zm4.72 4.441h2.154v-3.502h-1.424l-.081.91c-.096 1.348-.465 2.361-.649 2.592zm-1.549 0h.554c.214-.268.707-1.372.795-3.316l.052-1.043h3.2v4.359h.702v1.788h-.85v-.931h-3.604v.931h-.849v-1.788zm9.551-1.372h-2.361v2.229h-.906v-5.216h.906v2.13h2.361v-2.13h.9v5.216h-.9v-2.229zm6.361-2.987h.9v5.216h-.9v-5.216zm-3.134 2.645v1.707c.163.007.311.021.487.021.664 0 1.019-.305 1.019-.916 0-.559-.37-.85-1.004-.85-.141 0-.295.016-.502.038zm0-.857c.23-.03.429-.037.576-.037 1.275 0 1.888.663 1.888 1.684 0 1.102-.768 1.795-2.087 1.795-.486 0-.982-.014-1.283-.014v-5.216h.906v1.788zm7.126-3.055c.06.29.258.432.627.432.332 0 .561-.112.589-.432h.849c-.022.64-.626 1.066-1.438 1.066-.885 0-1.423-.433-1.475-1.066h.848zm-1.668 6.483v-5.216h.909v3.71l2.706-3.71h.796v5.216h-.907v-3.704l-2.706 3.704h-.798zm-68.023 4.461h2.301c-.177-.872-.885-1.357-1.858-1.357a2 2 0 00-1.21.403l-.353-.686c.36-.313.988-.574 1.777-.574 1.519 0 2.596 1.058 2.596 2.684 0 1.63-1.048 2.697-2.7 2.697-.715 0-1.37-.232-1.732-.544l.392-.767c.323.253.787.454 1.326.454.884 0 1.63-.492 1.784-1.453h-2.323v-.857zm4.448-2.131h.907v2.474l2.035-2.474h1.092l-2.123 2.43 2.256 2.786H62.8l-2.11-2.69v2.69h-.907v-5.216zm7.118 4.441c1.083 0 1.732-.805 1.732-1.833 0-1.081-.759-1.834-1.732-1.834-.99 0-1.726.753-1.726 1.834 0 1.043.76 1.833 1.726 1.833zm0-4.524c1.534 0 2.691 1.065 2.691 2.69 0 1.566-1.157 2.69-2.69 2.69-1.535 0-2.686-1.065-2.686-2.69 0-1.512 1.1-2.69 2.685-2.69zm7.154 3.07h-2.36v2.23h-.906v-5.217h.906v2.13h2.36v-2.13h.9v5.216h-.9v-2.228zm4.779 1.454c1.084 0 1.734-.805 1.734-1.833 0-1.081-.76-1.834-1.734-1.834-.988 0-1.724.753-1.724 1.834 0 1.043.76 1.833 1.724 1.833zm0-4.524c1.535 0 2.692 1.065 2.692 2.69 0 1.566-1.157 2.69-2.692 2.69-1.533 0-2.684-1.065-2.684-2.69 0-1.512 1.1-2.69 2.684-2.69zm3.888.083h.915l1.762 2.436 1.681-2.436h.856v5.216h-.9v-3.77l-1.629 2.317h-.133l-1.644-2.295v3.748h-.908v-5.216zm6.793 5.217v-5.217h.907v3.71l2.707-3.71h.796v5.216h-.907v-3.703l-2.706 3.703h-.797zm9.477 0h-.906v-2.14c-.243.18-.68.358-1.23.358-.783 0-1.573-.425-1.573-1.67v-1.765h.908v1.505c0 .835.398 1.073.907 1.073.399 0 .73-.156.988-.336v-2.242h.906v5.216zm1.58-5.217h2.986v.856h-2.078v1.297h1.857v.857h-1.857v1.349h2.153v.857h-3.061v-5.216zm8.32 4.709c-.326.35-.981.589-1.652.589-1.578 0-2.662-1.066-2.662-2.69 0-1.498.935-2.69 2.639-2.69.672 0 1.232.215 1.571.529l-.406.678a1.937 1.937 0 00-1.165-.351c-.958 0-1.68.701-1.68 1.834 0 1.087.729 1.833 1.783 1.833.436 0 .871-.142 1.225-.418l.347.686zm1.048-4.709h.906v2.474l2.036-2.474h1.091l-2.124 2.43 2.258 2.786h-1.152l-2.109-2.69v2.69h-.906v-5.216zm5.104 5.217v-5.217h.906v3.71l2.707-3.71h.796v5.216h-.908v-3.703l-2.704 3.703h-.797zm7.655-6.484c.06.291.259.433.628.433.332 0 .561-.113.589-.433h.848c-.021.641-.627 1.066-1.437 1.066-.885 0-1.424-.432-1.475-1.066h.847zm-1.666 6.483v-5.216h.907v3.71l2.706-3.71h.797v5.216h-.908v-3.703l-2.705 3.703h-.797zm-63.456 3.656v2.415c.937-.008 1.423-.41 1.423-1.208 0-.7-.457-1.193-1.423-1.207zm-.906 2.415v-2.415c-.944.007-1.423.499-1.423 1.207 0 .782.515 1.2 1.423 1.208zm0 .841c-1.423 0-2.383-.73-2.383-2.05 0-1.303.967-2.025 2.383-2.048v-.544h.906v.544c1.409.023 2.383.767 2.383 2.049 0 1.304-.974 2.042-2.383 2.049v.694h-.906v-.694zm6.711-.141c1.084 0 1.733-.805 1.733-1.833 0-1.08-.76-1.833-1.733-1.833-.988 0-1.725.753-1.725 1.833 0 1.043.76 1.832 1.725 1.832zm0-4.523c1.534 0 2.691 1.066 2.691 2.69 0 1.564-1.157 2.69-2.69 2.69-1.534 0-2.684-1.066-2.684-2.69 0-1.513 1.098-2.69 2.683-2.69zm4.794.938v1.603c.215.022.436.036.642.036.538 0 .959-.26.959-.84 0-.545-.332-.813-.951-.813-.185 0-.406.007-.65.014zm-.906 4.36v-5.216c.287 0 1.106-.015 1.467-.015 1.52 0 1.998.82 1.998 1.677 0 .886-.656 1.69-1.887 1.69-.155 0-.45 0-.672-.022v1.886h-.906zm6.874-1.215c-.354.798-.76 1.215-1.4 1.215-.266 0-.568-.098-.709-.209l.317-.775c.14.097.237.127.384.127.243 0 .405-.142.508-.366l.073-.178-2.278-3.815h1.025l1.69 2.913 1.23-2.913h.915l-1.755 4zm2.708-4h.914l1.762 2.435 1.681-2.436h.856v5.216h-.9v-3.771l-1.629 2.317h-.133l-1.644-2.295v3.749h-.907v-5.216z" fill="#8A8A8A"/><path d="M22.079 1.345C9.949 1.345.117 11.279.117 23.535c0 12.257 9.833 22.192 21.962 22.192 12.125 0 21.957-9.934 21.957-22.192 0-12.256-9.832-22.19-21.957-22.19z" fill="#C9A565"/><path d="M26.823 13.84l-.01-.034h-10.05l.043.134c.589 1.8.913 3.726.913 5.73 0 2.005-.324 3.93-.913 5.73l-.044.135h10.05l.011-.035c.61-1.828.946-3.788.946-5.83 0-2.041-.336-4.002-.946-5.83zm8.901 4.671a.546.546 0 00-.007-.02h-6.035l.026.08a11.065 11.065 0 010 6.883l-.026.08h6.035a11.048 11.048 0 00.007-7.024zm-21.514 0l-.007-.02H8.167l.026.08c.354 1.081.548 2.238.548 3.442 0 1.204-.194 2.36-.548 3.441l-.026.08h6.036l.007-.02a11.053 11.053 0 000-7.003zm-1.575-4.278l-.002-.008h-2.366l.01.032a4.327 4.327 0 010 2.697l-.01.032h2.366l.002-.008a4.333 4.333 0 000-2.745zm21.293 0a.259.259 0 01-.002-.008H31.56l.01.032a4.33 4.33 0 010 2.697l-.01.032h2.366l.002-.008a4.33 4.33 0 000-2.745zM23.412 8.372c0-.004-.002-.007-.003-.01h-3.094l.013.04a5.66 5.66 0 010 3.529l-.013.04h3.094l.003-.01a5.66 5.66 0 000-3.59zm8.728 26.111l3.439-6.673-27.412-.053 3.959 6.672h9.55v2.437a1.489 1.489 0 00.354 2.874c.047.005.093.015.14.015h.011c.816 0 1.477-.668 1.477-1.492 0-.645-.407-1.19-.974-1.398v-2.436l9.456.054z" fill="#fff"/><path d="M111.855 12.2c2.039-2.024 4.794-4.446 4.794-6.67 0-.903-.429-1.246-1.145-1.246-.769 0-1.109.596-1.377 1.355l-2.236-1.03c.394-1.79 1.735-3.037 3.935-3.037 2.433 0 3.684 1.627 3.684 3.416 0 3.561-3.255 6.128-4.185 6.851h4.615v2.53h-8.085V12.2zm14.667-.542h-5.688V9.634l4.472-7.917h3.076l-4.096 7.23h2.236V6.236h2.683v2.71h1.467v2.712h-1.467v2.711h-2.683v-2.71z" fill="#8A8A8A"/></g><defs><clipPath id="clip0_79_416"><path fill="#fff" transform="translate(.117 .5)" d="M0 0h130.556v50H0z"/></clipPath></defs></svg>